<?xml version="1.0" encoding="UTF-8"?>
<svg width="146.8mm" height="67.032mm" version="1.1" viewBox="0 0 520.1662 237.51438" xmlns="http://www.w3.org/2000/svg" xmlns:xlink="http://www.w3.org/1999/xlink">
 <defs>
  <linearGradient id="a">
   <stop stop-color="#3d7b3d" offset="0"/>
   <stop stop-color="#93ac93" stop-opacity="0" offset="1"/>
  </linearGradient>
  <linearGradient id="e" x1="368.44" x2="368.24" y1="234.57" y2="225.57" gradientTransform="matrix(1.0806 0 0 .99741 -29.762 .59799)" gradientUnits="userSpaceOnUse" xlink:href="#a"/>
  <linearGradient id="f" x1="368.44" x2="368.24" y1="234.57" y2="225.57" gradientTransform="matrix(1.0806 0 0 .99741 107.95 -5.2356)" gradientUnits="userSpaceOnUse" xlink:href="#a"/>
  <linearGradient id="g" x1="411.43" x2="411.43" y1="109.48" y2="225.04" gradientUnits="userSpaceOnUse">
   <stop stop-color="#1a1a1a" offset="0"/>
   <stop stop-color="#1a1a1a" stop-opacity="0" offset="1"/>
  </linearGradient>
 </defs>
 <g transform="translate(-92.825 -118.97)">
  <path d="m135.58 324.65-0.13826-1.4433 104.07-1.9275c-0.19538 2.5593-0.45717 5.1186 0.37453 7.6779 3.6296-0.55266 3.7939-4.5706 4.8689-7.6779l7.4906-5.618-30.15-51.498-39.139-9.9251-32.959 8.0524-14.045 27.154z" fill-rule="evenodd"/>
  <path d="m487.08 310.04c0.5618 1.3109 2.2472 10.768 2.2472 10.768v-1e-5l0.74906-8.5206 98.833-7.6221c-0.55041 5.9117-2.0852 13.006 0.0435 12.304 2.2239 0.2912 2.7371-8.3166 5.3252-9.2422l-5.6998-29.147-32.21-24.532h-44.569s-23.596 32.022-23.783 32.959c-0.18726 0.93633-0.93633 23.034-0.93634 23.034z" fill-rule="evenodd" stroke="#000" stroke-linejoin="round" stroke-width="1px"/>
  <path d="m96.629 294.38c0.39794 1.0366 4.7965 10.006 3.1684 13.889 0.51759 1.9316 7.0312-0.40509 7.0312-0.69447 0-0.28936-5.1505-12.731-5.1505-12.731-5.1057-0.74137-2.4681-2.5637-5.0492-0.46292z" fill="#fea" fill-rule="evenodd"/>
  <path d="m241.93 317.48c58.928-0.82036 188.31-2.873 246.98-5.0508 12.877-77.407 97.089-65.136 105.04-3.8751 21.624-14.13 18.788-38.929 17.189-50.168-3.2408-7.4506-7.5086-8.2556-9.5964-15.657s-1.6632-18.092-3.8953-27.306c-3.7029-30.119-28.84-54.895-43.077-66.638 7.7024-0.97858 8.9635 0.15153 9.0914-3.5355-10.447-1.067-18.188-0.71139-24.749-1.0102-77.186-6.9517-145.97-9.3454-209.61-1.0102-66.92 27.528-88.528 48.63-126.27 64.902-11.729 2.1303-69.279 15.381-93.549 31.95-9.5375 13.176-11.417 21.398-12.844 26.476-2.5136 4.2004-1.2385 4.8536-1.6938 5.9716-0.86495 1.5277-2.0276 2.1002-1.8711 4.2262-0.61804 2.2861 0.06357 6.5532 1.5146 7.784 0.56712 2.8723 0.74448 7.7865 2.0611 9.8975 3.2738 1.1008 3.9089-0.51894 5.5558 2.2728s3.1689 8.8604 1.5152 10.733l-3.6618-0.12627c-1.5504 2.4303 3.5334 6.641 7.9549 8.5863 6.2525 2.8923 5.7983 1.5786 29.034 2.0834 2.3102-65.517 89.751-79.543 104.87-0.50507z" fill="#87deaa" fill-rule="evenodd"/>
  <path d="m495.28 223.62c0.0675 1.8777 0.71709 2.9032 2.8852 4.2864 1.7055 0.36616 4.9374 0.42628 8.1637 0.24546 2.9194-0.16362 5.8341-0.52451 7.609-1.0345 1.9804-1.1358 3.0441-1.9343 3.7598-4.4974-5.0926-0.88005-20.256 0.55608-22.418 1z" fill="url(#f)" fill-rule="evenodd" stroke="#000" stroke-linecap="round" stroke-linejoin="round" stroke-width=".41527"/>
  <path d="m108.56 314.92c-0.38623 2.5592-0.52229 5.7016 0.78918 6.8501 13.023 3.2319 21.172 2.6759 27.945 2.6617l0.26258-7.7186z" fill-rule="evenodd" stroke="#000" stroke-width="1px"/>
  <path d="m492.15 223.54c2.1399-0.27138-1.0999 0.0453 3.0936-0.35355-1.4192-8.0002 23.15-7.9537 22.451-1.4584 3.1008 0.52907 2.6264 0.24269 5.6569-0.22097 2.1388-10.105-35.123-9.1451-31.201 2.0329z" fill="none" stroke="#000" stroke-width=".4"/>
  <path d="m357.57 229.46c0.0675 1.8777 0.71709 2.9032 2.8852 4.2864 1.7055 0.36616 4.9374 0.42628 8.1637 0.24546 2.9194-0.16362 5.8341-0.52451 7.609-1.0345 1.9804-1.1358 3.0441-1.9343 3.7598-4.4974-5.0926-0.88005-20.256 0.55608-22.418 1z" fill="url(#e)" fill-rule="evenodd" stroke="#000" stroke-linecap="round" stroke-linejoin="round" stroke-width=".41527"/>
  <path d="m354.44 229.38c2.1399-0.27138-1.0999 0.0453 3.0936-0.35355-1.4192-8.0002 23.15-7.9537 22.451-1.4584 3.1008 0.52907 2.6264 0.24269 5.6569-0.22097 2.1388-10.105-35.123-9.1451-31.201 2.0329z" fill="none" stroke="#000" stroke-width=".4"/>
  <path d="m145 245.11c32.987-9.7237 416.18-22.618 437.25-25.75l-3-2.5c-93.381 7.8661-369.6 13.782-434.03 27.406l-0.21875 0.84375z" fill="#6dbb8c" fill-rule="evenodd"/>
  <path d="m252.5 309.51 230.71-4.6429c8.1506-31.2 15.658-35.865 50.714-66.429 8.9852-16.278-1.4235-76.461-16.875-86.562-58.13-14.209-147.4-10.755-190.98 0.84821-42.51 17.675-67.857 38.929-67.857 38.929-14.937 33.154-15.515 60.106-5.7143 117.86z" fill="none" stroke="#000" stroke-width=".48"/>
  <path d="m92.871 277.32s-0.48586 4.7686 1.7046 7.2605c20.626 2.113 30.431 1.3258 31.062 1.0102 0 0 3.9923-6.1519 3.8512-9.1545-18.912 4.7157-35.218 1.3206-36.618 0.88388z" fill="#1a1a1a" fill-rule="evenodd"/>
  <path d="m93.439 274.73c-0.78812 1.159-0.56646 2.6757-0.56646 2.6757 5.5899 1.5678 26.877 3.5306 36.609-0.9298 0 0-31.213-0.49709-36.042-1.7459z" fill="#4d4d4d" fill-rule="evenodd"/>
  <path d="m252.79 273.79s0.033 7.1893 4.9245 9.849l222.23-5.9346c2.9407-3.1932 5.2821-5.2503 4.7982-8.46-103.01 7.3969-206.33 7.3875-231.96 4.5457z" fill="#1a1a1a" fill-rule="evenodd"/>
  <path d="m252.71 273.69c0.27694 1.0963 2.8255 3.6558 4.1376 3.6523 11.465-1.2373 224.41-0.84917 227.95-7.0902 0.3021-2.4697-2.1989-2.7741-2.1989-2.7741-52.219 1.3167-118.65 0.81514-229.89 6.212z" fill="#666" fill-rule="evenodd"/>
  <path d="m398.13 306.49c-5.185-72.211 2.4248-115.82 8.2075-163.52" fill="none" stroke="#000" stroke-width=".48"/>
  <circle cx="567.37" cy="232.94" r="11.027" fill="none" stroke="#000" stroke-width=".5"/>
  <path d="m222.71 250.49c1.31 0.88388 9.6596 1.0417 11.711 0.12623 0-0.18942 0.32334-3.5305-0.12627-4.1984-4.9006-0.79422-8.9054-0.51246-11.775 0.66292-0.21754 1.0491 0.0473 3.4093 0.1894 3.4093z" fill="#ffd42a" fill-rule="evenodd"/>
  <path d="m101.16 264.15c4.2221 0.85503 22.232 1.1607 24.286 0.80357 0.89286-2.4107 16.723-23.99 16.763-25.045-0.91973-1.8587-21.325-2.6093-32.656 2.9911-3.5629 2.2075-9.9364 18.966-8.3929 21.25z" fill="#fff6d5" fill-rule="evenodd" stroke="#000" stroke-linecap="round" stroke-linejoin="bevel" stroke-width=".73"/>
  <path d="m593.75 264.15s0.95768 6.5613 4.4643 8.3929c5.9173 0.31366 12.697 0.14087 14.107-0.98215l0.66685-6.6533c-3.8615 1.8762-17.517 1.8958-19.238-0.75745z" fill-rule="evenodd"/>
  <path d="m593.75 263.84c-0.46025 2.9019 16.683 4.0466 19.241 1.0786 0 0 0.0391-3.1776-1.25-3.6233-1.6016 1.4293-16.861 2.0981-17.991 2.5446z" fill="#333" fill-rule="evenodd"/>
  <path d="m594.01 201.09c-1.8565 0.64107-17.472 5.6027-20.451 9.4591 2.584 5.0439 12.062 14.062 17.25 18.188 0 0 7.2211 2.8074 9.4821 4.9664 0.88597-16.903-3.2996-29.254-6.2811-32.613z" fill="#fac" fill-rule="evenodd" stroke="#000" stroke-linejoin="round" stroke-width=".73"/>
  <path d="m244.83 219.4c146.13-8.917 152.61-9.9977 280.96-15.568-2.7236-25.521-2.4157-45.431-17.425-50.255-116.78-13.663-173.36-6.0113-210.87 18.688-43.064 25.204-52.444 32.825-57.028 37.79-0.47625 2.6435 4.3671 9.3452 4.3671 9.3452z" fill="#aef" fill-rule="evenodd"/>
  <circle cx="381.97" cy="224.96" r="1.1937" fill-opacity="0" stroke="#000" stroke-linecap="round" stroke-linejoin="round" stroke-width=".32509"/>
  <path d="m244.83 219.4c146.13-8.917 152.61-9.9977 280.96-15.568-2.7236-25.521-2.4157-45.431-17.425-50.255-116.78-13.663-173.36-6.0113-210.87 18.688-43.064 25.204-52.444 32.825-57.028 37.79-0.47625 2.6435 4.3671 9.3452 4.3671 9.3452z" fill="none"/>
  <path d="m244.83 219.4c146.13-8.917 152.61-9.9977 280.96-15.568-2.7236-25.521-2.4157-45.431-17.425-50.255-116.78-13.663-173.36-6.0113-210.87 18.688-48.12 30.073-52.444 32.825-57.028 37.79-0.47625 2.6435 4.3671 9.3452 4.3671 9.3452z" fill="url(#g)" fill-rule="evenodd" stroke="#000" stroke-width="1px"/>
  <path d="m405.2 147.69c-90.785 0.84701-94.614 18.8-161.41 59.322-4.542 4.2153-2.5772 6.5757 1.9849 12.184h6.3984l146.41-9.7988zm-14.025 2.4922c1.9078-0.0136 3.8464-6e-3 5.8164 0.0234l-7.5488 56.807s-115.86 6.6215-117.19 7.416l5.1641-26.748c24.943-16.416 54.614-37.076 113.76-37.498z" fill="#1a1a1a" fill-rule="evenodd" stroke="#1a1a1a" stroke-linejoin="round" stroke-width="1px"/>
  <path d="m426.92 147.58c-6.5388-0.0116-13.455 0.0517-21.633 0.11328l-7.5078 61.738 128.07-5.3848c-1.458-9.8862-2.2374-29.628-6.082-39.191-3.9201-9.751-10.954-11.496-20.305-13.037-36.702-3.491-52.923-4.2036-72.539-4.2383zm-4.334 2.6973c16.735 3e-3 53.671 0.55944 81.396 4.959 10.099 2.4831 13.273 10.344 14.301 13.375 3.0808 10.011 4.6348 33.104 4.6348 33.104l-111.1 4.502 1.8535-55.879s3.3338-0.0616 8.9121-0.0605z" fill="#1a1a1a" fill-rule="evenodd" stroke="#1a1a1a" stroke-linejoin="round" stroke-width="1px"/>
  <path d="m328.79 144.38c0.92692-2.0349 99.71-25.658 99.71-24.894" fill="none" stroke="#000" stroke-width="1px"/>
  <path d="m331.62 143.14c-0.41625-0.10947-1.4594-0.28942-2.7856-0.14044-3.2223 0.52351-3.6049 4.0262-3.4878 3.9794 0.11705-0.0468 4.432-0.65818 5.4073-1.4747-0.19509-1.1208 1.0793-1.1532 1.0534-1.5684-0.026-0.41518-0.35921-0.0471-0.46817-0.14045-0.10895-0.0933 0.69716-0.54596 0.2809-0.65544z" fill-rule="evenodd"/>
  <circle cx="540.92" cy="306.72" r="43.565" fill="#333" stroke="#1a1a1a" stroke-linecap="round" stroke-linejoin="round" stroke-width="1.9"/>
  <ellipse cx="540.92" cy="306.72" rx="25.574" ry="24.638" fill="#666" stroke="#b3b3b3" stroke-linecap="round" stroke-linejoin="round" stroke-width="3.1473"/>
  <path d="m518.35 321.42c17.588-5.0346 16.527 0.25968 11.388 7.8126l11.918 3.178c3.3021-8.1816 6.2645-18.639 12.977-3.9725l8.6071-9.534c-10.458-10.754-9.4039-15.112 2.3835-13.507l-3.0456-12.58c-19.424 4.7386-14.365-2.5813-10.858-9.1368l-12.315-2.6483c-5.4671 18.623-9.2357 11.768-12.977 4.5022l-8.8719 9.0044c7.3157 8.0872 14.153 15.964-1.3242 14.036z" fill="#b3b3b3" fill-rule="evenodd"/>
  <g transform="matrix(.93787 -.34699 .34699 .93787 -72.743 207.72)" fill="#4d4d4d">
   <circle cx="536.55" cy="300.88" r="2.7808"/>
   <circle cx="545.82" cy="300.88" r="2.7808"/>
   <circle cx="545.82" cy="310.68" r="2.7808"/>
   <circle cx="536.55" cy="310.68" r="2.7808"/>
  </g>
  <g transform="translate(-352.43 5.2434)">
   <circle cx="540.92" cy="306.72" r="43.565" fill="#333" stroke="#1a1a1a" stroke-linecap="round" stroke-linejoin="round" stroke-width="1.9"/>
   <ellipse cx="540.92" cy="306.72" rx="25.574" ry="24.638" fill="#666" stroke="#b3b3b3" stroke-linecap="round" stroke-linejoin="round" stroke-width="3.1473"/>
   <path d="m518.35 321.42c17.588-5.0346 16.527 0.25968 11.388 7.8126l11.918 3.178c3.3021-8.1816 6.2645-18.639 12.977-3.9725l8.6071-9.534c-10.458-10.754-9.4039-15.112 2.3835-13.507l-3.0456-12.58c-19.424 4.7386-14.365-2.5813-10.858-9.1368l-12.315-2.6483c-5.4671 18.623-9.2357 11.768-12.977 4.5022l-8.8719 9.0044c7.3157 8.0872 14.153 15.964-1.3242 14.036z" fill="#b3b3b3" fill-rule="evenodd"/>
   <g transform="matrix(.93787 -.34699 .34699 .93787 -72.743 207.72)" fill="#4d4d4d">
    <circle cx="536.55" cy="300.88" r="2.7808"/>
    <circle cx="545.82" cy="300.88" r="2.7808"/>
    <circle cx="545.82" cy="310.68" r="2.7808"/>
    <circle cx="536.55" cy="310.68" r="2.7808"/>
   </g>
  </g>
  <g transform="matrix(.99749 -.070739 .070739 .99749 -13.813 19.154)" fill-rule="evenodd">
   <path d="m270.37 212.61 2.9914-17.965c-8.1458 0.52961-13.532 3.6629-16.071 6.9339-2.8894 3.4385-3.008 5.4702-3.5966 8.3276 0.24381 2.516 1.0245 3.2844 1.6037 3.7084z" fill="#87deaa"/>
   <path d="m255.3 213.62c1.824 0.74501 2.9062 0.60048 11.198 0.92416 2.1781-1.6752 3.1284-1.1677 3.8743-1.9286z" fill="#6dbb8c"/>
  </g>
 </g>
</svg>
