<?xml version="1.0" encoding="UTF-8"?>
<svg width="640" height="640" viewBox="0 0 640 434" xmlns="http://www.w3.org/2000/svg" xmlns:xlink="http://www.w3.org/1999/xlink">
 <defs>
  <filter id="cz">
   <feGaussianBlur stdDeviation="3.08349"/>
  </filter>
  <filter id="f">
   <feGaussianBlur stdDeviation=".69"/>
  </filter>
  <filter id="cg">
   <feGaussianBlur stdDeviation=".28362"/>
  </filter>
  <filter id="cy">
   <feGaussianBlur stdDeviation=".54755"/>
  </filter>
  <filter id="cx">
   <feGaussianBlur stdDeviation=".40112"/>
  </filter>
  <filter id="ct">
   <feGaussianBlur stdDeviation=".2619"/>
  </filter>
  <filter id="bs">
   <feGaussianBlur stdDeviation=".77811"/>
  </filter>
  <filter id="ao">
   <feGaussianBlur stdDeviation=".40529"/>
  </filter>
  <filter id="cw">
   <feGaussianBlur stdDeviation=".73942"/>
  </filter>
  <filter id="cq">
   <feGaussianBlur stdDeviation=".43026"/>
  </filter>
  <filter id="bd">
   <feGaussianBlur stdDeviation=".69187"/>
  </filter>
  <filter id="ba">
   <feGaussianBlur stdDeviation=".62771"/>
  </filter>
  <filter id="cv">
   <feGaussianBlur stdDeviation=".74694"/>
  </filter>
  <filter id="bu">
   <feGaussianBlur stdDeviation=".25915"/>
  </filter>
  <filter id="bf">
   <feGaussianBlur stdDeviation="2.10305"/>
  </filter>
  <filter id="cj">
   <feGaussianBlur stdDeviation="1.15549"/>
  </filter>
  <filter id="ci">
   <feGaussianBlur stdDeviation="2.52451"/>
  </filter>
  <filter id="cf">
   <feGaussianBlur stdDeviation=".69483"/>
  </filter>
  <filter id="be">
   <feGaussianBlur stdDeviation=".58511"/>
  </filter>
  <filter id="az">
   <feGaussianBlur stdDeviation=".55484"/>
  </filter>
  <filter id="ce">
   <feGaussianBlur stdDeviation=".83728"/>
  </filter>
  <filter id="cd">
   <feGaussianBlur stdDeviation=".69133"/>
  </filter>
  <filter id="cc">
   <feGaussianBlur stdDeviation=".48794"/>
  </filter>
  <filter id="cb">
   <feGaussianBlur stdDeviation=".27614"/>
  </filter>
  <filter id="ap">
   <feGaussianBlur stdDeviation="1.15022"/>
  </filter>
  <filter id="bl">
   <feGaussianBlur stdDeviation=".51118"/>
  </filter>
  <filter id="bo">
   <feGaussianBlur stdDeviation=".23116"/>
  </filter>
  <filter id="ay">
   <feGaussianBlur stdDeviation=".32298"/>
  </filter>
  <filter id="ai">
   <feGaussianBlur stdDeviation=".57678"/>
  </filter>
  <filter id="bh">
   <feGaussianBlur stdDeviation=".86027"/>
  </filter>
  <filter id="ab">
   <feGaussianBlur stdDeviation=".3941"/>
  </filter>
  <filter id="ak">
   <feGaussianBlur stdDeviation=".96957"/>
  </filter>
  <filter id="aj">
   <feGaussianBlur stdDeviation=".89286"/>
  </filter>
  <filter id="y">
   <feGaussianBlur stdDeviation="5.4796"/>
  </filter>
  <filter id="ag">
   <feGaussianBlur stdDeviation="2.6308"/>
  </filter>
  <filter id="v">
   <feGaussianBlur stdDeviation=".62906"/>
  </filter>
  <filter id="dc">
   <feGaussianBlur stdDeviation=".26462"/>
  </filter>
  <filter id="db">
   <feGaussianBlur stdDeviation=".27781"/>
  </filter>
  <filter id="z">
   <feGaussianBlur stdDeviation=".49045"/>
  </filter>
  <filter id="x">
   <feGaussianBlur stdDeviation=".93348"/>
  </filter>
  <filter id="b"/>
  <filter id="cr" x="-.1344" y="-.09027" width="1.2688" height="1.1805">
   <feGaussianBlur stdDeviation=".47987"/>
  </filter>
  <filter id="cp" x="-.14905" y="-.14155" width="1.2981" height="1.2831">
   <feGaussianBlur stdDeviation=".42352"/>
  </filter>
  <filter id="ca" x="-.17696" y="-.07771" width="1.3539" height="1.1554">
   <feGaussianBlur stdDeviation=".31672"/>
  </filter>
  <filter id="co" x="-.10553" y="-.03106" width="1.2111" height="1.0621">
   <feGaussianBlur stdDeviation=".80475"/>
  </filter>
  <filter id="cl" x="-.04212" y="-.10426" width="1.0842" height="1.2085">
   <feGaussianBlur stdDeviation=".47957"/>
  </filter>
  <filter id="bt" x="-.10532" y="-.17679" width="1.2106" height="1.3536">
   <feGaussianBlur stdDeviation=".51707"/>
  </filter>
  <filter id="br" x="-.12572" y="-.09466" width="1.2514" height="1.1893">
   <feGaussianBlur stdDeviation=".70917"/>
  </filter>
  <filter id="av" x="-.08793" y="-.13994" width="1.1759" height="1.2799">
   <feGaussianBlur stdDeviation=".35471"/>
  </filter>
  <filter id="au" x="-.14457" y="-.07186" width="1.2891" height="1.1437">
   <feGaussianBlur stdDeviation=".51533"/>
  </filter>
  <filter id="ar" x="-.08412" y="-.11179" width="1.1682" height="1.2236">
   <feGaussianBlur stdDeviation=".93688"/>
  </filter>
  <filter id="am" x="-.0482" y="-.14223" width="1.0964" height="1.2845">
   <feGaussianBlur stdDeviation=".64808"/>
  </filter>
  <filter id="bx" x="-.06576" y="-.18622" width="1.1315" height="1.3724">
   <feGaussianBlur stdDeviation=".43214"/>
  </filter>
  <filter id="bv" x="-.06779" y="-.11041" width="1.1356" height="1.2208">
   <feGaussianBlur stdDeviation=".94145"/>
  </filter>
  <filter id="bp" x="-.10831" y="-.02159" width="1.2166" height="1.0432">
   <feGaussianBlur stdDeviation=".74087"/>
  </filter>
  <filter id="bk" x="-.21265" y="-.10886" width="1.4253" height="1.2177">
   <feGaussianBlur stdDeviation=".46654"/>
  </filter>
  <filter id="bi" x="-.03525" y="-.20128" width="1.0705" height="1.4026">
   <feGaussianBlur stdDeviation=".54396"/>
  </filter>
  <filter id="at" x="-.04903" y="-.13544" width="1.0981" height="1.2709">
   <feGaussianBlur stdDeviation=".53699"/>
  </filter>
  <filter id="aq" x="-.06584" y="-.116" width="1.1317" height="1.232">
   <feGaussianBlur stdDeviation=".80202"/>
  </filter>
  <filter id="cs" x="-.15725" y="-.04669" width="1.3145" height="1.0934">
   <feGaussianBlur stdDeviation="1.36627"/>
  </filter>
  <filter id="cm" x="-.0348" y="-.21746" width="1.0696" height="1.4349">
   <feGaussianBlur stdDeviation=".45322"/>
  </filter>
  <filter id="cu" x="-.01259" y="-.25446" width="1.0252" height="1.5089">
   <feGaussianBlur stdDeviation=".85711"/>
  </filter>
  <filter id="cn" x="-.04091" y="-.11246" width="1.0818" height="1.2249">
   <feGaussianBlur stdDeviation=".3831"/>
  </filter>
  <filter id="ck" x="-.15678" y="-.04673" width="1.3136" height="1.0935">
   <feGaussianBlur stdDeviation="1.99564"/>
  </filter>
  <filter id="by" x="-.1051" y="-.10856" width="1.2102" height="1.2171">
   <feGaussianBlur stdDeviation="1.28099"/>
  </filter>
  <filter id="ax" x="-.16766" y="-.1943" width="1.3353" height="1.3886">
   <feGaussianBlur stdDeviation="1.26853"/>
  </filter>
  <filter id="aw" x="-.09077" y="-.10187" width="1.1816" height="1.2037">
   <feGaussianBlur stdDeviation="1.18713"/>
  </filter>
  <filter id="ac" x="-.0967" y="-.2337" width="1.1934" height="1.4674">
   <feGaussianBlur stdDeviation="2.64563"/>
  </filter>
  <filter id="ch" x="-.04853" y="-.31226" width="1.097" height="1.6245">
   <feGaussianBlur stdDeviation="5.63063"/>
  </filter>
  <filter id="bg" x="-.10783" y="-.02161" width="1.2157" height="1.0432">
   <feGaussianBlur stdDeviation=".70969"/>
  </filter>
  <filter id="bb" x="-.19861" y="-.04397" width="1.3972" height="1.0879">
   <feGaussianBlur stdDeviation=".82878"/>
  </filter>
  <filter id="bz" x="-.02925" y="-.13378" width="1.0585" height="1.2676">
   <feGaussianBlur stdDeviation="3.52714"/>
  </filter>
  <filter id="bn" x="-.01292" y="-.16892" width="1.0258" height="1.3378">
   <feGaussianBlur stdDeviation=".65084"/>
  </filter>
  <filter id="as" x="-.16993" y="-.19134" width="1.3398" height="1.3827">
   <feGaussianBlur stdDeviation=".68279"/>
  </filter>
  <filter id="bq" x="-.01318" y="-.13425" width="1.0264" height="1.2685">
   <feGaussianBlur stdDeviation=".79286"/>
  </filter>
  <filter id="d" x="-.06951" y="-.24197" width="1.139" height="1.484">
   <feGaussianBlur stdDeviation=".57338"/>
  </filter>
  <filter id="w" x="-.05789" y="-.15304" width="1.1158" height="1.3061">
   <feGaussianBlur stdDeviation=".64867"/>
  </filter>
  <filter id="bw" x="-.03147" y="-.10112" width="1.0629" height="1.2022">
   <feGaussianBlur stdDeviation=".37829"/>
  </filter>
  <filter id="bm" x="-.03477" y="-.21878" width="1.0695" height="1.4376">
   <feGaussianBlur stdDeviation=".2733"/>
  </filter>
  <filter id="bj" x="-.11083" y="-.04113" width="1.2216" height="1.0823">
   <feGaussianBlur stdDeviation=".24234"/>
  </filter>
  <filter id="an" x="-.0311" y="-.10515" width="1.0622" height="1.2103">
   <feGaussianBlur stdDeviation=".3827"/>
  </filter>
  <filter id="bc" x="-.16306" y="-.0462" width="1.3261" height="1.0924">
   <feGaussianBlur stdDeviation=".59768"/>
  </filter>
  <filter id="al" x="-.27933" y="-.08642" width="1.5587" height="1.1728">
   <feGaussianBlur stdDeviation="1.14224"/>
  </filter>
  <filter id="ae" x="-.01275" y="-.20352" width="1.0255" height="1.407">
   <feGaussianBlur stdDeviation="1.07967"/>
  </filter>
  <filter id="ad" x="-.04998" y="-.12868" width="1.1" height="1.2574">
   <feGaussianBlur stdDeviation=".32486"/>
  </filter>
  <filter id="af" x="-.25993" y="-.12411" width="1.5199" height="1.2482">
   <feGaussianBlur stdDeviation="1.04872"/>
  </filter>
  <filter id="ah" x="-.09753" y="-.12098" width="1.1951" height="1.242">
   <feGaussianBlur stdDeviation="3.08655"/>
  </filter>
  <filter id="e" x="-.02613" y="-.29464" width="1.0523" height="1.5893">
   <feGaussianBlur stdDeviation="1.63502"/>
  </filter>
  <filter id="aa" x="-.01348" y="-.10945" width="1.027" height="1.2189">
   <feGaussianBlur stdDeviation="1.23205"/>
  </filter>
  <filter id="da" x="-.13099" y="-.04964" width="1.262" height="1.0993"/>
  <linearGradient id="c">
   <stop stop-color="#333" offset="0"/>
   <stop stop-color="#333" stop-opacity="0" offset="1"/>
  </linearGradient>
  <linearGradient id="a">
   <stop stop-color="#fff" offset="0"/>
   <stop stop-color="#fff" stop-opacity="0" offset="1"/>
  </linearGradient>
  <linearGradient id="j" x1="417.4" x2="409.34" y1="112.45" y2="105.65" gradientUnits="userSpaceOnUse">
   <stop stop-color="#4d4d4d" offset="0"/>
   <stop stop-color="#4d4d4d" stop-opacity="0" offset="1"/>
  </linearGradient>
  <linearGradient id="i" x1="402.85" x2="407.9" y1="105.67" y2="106.1" gradientUnits="userSpaceOnUse">
   <stop stop-color="#808080" offset="0"/>
   <stop stop-color="#808080" stop-opacity="0" offset="1"/>
  </linearGradient>
  <linearGradient id="h" x1="404.4" x2="418.38" y1="101.66" y2="99.984" gradientUnits="userSpaceOnUse">
   <stop stop-color="#999" offset="0"/>
   <stop stop-color="#999" stop-opacity="0" offset="1"/>
  </linearGradient>
  <linearGradient id="u" x1="79.81" x2="89.873" y1="208.19" y2="263.34" gradientTransform="matrix(.78362 0 0 1.0112 75.322 11.033)" gradientUnits="userSpaceOnUse">
   <stop stop-color="#1a1a1a" offset="0"/>
   <stop stop-color="#1a1a1a" stop-opacity="0" offset="1"/>
  </linearGradient>
  <linearGradient id="r" x1="289.26" x2="294.75" y1="118.56" y2="169.09" gradientTransform="matrix(.87474 0 0 1.1412 53.045 -16.716)" gradientUnits="userSpaceOnUse">
   <stop stop-color="#f2ffff" offset="0"/>
   <stop stop-color="#ad98a9" stop-opacity=".77647" offset=".03134"/>
   <stop stop-color="#55163c" stop-opacity=".49804" offset=".4661"/>
   <stop stop-color="#55163c" stop-opacity="0" offset="1"/>
  </linearGradient>
  <linearGradient id="s" x1="406.91" x2="413.22" y1="114.6" y2="114.4" gradientTransform="matrix(.87474 0 0 1.1412 52.866 -18.283)" gradientUnits="userSpaceOnUse">
   <stop stop-color="#ccc" offset="0"/>
   <stop stop-color="#999" offset=".4774"/>
   <stop stop-color="#808080" offset=".958"/>
   <stop stop-color="#ccc" stop-opacity="0" offset="1"/>
  </linearGradient>
  <linearGradient id="q" x1="282.98" x2="295.15" y1="113.18" y2="186.49" gradientTransform="matrix(.87474 0 0 1.1412 73.435 2.7233)" gradientUnits="userSpaceOnUse">
   <stop stop-color="#f2ffff" offset="0"/>
   <stop stop-color="#ad98a9" stop-opacity=".77647" offset=".14675"/>
   <stop stop-color="#55163c" stop-opacity=".49804" offset="1"/>
   <stop stop-color="#55163c" stop-opacity="0" offset="1"/>
  </linearGradient>
  <linearGradient id="n" x1="63.471" x2="96.812" y1="69.222" y2="112.48" gradientTransform="matrix(.87474 0 0 1.1412 53.045 -16.716)" gradientUnits="userSpaceOnUse">
   <stop stop-color="#fff" stop-opacity=".775" offset="0"/>
   <stop stop-color="#fff" stop-opacity="0" offset="1"/>
  </linearGradient>
  <linearGradient id="k" x1="416.29" x2="408.18" y1="258.16" y2="256.33" gradientUnits="userSpaceOnUse" xlink:href="#a"/>
  <linearGradient id="g" x1=".96105" x2="142.93" y1="45.78" y2="189.73" gradientUnits="userSpaceOnUse" xlink:href="#a"/>
  <linearGradient id="t" x1="367.52" x2="372.71" y1="350.71" y2="382.42" gradientTransform="matrix(.78362 0 0 1.0112 75.322 11.033)" gradientUnits="userSpaceOnUse" xlink:href="#c"/>
  <linearGradient id="p" x1="445.01" x2="478.38" y1="263.45" y2="284.96" gradientTransform="matrix(.87762 0 0 1.0531 51.485 7.1678)" gradientUnits="userSpaceOnUse" xlink:href="#c"/>
  <linearGradient id="o" x1="-315.15" x2="-298.03" y1="-.1097" y2="86.41" gradientTransform="matrix(.87474 0 0 1.1412 541.14 -14.172)" gradientUnits="userSpaceOnUse" xlink:href="#a"/>
  <linearGradient id="m" x1="-452.49" x2="-452.17" y1="33.75" y2="80.471" gradientTransform="matrix(.87474 0 0 1.1412 541.14 -14.172)" gradientUnits="userSpaceOnUse" xlink:href="#a"/>
  <linearGradient id="l" x1="-446.41" x2="-321.51" y1="22.008" y2="30.275" gradientTransform="matrix(.87474 0 0 1.1412 541.14 -14.172)" gradientUnits="userSpaceOnUse" xlink:href="#a"/>
 </defs>
 <g transform="matrix(1.2254 0 0 1 -79.211 0)">
  <path d="m115.44 220c24.034 36.219 60.293 80.955 76.71 87.839l46.43-13.529-83.125-111.13z" fill="url(#u)"/>
  <path d="m197.39 392.89 3.2124-48.707 281.09-22.799c26.841 22.235 52.39 38.128 79.508 75.652l-322.05 39.38c-14.301-14.509-34.921-29.017-41.762-43.526z" fill="url(#t)"/>
  <path transform="matrix(.87474 0 0 1.1412 53.045 -16.716)" d="m47.838 94.648c10.519 0.18164 21.038 18.417 31.558 27.625 51.191 34.629 89.352 73.322 125.6 109.98 0.21693 18.656-9.5211 36.69 0.65078 55.968-4.9898-4.5481-8.6748-6.638-8.4602-2.9285-1.0047 5.0036-0.76118 9.3831-0.97618 13.992-12.255-29.285-16.431-58.571-36.769-87.856-12.27-18.364-75.06-32.274-75.817-40.023-6.5079-15.402 4.6739-18.883-19.524-46.206-7.6852-4.0866-15.591-8.1036-17.571-13.992-1.8741-6.9557-2.686-14.547 1.3071-16.562z" fill="url(#g)" filter="url(#y)" opacity=".25"/>
  <path d="m507.61 304.63c-2.9514 8.6462-7.3513 16.959-14.836 26.45-7.2308 5.2198-44.614 13.815-45.05 6.43-0.28016-12.506 12.413-16.137 11.449-23.291z"/>
  <path d="m175.28 52.947 4.3677-0.29377-1.0708 67.214c1.0249 6.0649 3.5592 10.961 9.0816 11.158 73.922-7.7066 141.41-15.005 211.47-21.533 1.8037-2.5358 0.84773-4.3457 0.77366-6.3926l-37.909-61.571h1.5473c9.152 12.863 37.761 64.05 45.698 71.494l-10.597 1.2431 8.3433 4.9742-234.02 27.261 1.2894-7.0655c-0.46052-28.935-0.53446-57.555 1.0315-86.49z" fill="#42113c"/>
  <path d="m435.03 240.24 2.4912 54.169 106.29-24.918-4.9824-62.836z"/>
  <path d="m414.27 109.92-0.18025 6.5847-5.5878-0.23516-0.18024-8.2308z" fill="url(#s)"/>
  <path d="m186.21 281.01 13.767-14.507-16.944-36.959-16.415 8.2898 3.7065 18.998 14.826 34.196 2.3828-9.6715z" fill="#1a1a1a"/>
  <path d="m118.58 223.56c6.4498 0.19368 9.9336 1.2491 19.349-1.4741 2.1494-1.1211 1.4378-12.639 1.1299-17.689l-17.372-30.035z"/>
  <path d="m136.62 220.72c-3.3966 2.7662-3.6536 8.9756-1.8111 13.437 0.58929 1.2814 3.1403-0.17324 3.2856-5.357 0.25577-9.1226-1.4746-8.0801-1.4746-8.0801z" fill="#e6e6e6"/>
  <path d="m138.1 230.53c1.1768 0.43751 2.5554 0.27455 3.8339 2.501l33.915 59.061c1.358 2.3649-1.4705 5.0286-0.88472 7.8877-8.6228-16.358-23.088-40.445-28.902-51.943-7.536-14.904-8.9147-13.156-10.912-13.472 1.3175-0.48368 2.306-1.4902 2.9492-4.0349z" fill="#333"/>
  <path transform="matrix(.87474 0 0 1.1412 53.045 -16.716)" d="m96.919 217.1s3.2338 0.74836 4.3569 2.0704c12.257 14.429 38.94 52.258 38.94 52.258 0.86899-2.0072 1.9739-3.8729 5.0572-4.5515-13.863-18.107-24.735-36.757-41.806-54.281-2.3322-3.1735-5.159-3.8741-7.9229-4.8886 1.7085 0.79134 2.1621 4.6152 1.3746 9.3926z" fill="#ccc" filter="url(#cg)"/>
  <path d="m142.14 223.82c11.982 13.959 27.503 41.65 41.228 62.884-1.2288-0.10888-2.4577 0.43119-3.6864 1.3467z" fill="#999"/>
  <path transform="matrix(-.85651 -.23176 -.17764 1.1175 256.26 10.041)" d="m97.673 211.09c-2.5803-2.0732-3.2742 10.014-0.66156 7.9094-6.5208 6.1374-2.1672-16.689 0.66156-7.9094z" filter="url(#ca)" opacity=".75"/>
  <path d="m182.96 286.55 2.2072 9.9478-2.6085 10.733c-2.5883-2.1941-5.2363-3.0196-7.1714-7.0259l-0.14058-0.29949c-0.043-0.0946-0.086-0.19099-0.12839-0.28909-0.2046-0.47317-0.40016-0.98717-0.58571-1.548 0.20494-7.6146 3.4138-10.875 8.4274-11.518z" fill="#1a1a1a"/>
  <path transform="matrix(.87474 0 0 1.1412 53.045 -16.716)" d="m146.98 271.67-2.1121 3.8621c-2.7592-0.3309-4.1554-0.72989-4.707-1.0862-0.0372-3.8656 1.8452-5.0734 3.8621-6.0949 0.84929 0.56333 1.1108 1.1329 2.9569 3.319z" fill="#e6e6e6" filter="url(#cp)" opacity=".25"/>
  <path transform="matrix(.87474 0 0 1.1412 53.045 -16.716)" d="m148.31 268.23c-0.30105 2.9583-0.91218 9.0982-1.9914 11.345-1.8469 3.9121-5.7835-1.2481-6.5776-3.9828 5.3276 7.3844 7.2291 1.4571 8.569-7.3621z" fill="#ececec" filter="url(#cr)" opacity=".25"/>
  <path transform="matrix(.87472 .00765 -.00586 1.1412 54.138 -18.593)" d="m100.24 218.89c8.3139 12.441 21.793 32.652 39.461 53.39l0.59721-2.1746-37.887-49.518z" fill="#fff" filter="url(#f)"/>
  <path transform="matrix(.8747 -.01105 .00847 1.1412 50.103 -25.456)" d="m100.59 220.1c11.175 14.226 24.063 35.21 39.584 52.174l0.2421-1.5737-38.011-50.116z" fill="#fff" filter="url(#f)"/>
  <path d="m247.49 348.07c0.88419 17.855 1.8926 43.348-7.9151 46.469-12.605 1.5298-25.211 2.486-37.817 4.0159l18.029-87.202z"/>
  <path d="m197.92 268.55c2.9082-0.0653 7.1457 37.875 8.6254 57.626 0.68065 18.305 2.3076 38.832-4.206 40.241-8.8561-12.191-10.888-38.501-11.496-51.948-0.65356-25.362 0.44219-46.172 7.0771-45.919z" fill="#ccc"/>
  <path transform="matrix(.87474 0 0 1.1412 54.011 -19.868)" d="m171.25 283.17s-5.3357 0.87509-6.8536 0.12192c-3.213-1.5943 4.1636-24.64 0.46025-23.522-1.1429 3.4355 0.20207 7.5053-2.7041 10.059-1.9779 0.39958-0.7239-6.5882-0.64111-10.899-3.0123 4.1019-1.9588 17.9-4.6412 26.746-0.42123-14.192 1.242-31.73 6.9618-32.366 3.1717-0.141 5.4292 17.91 7.418 29.861z" fill="#666" filter="url(#be)" opacity=".5"/>
  <path transform="matrix(.87474 0 0 1.1412 54.011 -19.868)" d="m160.15 259.85c-1.1811 40.938 2.507 69.558 12.62 76.405 1.258-2.6654 4.9314-4.0286 1.6061-8.7189-13.928-20.777-11.386-59.463-7.3423-66.998-0.16252-2.3232-0.78206-2.3612-1.8356-0.22944l-2.065 8.7189c-2.5433 2.9108-1.2342-4.1945-0.91778-8.7189-0.57902-4.5258-1.31-2.9707-2.065-0.45889z" fill="#b3b3b3" filter="url(#bg)"/>
  <path d="m196.1 244.51c-15.73 0.48413-12.596 36.687-13.422 65.8 1.7276 53.985 13.009 83.574 19.108 87.982 4.1645 3.0339 19.391-23.768 17.959-61.734 1.8852-75.458-11.565-68.036-21.185-91.87-0.86755-0.1542-1.6866-0.20213-2.4602-0.17832zm1.2301 24.002c3.6535-0.85782 6.6671 30.586 9.1848 54.922 0.45211 18.88 2.4657 39.089-3.5263 43.189-5.4886-1.1269-10.565-29.693-11.836-43.866-2.5246-41.039 1.7495-53.506 6.1778-54.244z"/>
  <path transform="matrix(.87474 0 0 1.1412 54.011 -19.868)" d="m169.63 340.9c3.2002-0.87075 13.378-15.949 13.378-15.949 7.5952 1.2215-6.1308 44.875-15.07 37.356-7.7205-6.7884-18.68-49.043-19.74-90.313-0.10617-14.684 6.9738-13.829 5.6276-1.8762 4e-3 28.881 1.6498 58.198 15.804 70.782z" fill="#333" filter="url(#ck)" opacity=".5"/>
  <path transform="matrix(.87474 0 0 1.1412 54.011 -19.868)" d="m156.8 339.52c14.29 33.06 18.991 24.02 29.252-2.6816-5.2474 45.547-24.315 28.361-29.252 2.6816z" fill="#fff" filter="url(#by)" opacity=".25"/>
  <path transform="matrix(.87474 0 0 1.1412 53.045 -16.716)" d="m165.81 281.53c-0.34457 19.081 4.4187 32.487 9.9972 44.987-1.2666-18.761-1.8376-35.822-3.499-45.237z" fill="#fff" filter="url(#bb)" opacity=".5"/>
  <path transform="matrix(.87474 0 0 1.1412 53.045 -16.716)" d="m172.81 332.77c-8.636-5.833-14.792-33.867-11.997-56.984-1.0118 1.7844-2.1264 3.1577-2.4993 7.4979 0.36732 17.745 2.4755 34.49 12.496 51.985z" fill="#fff" filter="url(#az)" opacity=".65"/>
  <path d="m174.99 139.28 25.613-3.542c33.761 34.571 68.847 64.46 83.534 110.34l149.91-13.625 93.987-26.37-132.73-92.735 13.138-0.87902c3.4997 3.3244 3.8291 1.594 6.0637 2.1975 49.634 20.229 113.85 46.707 152.27 73.837l-24.592 6.153c-3.3687 21.975-3.3687 23.294-3.3687 23.294-32.935 11.237-65.737 21.455-98.03 40.434l-2.0212 23.294-18.528 3.516-0.33688-21.975c-48.285-8.2256-96.57 1.9008-144.86 3.516l-0.33688-25.931-5.5816-0.4395z" fill="#501644"/>
  <path d="m113.82 151.93-9.1436-22.806-5.9164 6.3155c9.177 28.809 6.791 15.306 11.564 29.122z" fill="#1a1a1a"/>
  <path d="m111.8 180.62c0.33362-19.99 1.3901-23.003 2.6835-20.453 5.4009 14.487 4.2225 47.516 2.5531 47.054-5.1387-5.958-4.9618-21.392-5.2366-26.6z" fill="#ececec"/>
  <path transform="matrix(.87474 0 0 1.1412 53.045 -16.716)" d="m67.375 159.12 3.7258 3.4153 0.72446-2.8978 3.3118 7.1411-0.51747 5.7957-2.5874-2.6908s-1.7594-0.10349-1.7594 0.31048 1.0349 2.3804 1.0349 2.3804l0.51747 17.594-1.6559-6.1062 0.10349-11.384-1.3454-2.3804-2.5874 0.10349z" fill="#808080" filter="url(#bc)" opacity=".75"/>
  <path d="m116.49 138.78c-4.2196 5.9579-8.7097 9.7507-7.8453 29.922 0.98632 20.903-0.35151 47.928 9.3488 54.708 1.9893 0.67877 6.1488-1.7634 5.3851-25.393 0.54089-24.211-4.2858-38.673-6.8886-59.237zm-1.8315 19.401c0.40214-0.0364 0.84617 0.19524 1.3667 0.71328 2.3314 14.061 3.2739 48.435 1.0115 48.467-3.3883-3.4642-4.7854-13.796-5.2485-26.534-0.0551-9.6437 0.0551-22.391 2.8703-22.646z"/>
  <path d="m123.55 75.688c-5.8226-0.30959-15.846 0.37958-26.247-0.83887-4.3869 2.5047-4.9041 5.0094-5.1195 7.5141-4.5722 9.097-2.7477 19.73-2.5536 30.899 1.0296 7.499 0.94405 12.52 5.9793 19.713 5.2944 7.5628 6.412 17.855 12.236 24.511-12.576-21.031-6.3302-25.675-2.2134-21.698 6.1972 18.471 9.9336 37.257 25.576 62.19l49.293 82.675c-11.813-30.761-9.5216-42.646-5.1225-46.351 7.2323-2.2373 16.618 14.93 21.121 30.06l17.894 57.964 12.808 21.763 12.814 6.6951 1.2799-104.36 28.797-4.1745c-21.714-35.163-62.343-70.987-94.699-102.27-9.7861-3.0099-24.541-19.901-37.769-29.645-7.034-8.9699-15.775-26.295-14.076-34.646z" fill="#501644"/>
  <path transform="matrix(.87474 0 0 1.1412 53.045 -16.716)" d="m469.8 134.89 64.584 29.282c5.136 8.3039-5.0834-0.71493-14.334-2.9611 4.8795 3.2504 10.844 2.2006 10.068 4.5084 0.40306 3.3277-2.7563 3.8666-7.2761 2.2713 9.2928 8.5243 23.351 8.3583 20.339 30.708-32.523 8.858-71.488 18.915-108.25 28.666-7.9026-0.52133-116.14 5.1383-174.11 9.2211 0.67787-12.775-5.509-18.685-9.5714-26.72l3.5893 39.482c54.825-2.6959 108.38-13.657 165.11-3.9881l1.5952 16.351c5.2672 4.8564 14.14 0.7656 20.31-2.0089l0.42845-18.729c38.122-15.335 75.804-27.598 112.86-35.494l1.1964-19.94 27.917-6.7797c-36.405-17.473-75.787-29.618-114.46-43.869z" fill="#3c1644" filter="url(#cj)"/>
  <path transform="matrix(.87474 0 0 1.1412 53.045 -16.716)" d="m258.07 223.03-0.40666 18.747 176.57-11.623 112.52-28.438c1.8193-20.264-3.9908-15.734-6.1044-23.216z" filter="url(#bz)"/>
  <path d="m206.44 141.6 195.23-23.147 67.328 30.783c16.427 9.756 37.902 22.95 49.689 32.706 4.7288 6.6241 11.256 6.1605 9.7009 26.895l-60.617 19.723-33.98 11.874c-21.423 1.582-43.202 3.3218-66.66 4.9039l-85.442 6.3017c-0.43091-15.857-5.2585-22.886-10.981-32.52-19.089-26.855-40.33-52.774-64.269-77.52z" fill="#501644"/>
  <path d="m92.475 81.481c0.72687-5.1436 6.1364-8.065 6.9088-6.7448 16.055 0.21435 33.122 41.212 38.05 34.911 12.517 10.235 31.586 19.616 37.258 30.744l3.5029-0.41547c29.884 35.439 75.364 69.483 87.673 95.697l-26.531 9.0002c-21.005-30.333-46.107-59.179-74.835-88.494l-29.934-31.16-7.9612-6.232c-12.142-20.428-23.674-36.659-34.131-37.307z" fill="#501644"/>
  <path transform="matrix(.87474 0 0 1.1412 53.045 -16.716)" d="m217.34 223.58c-24.568-27.747-51.758-52.946-82.275-76.814l5.8248 2.1843-0.7281-5.0967 3.2764 3.6405-0.7281-4.3686c30.838 24.825 61.969 49.591 88.1 75.358l-25.847-16.746 9.1012 10.921-9.4652-6.9169z" fill="#f4d7ee" filter="url(#cz)" opacity=".25"/>
  <path d="m277.52 264.31c44.537-5.1741 128.68-8.8299 132.77-7.8202 5.7969 1.4323 8.7641 3.2442 12.156 5.9316v18.291c4.3771 1.2455 10.065 1.4139 15.417-1.1535l0.2997-19.941c4.7559-5.2175 9.2177-8.5166 13.487-10.557 28.574-15.301 56.774-22.598 85.532-32.825l0.29971 4.1096c-28.446 10.23-53.96 16.148-85.034 33.236-1.3789 0.45543-6.0684 3.8558-11.221 9.9472l-0.36563 18.358c-7.5689 3.6647-14.795 4.9416-21.878 3.5386v-19.159c-3.4677-2.4486-10.885-3.3512-19.181-3.9101-41.186 0.53661-82.179 2.8358-122.88 7.8202z" fill="#ccc" opacity=".35"/>
  <path transform="matrix(.87474 0 0 1.1412 53.045 -16.716)" d="m249.78 220.54c1.44 1.8428 2.745 2.8043 3.703 5.2897-1.1464 15.294 1.5798 23.798-0.20574 29.13-0.3655 1.0914-8.0275 0.78968-6.7042 1.2845 3.7195 1.3908 4.5961 4.8302 3.9901 5.3768-2.0707 1.8676-6.9352 1.5783-10.832 2.278 4.6515 1.4229 11.672-1.9477 15.547 5.6851-0.10945 7.2235 0.22097 13.207-0.55405 20.493-1.9546-0.1442-2.3946-2.2081-4.2012-3.8327 4.0742 6.7493 1.7243 12.294-8.2085 16.417l14.867-9.2119c-5.839-244.49-0.51994-45.15-1.4052-68.605-1.8762-2.7064-4.1197-3.1753-5.9959-4.3047z" fill="#4d4d4d" filter="url(#bp)" opacity=".81"/>
  <path transform="matrix(.87474 0 0 1.1412 53.045 -16.716)" d="m256.53 248.98v1.5887c49.386-4.4366 91.27-6.532 146.61-6.4435 5.6852 9e-3 10.585 1.9536 16.729 3.9214-6.9052-6.7528-18.206-5.2215-29.17-5.5596-43.72-0.0878-90.739 2.2214-134.17 6.4929z" fill="#333" filter="url(#cu)" opacity=".75"/>
  <path transform="matrix(.87474 0 0 1.1412 53.045 -16.716)" d="m551.96 205.42c-36.206 10.439-97.785 24.142-110.65 38.738 8.5406-5.001 19.78-10.868 26.539-12.841 29.606-10.112 55.36-16.838 84.11-24.612z" fill="#4d4d4d" filter="url(#cv)" opacity=".75"/>
  <path transform="matrix(.87474 0 0 1.1412 53.045 -16.716)" d="m419.27 259.57 0.21402 4.2804c6.5218 0.67613 13.454 0.0369 22.258-2.1402l-2.1402-0.64206c-6.8177 1.7094-11.716 2.613-17.978 0.42804l-0.21403-5.5646c-0.48305 2.3645-1.0907 4.1062-2.1402 3.6384z" fill="#1a1a1a" filter="url(#cn)" opacity=".75"/>
  <path d="m206.58 141.66 194.41-23.286c-2.7574 1.6747-8.8832 6.4021-15.865 10.381-4.1276 2.3527-6.712 3.7861-10.777 5.6692-1.1486 12.029-42.222 16.668-45.885 16.198-17.294-2.2215-102.4 11.273-102.4 11.273z" fill="url(#r)"/>
  <path d="m227.25 163.25c40.555-7.1169 111.41-18.279 149.78-29.182 13.857-9.2537 22.852-14.912 25.535-15.693 19.767 6.0378 132.42 63.079 123.74 73.955-1.1486 12.029-108.63 13.66-112.3 13.189-17.294-2.2215-138.6 21.003-138.6 21.003-13.169-22.287-31.177-42.333-48.16-63.272z" fill="url(#q)"/>
  <path d="m339.71 161.05 42.061-6.9259-3.2668-9.057-37.977 4.7949z" fill="#3c1e42"/>
  <path d="m337.46 151.41h28.47s-2.3006-12.381-5.464-12.757-24.732 0.75039-24.732 0.75039z" fill="#e6e6e6"/>
  <path d="m383.51 145.29-18.486 6.077s-3.0043-11.581-0.0793-13.198 16.252-2.749 16.252-2.749z" fill="#e6e6e6"/>
  <path d="m322.56 139.21-2.0418 7.4587 18.784 14.385 1.2251-10.122z" fill="#3c1e42"/>
  <path transform="matrix(.72756 0 0 .99576 95.042 4.0416)" d="m378.73 146.33c-1.6438 9.5341-4.6026 5.9177-4.6026 5.9177 1.0954 2.303 3.4178-0.30172 2.9588 8.219 3.8862 1.4246 8.0068 3.7829 5.7598 5.2076-3.726 3.4916-10.253-0.11734-13.979-0.6049 0.69451 4.5891-6.6914 6.5149-12.813 8.5478-1.0709 2.8038-10.491 1.6376-10.8-0.97808l-22.709-6.5178c-15.641-5.4648-14.864-7.0217-21.821-13.593-3.3184-17.599 1.8681-9.8142 6.4091-16.41 0 0 31.272 17.496 69.658 4.2015 2.4263-0.84035 1.9397 6.0099 1.9397 6.0099z" filter="url(#x)" opacity=".25"/>
  <path d="m391.80246,110.8493c-61.43905,1.96072-126.31107,13.5644-190.19902,20.18596-3.36772.44866 2.84148,10.95647 5.80299,10.07089 46.46414-5.11616 133.34934-15.5449 191.72533-23.41041-1.93115-4.37707-4.37122-6.94085-7.3293-6.84644zm-.77071.48587c.16107-.0289.37332.044.52892.19877l5.09273,5.05753c.20746.2064.25166.48683.0907.61839s-.45747.0739-.66493-.13251l-5.09273-5.07962c-.20745-.20638-.25166-.46472-.0907-.5963 .0402-.0329.0823-.0566.13601-.0662zm-3.82332.7509c.16106-.0289.37332.044.52891.19877l5.09273,5.05753c.20746.2064.23655.48683.0756.61839s-.45746.0739-.66492-.13251l-5.09273-5.07962c-.20746-.20639-.23656-.46472-.0756-.5963 .0402-.0329.0823-.0566.13601-.0662zm-4.33713.37545c.16107-.0289.37332.044.52891.19877l5.09273,5.05753c.20747.2064.23656.48682.0756.61839s-.45746.0739-.66492-.13251l-5.09273-5.07962c-.20747-.20639-.23655-.48682-.0756-.61839 .0402-.0329.0823-.0346.13601-.0442zm-4.08023.35337c.16107-.0289.35821.044.5138.19876l5.09273,5.07962c.20746.20639.25167.48682.0907.61839s-.45746.0518-.66492-.1546l-5.09273-5.05753c-.20746-.20638-.25166-.48682-.0907-.61839 .0402-.0329.0974-.0566.15112-.0662zm-4.08023.37545c.16107-.0289.35821.044.51381.19876l5.09273,5.07962c.20746.20639.25166.46473.0907.59631s-.45747.0739-.66493-.13252l-5.09273-5.05753c-.20746-.20639-.25166-.48682-.0907-.61839 .0402-.0329.0974-.0566.15112-.0662zm-3.83844.37545c.16108-.0289.37332.044.52892.19876l5.09273,5.07962c.20747.2064.23655.46473.0756.59631s-.45746.0739-.66493-.13252l-5.09272-5.05753c-.20747-.20639-.23655-.48682-.0756-.61839 .0402-.0329.0823-.0566.136-.0662zm-3.30951.7509c.16107-.0289.3582.044.5138.19876l5.09273,5.05754c.20746.20638.25167.48681.0907.61839s-.45746.0739-.66492-.13252l-5.09273-5.05753c-.20746-.20639-.25166-.48682-.0907-.61839 .0402-.0329.0974-.0566.15112-.0662zm-3.58154.37545c.16107-.0289.37332.044.52892.19876l5.09273,5.05754c.20746.20638.23655.48681.0756.61839s-.45746.0739-.66493-.13252l-5.09273-5.07961c-.20746-.20639-.23654-.46474-.0756-.59631 .0402-.0329.0823-.0566.136-.0662zm-3.56642.37545c.16107-.0289.35821.044.51381.19876l5.09273,5.05754c.20746.20638.25166.48681.0907.61839s-.45747.0739-.66493-.13252l-5.09273-5.07961c-.20746-.20639-.25166-.46474-.0907-.59631 .0402-.0329.0974-.0566.15112-.0662zm-4.59403.37545c.16106-.0289.35821.044.5138.19876l5.09273,5.05754c.20746.20638.25167.48681.0907.61839s-.45746.0739-.66492-.13252l-5.09273-5.07961c-.20746-.20639-.25167-.46474-.0907-.59631 .0402-.0329.0974-.0566.15112-.0662zm-4.33713.37545c.16106-.0289.35821.044.5138.19876l5.09273,5.05754c.20746.20638.25167.48681.0907.61839s-.45746.0739-.66492-.13252l-5.09273-5.07961c-.20746-.20639-.25166-.48682-.0907-.61839 .0402-.0329.0974-.0346.15112-.0442zm-30.60171,2.95943c.0851-.0144.18173.0399.2569.15459l3.68732,5.63175c.15035.22939.18607.63198.0756.9055l-.0907.19877c-.11052.27352-.31812.31773-.46847.0883l-3.68732-5.63175c-.15035-.22939-.18607-.63197-.0756-.9055l.0907-.22085c.0553-.13676.12646-.20645.21157-.22085zm-3.56642.7509c.0851-.0144.16661.0178.24179.13251l3.70243,5.63175c.15035.22939.17095.63197.0605.9055l-.0756.22085c-.11051.27352-.31812.29565-.46847.0662l-3.70243-5.60967c-.15035-.22939-.17096-.65405-.0605-.92758l.0756-.19877c.0553-.13675.14157-.20645.22668-.22085zm-3.32463.35336c.0851-.0144.18172.0399.2569.1546l3.68732,5.63175c.15034.22939.18607.63197.0756.9055l-.0907.22085c-.11051.27352-.31813.29565-.46847.0662l-3.68732-5.63175c-.15035-.22939-.18607-.63197-.0756-.9055l.0907-.19877c.0553-.13675.12646-.22853.21157-.24293zm-4.59404.37545c.0851-.0144.18173.0399.25691.1546l3.68731,5.63175c.15035.22939.18607.63197.0756.9055l-.0907.22085c-.11051.27352-.31812.29565-.46847.0662l-3.68731-5.63175c-.15036-.22939-.18607-.63197-.0756-.9055l.0907-.19877c.0553-.13675.12645-.22853.21156-.24293zm-4.66959.50796c.1743-.0368.36809.0514.48358.24294l3.77799,6.27223c.15399.25546.11327.58638-.0907.7509l-.33246.26502c-.20395.16453-.49583.10086-.64982-.1546l-3.77799-6.27222c-.15398-.25545-.11326-.58638.0907-.7509l.33246-.28711c.051-.0411.10813-.054.16623-.0662zm-5.10784.37545c.1743-.0368.36809.0514.48358.24294l3.77799,6.27223c.15399.25546.11328.58638-.0907.7509l-.33246.26502c-.20394.16453-.48072.10086-.63471-.1546l-3.77798-6.27222c-.154-.25546-.12839-.60846.0756-.77299l.33246-.26502c.051-.0411.10813-.054.16623-.0662zm-4.59403,1.10427c.17429-.0368.36808.0514.48358.24294l3.77799,6.27222c.15398.25546.11327.60847-.0907.77299l-.33247.26502c-.20394.16453-.48071.0788-.6347-.17668l-3.77799-6.27223c-.15399-.25545-.12838-.58637.0756-.7509l.33246-.26502c.051-.0411.10814-.0761.16624-.0883zm-4.33713.37545c.1743-.0368.36809.0514.48358.24294l3.77799,6.27222c.15398.25546.11327.60847-.0907.77299l-.33246.26502c-.20394.16453-.48071.0788-.6347-.17668l-3.7931-6.27223c-.15399-.25545-.11328-.58637.0907-.7509l.33246-.26502c.051-.0411.10814-.0761.16624-.0883zm-4.59404.37545c.1743-.0368.36809.0514.48358.24294l3.77799,6.27222c.15399.25546.11328.60847-.0907.77299l-.33246.26502c-.20394.16453-.48072.0788-.6347-.17668l-3.7931-6.27223c-.154-.25545-.11328-.58637.0907-.7509l.33246-.26502c.051-.0411.10813-.0761.16623-.0883zm-4.33713.7509c.1743-.0368.36809.0514.48358.24294l3.77799,6.27222c.15398.25546.11327.58638-.0907.7509l-.33246.26502c-.20395.16453-.49583.10086-.64982-.15459l-3.77799-6.27223c-.15398-.25545-.11327-.58637.0907-.7509l.33246-.26502c.051-.0411.10813-.0761.16623-.0883zm-4.59403.37545c.1743-.0368.36809.0514.48358.24294l3.77799,6.27222c.15398.25546.11327.58638-.0907.7509l-.33247.26502c-.20394.16453-.49582.10087-.64981-.15459l-3.77799-6.27223c-.15399-.25545-.11327-.58637.0907-.7509l.33247-.26502c.051-.0411.10812-.0761.16623-.0883zm-4.85094.37545c.1743-.0368.36809.0514.48358.24294l3.77799,6.27222c.15399.25546.11327.58638-.0907.7509l-.33246.26502c-.20395.16453-.49583.10086-.64982-.15459l-3.77799-6.27223c-.15399-.25545-.11327-.60846.0907-.77298l.33247-.26503c.051-.0411.10813-.054.16623-.0662zm-4.85094.37545c.1743-.0368.36809.0514.48358.24294l3.77799,6.27222c.15399.25546.11328.58638-.0907.7509l-.33246.26502c-.20394.16453-.48072.10087-.6347-.15459l-3.7931-6.27223c-.15399-.25545-.11327-.60846.0907-.77298l.33246-.26503c.051-.0411.10813-.054.16623-.0662zm-4.59403.72881c.1743-.0368.36809.0514.48358.24294l3.77799,6.27223c.15399.25546.11327.60846-.0907.77298l-.33247.26502c-.20394.16453-.48071.0788-.6347-.17668l-3.7931-6.27222c-.15399-.25546-.11326-.58638.0907-.7509l.33247-.26503c.051-.0411.10813-.0761.16623-.0883zm-4.33713.37545c.1743-.0368.36809.0514.48358.24294l3.77799,6.27223c.15399.25545.11327.60846-.0907.77298l-.33247.26502c-.20393.16453-.49582.0788-.64981-.17668l-3.77799-6.27222c-.15399-.25546-.11327-.58638.0907-.7509l.33247-.26503c.051-.0411.10813-.076.16623-.0883zm-4.33713.7509c.1743-.0368.36809.0514.48358.24294l3.77799,6.27223c.15398.25545.11327.58638-.0907.7509l-.33247.2871c-.20394.16453-.49582.0788-.64981-.17668l-3.77799-6.27222c-.15399-.25546-.11327-.58638.0907-.7509l.33247-.26503c.051-.0411.10812-.076.16623-.0883zm-4.59404.37545c.1743-.0368.36809.0514.48358.24294l3.77799,6.27223c.15399.25546.11327.58638-.0907.7509l-.33246.26502c-.20394.16453-.49582.10086-.64982-.1546l-3.77798-6.27222c-.15399-.25546-.11327-.58638.0907-.7509l.33246-.26503c.051-.0411.10813-.076.16623-.0883zm-4.59403.37545c.1743-.0368.36809.0514.48358.24294l3.77799,6.27223c.15399.25546.11327.58638-.0907.7509l-.33247.26502c-.20394.16453-.49582.10086-.64981-.1546l-3.77799-6.27222c-.15398-.25546-.11327-.58638.0907-.7509l.33247-.26503c.051-.0411.10813-.076.16623-.0883zm-4.85094.7509c.1743-.0368.36809.0514.48358.24294l3.77799,6.27223c.15399.25546.11327.58638-.0907.7509l-.33246.26502c-.20394.16453-.49583.10086-.64982-.1546l-3.77799-6.27222c-.15398-.25546-.11326-.60846.0907-.77299l.33246-.26502c.051-.0411.10813-.054.16623-.0662zm-4.85094.37545c.1743-.0368.36809.0514.48359.24294l3.77798,6.27223c.154.25546.11327.58638-.0907.7509l-.33246.26502c-.20395.16453-.49582.10086-.64981-.1546l-3.77799-6.27222c-.15399-.25546-.11327-.60846.0907-.77299l.33246-.26502c.051-.0411.10814-.054.16623-.0662zm-4.594.72882c.17429-.0368.36806.0514.48359.24294l3.77795,6.27222c.15399.25546.11327.60847-.0907.77299l-.33246.26502c-.20395.16453-.49583.0788-.64982-.17668l-3.77798-6.27223c-.15397-.25545-.11325-.58637.0907-.7509l.33246-.26502c.051-.0411.10813-.0761.16625-.0883zm-5.36472.37545c.17429-.0368.36806.0514.48359.24294l3.77794,6.27222c.15397.25546.11325.60847-.0907.77299l-.31733.26502c-.20398.16453-.49587.0788-.64979-.17668l-3.77804-6.27223c-.15392-.25545-.11321-.58637.0907-.7509l.31733-.26502c.051-.0411.10813-.0761.16625-.0883zm-4.59403.7509c.17428-.0368.3681.0514.48358.24294l3.77794,6.27222c.15402.25546.11331.58638-.0906.7509l-.33251.26502c-.20388.16453-.48073.10087-.63466-.15459l-3.77803-6.27223c-.15398-.25545-.11326-.58637.0907-.7509l.31732-.26502c.051-.0411.10813-.0761.16626-.0883zm-4.33715.37545c.17428-.0368.36805.0514.48358.24294l3.77799,6.27222c.15397.25546.1133.58638-.0907.7509l-.33246.26502c-.20393.16453-.48068.10087-.6347-.15459l-3.79313-6.27223c-.15397-.25545-.11325-.58637.0907-.7509l.33242-.26502c.051-.0411.10818-.0761.16626-.0883zm-4.59404.37545c.17428-.0368.3681.0514.48358.24294l3.77799,6.27222c.15397.25546.11326.58638-.0907.7509l-.33246.26502c-.20398.16453-.48068.10087-.6347-.15459l-3.79313-6.27223c-.15397-.25545-.1133-.60846.0907-.77298l.33242-.26503c.051-.0411.10817-.054.16625-.0662zm-4.33715.37545c.17433-.0368.3681.0514.48358.24294l3.77804,6.27222c.15402.25546.11325.58638-.0907.7509l-.33242.26502c-.20397.16453-.49586.10087-.64984-.15459l-3.77799-6.27223c-.15402-.25545-.11325-.60846.0907-.77298l.33246-.26503c.051-.0411.10813-.054.16621-.0662zm-3.8233.37545c.17428-.0368.3681.0514.48358.24294l3.77799,6.27222c.15397.25546.1133.58638-.0907.7509l-.33247.26502c-.20397.16453-.49577.10087-.64979-.15459l-3.77803-6.27223c-.15398-.25544-.11331-.60846.0907-.77298l.33241-.26503c.051-.0411.10818-.054.16626-.0662z" opacity=".5"/>
  <path transform="matrix(.48358 0 0 .70673 550.29 10.044)" d="m-555.36 172.22 44.58-8.5636 103.56 5.3374c2.2375-0.19657 2.7081-1.8907 1.0556-3.8727l-97.759-2.639 31.2-0.82139c4.1304-1.2316 4.3119-1.5262 1.6395-2.7578-39.323-0.12034-73.803 9.0417-84.277 13.317z" fill="#fff" filter="url(#e)" opacity=".3"/>
  <path d="m316.87 123.85c3.8774-8.5259 37.795-8.8835 38.101-8.4841 0 0 18.719 7.9679 27.11 18.133 3.1461 3.8115 2.9077 12.404 2.9077 12.404l-2.498 1.2656s7e-3 -12.13-4.3188-10.458c-3.0223 1.168-7.237 2.214-11.775 3.4945-3.0756 0.86779 0.64195 12.579 0.64195 12.579 0.18843 1.0908-1.1407 1.9864-1.931 0.43871 0 0-1.4865-11.081-4.4177-11.254-5.2619-0.31192-13.94 0.18877-20.631-0.44073-3.1287-0.29435 2.0238 12.767 2.0238 12.767-3.9207-0.47172-14.15-9.8996-21.196-16.506-6.7231-6.3039-4.4218-8.7397-4.0164-13.937z" fill="#501644"/>
  <path d="m359.96 146.85c0 1.8657-1.1927 3.3782-2.6641 3.3782s-2.6641-1.5125-2.6641-3.3782 1.1928-3.3782 2.6641-3.3782 2.6628 1.5106 2.6641 3.3752" opacity=".75"/>
  <path d="m373.85 144.71c0 1.8657-1.1927 3.3782-2.6641 3.3782s-2.6641-1.5125-2.6641-3.3782 1.1928-3.3782 2.6641-3.3782 2.6628 1.5106 2.6641 3.3752" opacity=".75"/>
  <path transform="matrix(.87474 0 0 1.1412 53.045 -16.716)" d="m304.86 120.66c9.6449-3.2894 34.017-3.4169 40.656-3.489l21.43 10.22c-8.4406 6.655-19.356 4.3843-26.641 1.3471 20.162 14.877-14.791 2.6756-10.076 8.1498-6.1362-1.7172-26.294-16.115-25.369-16.228z" fill="#ccc" filter="url(#ac)" opacity=".5"/>
  <path d="m362.17 141.34c-6.0748-11.41-25.616-24.904-25.616-24.904s-0.30734-2.4084 1.8826-0.76306c7.904 5.9384 19.708 13.187 25.823 25.835 1.7804 3.6822 3.0786 12.02 3.0786 12.02-0.68059 1.5449-1.6298 1.7117-2.3104 0.59893 0 0-0.91719-9.1399-2.8585-12.786z" fill="#501642"/>
  <path transform="matrix(.87474 0 0 1.1412 53.045 -16.716)" d="m324.41 115.84c0.42844 0.17138 13.881 7.7119 13.881 7.7119 4.6279 0.88305 15.28 13.411 11.574 11.534-8.628-8.5437-17.256-13.356-25.884-18.475z" fill="#f2f2f2" filter="url(#bu)" opacity=".5"/>
  <path transform="matrix(.87474 0 0 1.1412 53.045 -16.716)" d="m186.23 151.33c1.0527 3.3077 5.8195 4.9515 33.817 34.518-4.3165 1.5597-29.892-23.818-29.151-18.985 8.7472 13.044 28.085 21.859 40.723 31.661 24.972 14.218 10.294 18.401 22.204 21.375 0 0-4.4188-10.696-7.6283-13.724-17.297-16.318-59.965-54.845-59.965-54.845z" fill="#e6e6e6" filter="url(#bf)" opacity=".5"/>
  <path transform="matrix(.87474 0 0 1.1412 53.045 -16.716)" d="m181.46 164.08c9.6332 9.6978 20.738 18.546 31.268 26.725-9.0316-8.9614-36.225-35.358-46.26-44.57-1.2069-0.62926 8.047 10.671 14.992 17.846z" fill="#b3b3b3" filter="url(#aw)" opacity=".75"/>
  <path transform="matrix(.87474 0 0 1.1412 53.045 -16.716)" d="m205.04 170.02c0.8088 3.7582-0.96372 4.0371-3.7356 3.113 6.1324 4.6423 11.767 9.4713 18.159 12.556-5.2574-4.9115-11.478-11.675-14.423-15.669z" fill="#ccc" filter="url(#ax)" opacity=".5"/>
  <path d="m281.94 251.72c-0.20457 0.62514-0.85565 0.70429 0.20574 1.6598l151.43-10.474c31.551-12.231 62.777-21.912 94.068-32.108 0.6815-0.25512 1.5207-1.3934 0.30861-1.9282-31.586 10.409-63.309 20.55-94.377 31.974z" fill="#501644"/>
  <path transform="matrix(.87474 0 0 1.1412 53.045 -16.716)" d="m262.48 222.32 168.4-9.4079 109.13-28.224-0.94079 6.5855-105.37 26.342-172.16 10.349z" fill="#fff" filter="url(#ch)" opacity=".25"/>
  <path transform="matrix(.87474 0 0 1.1412 53.045 -16.716)" d="m390.37 113c63.457 22.139 129.55 52.754 148.95 60.858-5.1685-3.0814-36.132-23.332-46.99-26.144l35.53 15.187c2.6863 1.9188 18.964 8.1701 10.374 3.2427-5.4698-3.1374-64.236-30.194-64.236-30.194 182.23 72.692 2.2453-1.2391-66.099-21.203-3.5704-2.8799-5.8682-5.5271-8.177-8.5191z" fill="#9c6f97" filter="url(#ci)" opacity=".83"/>
  <path transform="matrix(.87474 0 0 1.1412 53.045 -16.716)" d="m484.87 138.54c27.709 9.9638 74.388 28.609 97.277 40.18l1.5105-0.6042c-23.048-12.514-60.977-26.372-87.912-36.554z" fill="#e6e6e6" filter="url(#cf)"/>
  <path d="m439.62 261.45c7.2936-5.762 21.491-14.392 21.491-14.392l0.96569 2.8402 2.2443-2.0178-0.68669-1.9206 7.5051-3.2315 1.0364 3.1287 2.2443-2.0178-0.77484-2.2 8.1589-3.5105 0.96083 2.8131 2.2491-1.9908-0.68669-1.9206 7.9974-3.4565 0.98024 2.9213 2.2443-2.0178-0.71867-1.9927 8.0844-3.5016-0.75234 0.68466 1.0733 3.2278 2.2491-1.9908-0.94427-2.6148 9.3745-4.0506-1.4272 1.2701 1.0906 3.2189 2.2492-1.9908-1.0325-2.8943 4.7158-2.0253c0.7256 4.9263 1.1647 7.9604 1.6737 11.459l-1.7386 1.5494 1.0907 3.2189 1.198-1.063c0.86906 6.0033 1.449 10.099 1.7592 12.36l-2.1147 1.8917 0.88237 2.5878c-1.3246-0.12487-4.076 3.3147-4.8604 1.0066-1.2116 1.3989-2.4962 1.9343-3.8914 2.4855l0.64015-0.56753-1.138-3.1648-2.2018 1.9367 0.85526 2.5427-8.364 3.321 0.51052-0.44138-1.1254-3.2009-2.1969 1.9638 0.82333 2.4705-8.7692 3.5011 1.3324-1.162-1.1428-3.1919-2.1795 1.9548 0.94341 2.8222-8.9259 3.5821 0.76966-0.6936-1.1428-3.1919-2.1844 1.9277 0.86985 2.6238-8.2026 3.2671-1.0596-2.9394-2.1968 1.9638 0.94067 0.97624c-3.7212 0.51265-3.3128 0.83749-8.7045 1.2364-7.2808 2.9154-9.2373 3.1507-15.713 2.8823l-6.9449 0.21777s-1.7477-14.72 0.61673-16.5zm30.105 12.044 2.9564 0.11885 0.0237-1.069-2.1472 0.58569-0.47713-0.11997zm11.159-3.1483 1.6877-0.66599-1.4794 1.2971zm10.614-4.2481 1.0465-0.42305-0.91666 0.82877-0.12993-0.40569zm9.8157-3.9242 1.9885-0.79202-1.7386 1.5494zm10.352-4.1131 1.8444-0.74704-1.6041 1.4503zm10.596-4.2392 1.6877-0.66599-1.4746 1.3242zm1.2323-4.4794 0.0822-0.072 1.1429 3.1919-0.73486 0.67561s-0.0153-0.33319-0.49022-3.7954zm-1.7592-12.36c-0.14455-0.99972-0.38536-2.573-0.55007-3.7054l0.45834-0.41439 1.1428 3.1919zm-6.9396-13.139-0.88011 0.39598 0.76966-0.69362 0.11054 0.29748zm-10.255 4.4466-1.6258 0.69309 1.4272-1.2701zm-9.7102 4.1947-2.5058 1.0892-0.11539-0.32455 2.1969-1.9638 0.42419 1.1992zm-10.503 4.5457-2.5233 1.0982-0.12993-0.40569 2.1969-1.9638 0.45617 1.2714zm-10.682 4.6087-2.5058 1.0892-0.0415-0.12633 2.1969-1.9638 0.35059 1.0009zm-10.011 4.3206-2.5232 1.0982-0.12994-0.40566 2.2018-1.9367 0.45133 1.2443zm-16.462 7.8052-2.197 1.9638 1.0907 3.2189 2.2491-1.9908zm10.179-3.6985-2.1968 1.9637 1.0732 3.2279 2.2492-1.9908zm9.78-3.6988-2.1969 1.9638 1.0955 3.2459 2.2443-2.0178zm-25.816 13.352-2.197 1.9638 1.0955 3.2459 2.2442-2.0178zm36.578-17.943-2.1795 1.9548 1.0781 3.2549 2.2443-2.0178zm-26.235 13.776-2.1969 1.9638 1.0907 3.2189 2.2317-1.9818zm36.897-18.285-2.2017 1.9368 1.0955 3.2459 2.2443-2.0178zm-27.049 14.965-2.2018 1.9368 1.0955 3.2459 2.2491-1.9908zm37.143-19.033-2.1795 1.9548 1.0781 3.2549 2.2443-2.0178zm-26.931 14.136-2.1969 1.9638 1.0907 3.2189 2.2491-1.9908zm-25.997 13.83-2.1795 1.9548 1.0732 3.2279 2.2492-1.9908zm63.334-31.781-2.1969 1.9638 1.0955 3.2459 2.2443-2.0178zm-26.617 13.766-2.1969 1.9638 1.078 3.255 2.2443-2.0178zm36.393-18.231-2.1969 1.9638 1.0907 3.2189 2.2491-1.9908zm-63.156 32.665-2.1969 1.9638 1.0907 3.2189 2.2317-1.9818zm37.055-18.781-2.197 1.9638 1.0955 3.2459 2.2442-2.0178zm-26.73 14.623-2.1795 1.9548 1.0732 3.2279 2.2492-1.9908zm-26.135 13.695-0.57799 1.9548-0.5234 3.2549 2.2443-2.0178zm63.363-32.358-2.2017 1.9367 1.078 3.255 2.2492-1.9908zm-26.764 14.433-2.2018 1.9367 1.0955 3.2459 2.2269-2.0088zm-26.483 13.875-2.197 1.9638 1.0907 3.2189 2.2317-1.9818zm63.219-32.313-2.1795 1.9548 1.0781 3.255 2.2443-2.0178zm-26.323 14.028-2.2018 1.9368 1.0955 3.2459 2.2491-1.9908zm-26.508 14.479-2.1795 1.9548 1.0732 3.2279 2.2492-1.9908zm37.165-19.015-2.1969 1.9638 1.0732 3.2279 2.2492-1.9908zm-27.268 14.487-2.1969 1.9638 1.0906 3.2189 2.2492-1.9908zm-26.206 13.938-2.197 1.9638 1.0781 3.2549 2.2442-2.0178zm63.312-32.538-2.1969 1.9638 1.0907 3.2189 2.2317-1.9818zm9.8976-4.528-2.1969 1.9638 1.0732 3.2279 2.2492-1.9908zm-36.51 19.061-2.1969 1.9638 1.0781 3.255 2.2443-2.0178zm-26.218 13.974-2.2018 1.9367 1.0955 3.246 2.2443-2.0179zm37.055-18.781-2.1795 1.9548 1.0732 3.2279 2.2492-1.9908zm10.083-4.2395-2.197 1.9638 1.0907 3.2189 2.2491-1.9908zm-37.009 19.142-2.1795 1.9548 1.0732 3.2279 2.2492-1.9908zm46.97-23.318-2.1969 1.9638 1.0907 3.2189 2.2317-1.9818zm-36.854 19.268-2.2018 1.9367 1.0955 3.2459 2.2491-1.9908zm-25.938 13.415-2.2017 1.9367 1.0955 3.246 2.2492-1.9908zm36.892-18.312-2.1969 1.9638 1.0906 3.2189 2.2492-1.9908zm10.02-4.5911-2.197 1.9638 1.0907 3.2189 2.2317-1.9818zm-36.72 19.376-2.1795 1.9548 1.0781 3.2549 2.2442-2.0178zm46.756-23.769-2.2018 1.9368 1.0955 3.2459 2.2443-2.0178zm-37.207 19.421-2.1795 1.9548 1.0732 3.2279 2.2492-1.9908zm-25.66 13.479-2.1969 1.9638 1.0906 3.2189 2.2317-1.9818zm72.891-36.724-2.197 1.9638 1.0907 3.2189 2.2491-1.9908zm-36.191 18.718-2.1969 1.9638 1.0906 3.2189 2.2317-1.9818zm-26.415 14.253-2.1968 1.9638 1.0906 3.2189 2.2492-1.9908zm36.673-18.79-2.1795 1.9548 1.0781 3.2549 2.2442-2.0178zm10.217-4.8704-2.2017 1.9367 1.0955 3.246 2.2443-2.0178zm-36.992 19.132-2.2018 1.9367 1.0954 3.246 2.2269-2.0088zm47.079-22.606-2.1969 1.9638 1.0906 3.2189 2.2492-1.9908zm-36.539 18.898-2.1968 1.9638 1.0906 3.2189 2.2492-1.9908zm46.541-23.48-2.1795 1.9548 1.0732 3.2279 2.2492-1.9908zm-36.417 18.835-2.1969 1.9638 1.0906 3.2189 2.2492-1.9908zm10.409-5.1768-2.2017 1.9367 1.0955 3.246 2.2492-1.9908zm-36.703 19.367-2.1968 1.9638c0.74097 1.1611 1.2845 3.0467 3.3223 1.2371zm46.865-23.057-2.1844 1.9278 1.0781 3.2549 2.2491-1.9908zm-36.87 19.069-2.2018 1.9368 1.0781 3.2549 2.2491-1.9908zm10.321-4.1852-2.1969 1.9638 1.0955 3.2459 2.2442-2.0178zm36.347-18.592-2.1969 1.9638 1.0906 3.2189 2.2492-1.9908zm-25.816 13.352-2.1969 1.9638 1.0906 3.2189 2.2492-1.9908zm10.325-4.1582-2.1795 1.9548 1.0732 3.2279 2.2491-1.9908zm9.8604-3.3561-2.1969 1.9638 1.0955 3.246 2.2443-2.0179zm10.02-4.5911-2.197 1.9638 1.0733 3.2279 2.2491-1.9908z" fill="#1a1a1a"/>
  <path d="m276.78 267.22 112.29-8.0173 32.402 4.0086-0.83797 19.314s20.603 3.5514 18.994-6.5596c1.1486 15.14 81.465-22.073 81.465-22.073 3.7955-12.093-6.9037-23.735 0.0973-30.404l17.597-5.4664 0.55866 49.926c-43.733 14.596-87.796 28.676-135.19 37.536l-126.53 15.306z"/>
  <path d="m399.76 263.76c-11.701-2.1476-36.752-2.3748-36.752-2.3748l-0.64155 3.6048-3.6621-0.92512 0.48117-2.4564-11.361 0.70183-0.66824 3.9557-3.6621-0.92512 0.53462-2.8073-12.35 0.76562-0.64154 3.5729-3.6621-0.89321 0.48116-2.4564-12.109 0.73372-0.64155 3.7005-3.6621-0.92512 0.50794-2.5521-12.243 0.73374 1.2297 0.31901-0.6951 4.0833-3.6621-0.89322 0.66823-3.3496-14.194 0.86135 2.3256 0.57421-0.72169 4.0833-3.6622-0.89322 0.72178-3.7005-7.1372 0.44661c0.22138 5.7225 0.36867 9.2425 0.53462 13.303l2.8336 0.70183-0.72179 4.0833-1.9513-0.47851c0.2911 6.965 0.50794 11.71 0.64155 14.323l3.4483 0.86133-0.58809 3.2858c1.8299-0.87423 6.563 1.3024 7.0838-1.6269 2.055 0.83363 3.9951 0.69432 6.0947 0.51041l-1.0426-0.2552 0.80193-4.0514 3.582 0.8613-0.56131 3.222 12.59-1.0846-0.82862-0.1914 0.77517-4.0833 3.582 0.89323-0.53462 3.1263 13.205-1.1165-2.1652-0.51041 0.80185-4.0833 3.5553 0.89322-0.61478 3.5729 13.446-1.1165-1.2563-0.31901 0.80186-4.0833 3.5553 0.86131-0.56139 3.3177 12.35-1.0527 0.74848-3.7643 3.5819 0.89322-1.076 1.5789c5.3584-1.524 4.8664-0.9455 12.544-3.5249 10.966-0.91782 13.775-1.756 22.807-5.661l9.8143-3.6421s1.6733-18.027-2.0977-18.628zm-42.197 30.969-4.1246 1.7787-0.30252-1.1407 3.1649-0.56652 0.64027-0.39586zm-16.474 2.8315-2.5394 0.2233 2.4058 0.57421zm-15.985 1.3398-1.5772 0.12759 1.497 0.38281 0.0804-0.5104zm-14.782 1.2441-2.9939 0.25521 2.8335 0.70182zm-15.584 1.3398-2.78 0.2233 2.6196 0.66992zm-15.959 1.3398-2.5394 0.22331 2.4057 0.60611zm-2.8602-4.1471-0.13369-0.0319-0.80194 4.0833 1.2029 0.31899s-0.0625-0.36816-0.26723-4.3704zm-0.64155-14.323c-0.0487-1.1598-0.10667-2.9924-0.16047-4.3066l-0.74847-0.1914-0.80185 4.0833zm6.4422-18.056 1.3366-0.0639-1.2563-0.319-0.0804 0.38282zm15.531-0.92515 2.4593-0.15948-2.3256-0.57422zm14.702-0.89322 3.7958-0.2233 0.0804-0.41471-3.582-0.89322-0.294 1.5312zm15.905-0.95702 3.8225-0.22329 0.0804-0.51042-3.582-0.89322-0.32077 1.6269zm16.172-0.98891 3.7957-0.22331 0.0265-0.15951-3.582-0.89323-0.24054 1.276zm15.157-0.92514 3.8225-0.2233 0.0804-0.51041-3.582-0.86133-0.32078 1.595zm25.1-0.76562 3.5821 0.89322-0.72179 4.0833-3.6621-0.89322zm-15.237 1.6908 3.5819 0.89322-0.69494 4.0833-3.6622-0.89323zm-14.675 1.4674 3.582 0.89323-0.72179 4.1152-3.6621-0.92514zm39.642 0 3.582 0.89323-0.72178 4.1152-3.6621-0.92514zm-55.922 1.0527 3.5553 0.89322-0.69502 4.1152-3.6621-0.92512zm40.337 0.2233 3.582 0.89323-0.72178 4.0833-3.6354-0.89323zm-56.456 0.86132 3.582 0.86133-0.72178 4.1152-3.6621-0.92512zm41.781 1.0527 3.5821 0.86132-0.72179 4.1152-3.6621-0.89322zm-56.991 0.1914 3.5553 0.89321-0.69501 4.1152-3.6621-0.92513zm41.407 0.22332 3.582 0.89323-0.72178 4.0833-3.6621-0.8932zm40.017 0.4147 3.5552 0.89323-0.69502 4.0833-3.6622-0.89322zm-97.007 1.0527 3.582 0.89322-0.72178 4.1152-3.6621-0.92512zm40.872 0 3.5819 0.89322-0.69494 4.1152-3.6622-0.92512zm-55.734 0.63803 3.582 0.89322-0.72179 4.0833-3.6621-0.89322zm96.981 0 3.582 0.89322-0.72179 4.0833-3.6354-0.89322zm-56.804 0.4147 3.5821 0.89323-0.72179 4.1152-3.6621-0.92514zm41.246 0.86132 3.5552 0.89323-0.69493 4.0833-3.6622-0.89323zm40.177 0.19142 3.5552 0.89322-0.69501 4.1152-3.6622-0.92511zm-97.194 0.44661 3.5819 0.86131-0.69492 4.1152-3.6622-0.89322zm41.246 0.638 3.582 0.86132-0.72178 4.1152-3.6354-0.92513zm40.711 0.19141 3.5821 0.89323-0.72178 4.0833-3.6354-0.89322zm-96.981 0.41472 3.5553 0.89322-0.695 4.1152-3.6621-0.92511zm40.524 0.4466 3.5821 0.86134-0.72178 4.1152-3.6621-0.89321zm40.899 0.82942 3.5552 0.89322-0.69501 4.0833-3.6622-0.89322zm-57.018 0.22331 3.582 0.89322-0.69501 4.0833-3.6622-0.89323zm41.968 0.4147 3.582 0.89323-0.7217 4.0833-3.6622-0.89323zm40.337 0.41473 3.5821 0.89321-0.6951 4.1152-3.6621-0.92514zm-97.168 0.2233 3.582 0.89322-0.72179 4.0833-3.6354-0.89322zm-15.05 0.63803 3.5819 0.89322-0.69493 4.0833-3.6622-0.89322zm56.109 0.19139 3.582 0.89322-0.69501 4.1152-3.6622-0.92513zm40.364 0.4466 3.582 0.86134-0.72169 4.1152-3.6622-0.92512zm-56.804 0.41472 3.5552 0.89323-0.695 4.0833-3.6622-0.89322zm-15.237 1.0527 3.5821 0.89323-0.72178 4.0833-3.6621-0.89323zm56.83 0 3.5552 0.89323-0.69501 4.0833-3.6622-0.89323zm-71.88 1.0527 3.582 0.89322-0.72178 4.0833-3.6354-0.89323zm56.643 0.22333 3.5821 0.8613-0.72179 4.1152-3.6621-0.89322zm39.829 0 3.5819 0.8613-0.7217 4.1152-3.6622-0.89322zm-56.456 0.82941 3.5819 0.89323-0.72169 4.0833-3.6622-0.89323zm-15.237 0.63803 3.582 0.89321-0.72178 4.0833-3.6354-0.89323zm56.483 0.41469 3.5553 0.89322-0.6951 4.1152-3.6621-0.92513zm-71.693 0.44662 3.582 0.86133-0.7217 4.1152-3.6622-0.9251zm57.178 0.1914 3.5552 0.89323-0.69501 4.0833-3.6622-0.89322zm39.455 0.22332 3.5819 0.89322-0.7217 4.0833-3.6354-0.89322zm-111.68 1.0527 3.5821 0.89322-0.72178 4.0833-3.6621-0.89323zm55.574 0 3.582 0.89322-0.7217 4.0833-3.6354-0.89323zm40.712 0.63801 3.5819 0.89323-0.7217 4.0833-3.6622-0.89322zm-56.269 0.19141 3.5553 0.89321-0.6951 4.1152-3.6621-0.92512zm-15.584 0.44659 3.5819 0.86134-0.7217 4.1152-3.6622-0.92512zm56.804 0 3.582 0.86134-0.72169 4.1152-3.6354-0.92512zm-71.853 1.8822 3.582 0.89322-0.72169 4.0833-3.6622-0.89322zm56.109 0 3.5819 0.89322-0.72169 4.0833-3.6622-0.89322zm-71.319 0.63802 3.5552 0.89323-0.69501 4.0833-3.6622-0.89323zm55.922 0 3.5819 0.89323-0.7217 4.0833-3.6622-0.89323zm-15.932 0.22331 3.5819 0.86131-0.72169 4.1152-3.6622-0.89322zm56.456 0.4147 3.5819 0.89323c-0.74877 1.6669-1.0375 4.0057-4.3571 3.1901zm-71.666 1.276 3.5553 0.86134-0.69509 4.1152-3.6621-0.89323zm56.617 0 3.582 0.86134-0.69501 4.1152-3.6621-0.89323zm-15.558 1.2441 3.582 0.89323-0.72178 4.1152-3.6621-0.92512zm-55.761 0.22332 3.582 0.89322-0.72169 4.0833-3.6622-0.89322zm39.642 0 3.5819 0.89322-0.72171 4.0833-3.6622-0.89322zm-15.558 1.276 3.5553 0.89323-0.695 4.0833-3.6621-0.89323zm-14.702 1.8822 3.5819 0.89322-0.72169 4.1152-3.6622-0.92515zm-15.237 0.63801 3.5821 0.89321-0.6951 4.0833-3.6621-0.89322z" fill="#1a1a1a"/>
  <path d="m277.68 302.15c37.071-2.8012 95.844-7.285 122.48-20.228 0.86142-0.075 2.212-11.707 0-15.058-4.2419-7.6111-92.278 1.1987-123.69 2.9218l-0.17227-2.2475c42.321-0.29967 124.57-11.861 126.79-1.3485 1.2906 1.9909 1.0809 16.88-0.34454 17.531-35.817 16.357-83.32 16.931-124.89 21.351z" fill="#999"/>
  <path transform="matrix(.87474 0 0 1.1412 53.045 -16.716)" d="m257.37 284.26c45.598-1.9118 52.816-1.4962 140.14-12.948 2.7695 0.12797 3.0819 2.3031 4.234 4.4527 0.19574-4.5637-0.63183-5.8104-3.2507-5.6683-46.893 6.8136-93.543 10.722-140 12.293z" fill="#fff" filter="url(#bq)"/>
  <path transform="matrix(.87474 0 0 1.1412 53.045 -16.716)" d="m407.86 248.39c-1.3317 5.8078 4.0432 6.1964-0.53654 12.79-1.9925 6.199 1.3499 11.955 7.4509 2.4609 2.9158-13.931 1.1403-8.8391 0.91541-14.919-3.0055 3.5653-5.7018 3.1234-7.8298-0.33209z" fill="url(#k)" filter="url(#af)" opacity=".64083"/>
  <path d="m293.73 279.06 16.179-0.90042c3.7147-0.20674 6.9613 3.6557 7.1789 8.4981l0.10341 2.3013c0.21759 4.8424-2.5935 9.0071-6.3029 9.3377l-16.722 1.4905c-3.7094 0.33063-6.8708-3.3016-7.0884-8.1441l-0.10341-2.3013c-0.21759-4.8424 3.0405-10.075 6.7552-10.282z" fill="#808080" opacity=".98333"/>
  <path transform="matrix(.99636,-.08523,.04677,.99891,0,0)" d="m282.53 305.7h11.832a7.4008 7.4008 0 0 1 7.4008 7.4008v1.9485a7.4008 7.4008 0 0 1 -7.4008 7.4008h-11.832a7.4008 7.4008 0 0 1 -7.4008 -7.4008v-1.9485a7.4008 7.4008 0 0 1 7.4008 -7.4008" fill="#fff"/>
  <path transform="matrix(.87474 0 0 1.1412 53.045 -16.716)" d="m278.14284,267.39884v1.88701 .20968c0,.0699-.0489.16023 0,.20966s.15893-.0494.20793,0-.0489.16025 0,.20967c.098.0988.29187-.0625.41585,0 .86533.43629-.22228-.0145.20792.41933 .0489.0495.15893-.0494.20793,0s0,.13979 0,.20967c.13862,0 .29187-.0625.41585,0 .062.0312-.049.16026 0,.20967 .0642.0648.97588-.0643 1.03962,0 .0489.0494-.0489.16025 0,.20968s.15892-.0495.20793,0-.049.16024 0,.20966 .13862,0 .20792,0h.20793c.55447,0-.0694.0699.20792-.20966 .049-.0495.15892.0493.20793,0s-.0489-.16026 0-.20968 .15891.0494.20792,0-.0489-.16025 0-.20967 .15892.0494.20792,0-.0489-.16024 0-.20967 .15892.0495.20793,0 0-.13977 0-.20966v-.20967-1.46768c0-.0699-.0489-.16024 0-.20966s.15892.0493.20793,0-.049-.16026 0-.20968 .14593.0312.20792,0c.0877-.0442.12026-.16546.20793-.20967 .062-.0312.15892.0494.20792,0s-.049-.16024 0-.20966 .13861,0 .20793,0c.0763,0 .82333-.008.8317,0 .0489.0494-.049.16024 0,.20966s.13862,0 .20792,0h1.24755 1.45548c.0693,0 .15891-.0495.20792,0s-.049.16026 0,.20967 .13862,0 .20792,0h.20792 1.6634c.0936,0 .5605.0318.62379,0 .0877-.0442.12025-.16546.20791-.20967 .062-.0312.13862,0 .20793,0h.20793 1.66339 .20794c.0693,0 .15891.0494.20792,0s-.0489-.16024 0-.20966 .15891.0494.20792,0-.049-.16024 0-.20967c.10396-.10484.51981.10484.62378,0 .0489-.0494-.049-.16026 0-.20966 .10396-.10485.51981.10482.62377,0 .0489-.0494-.0489-.16026 0-.20968 .10395-.10483.51981.10483.62377,0s-.098-.32049 0-.41934c.009-.009.94159,0 1.03963,0 .48762,0-.098-.0495.41585.20968 .062.0312.14594-.0312.20793,0 .0877.0442.12024.16546.20792.20966 .062.0312.15891-.0494.20792,0 .098.0989-.098.3205 0,.41934 .049.0494.15892-.0494.20793,0 .007.007 0,.57815 0,.629v.20968c0,.0699.0489.16024 0,.20966s-.15892-.0494-.20793,0 0,.13978 0,.20967v1.04834c0,.0699.049.16025 0,.20967s-.15891-.0494-.20792,0 .031.14716 0,.20967c-.0438.0884-.16409.12126-.20792.20966-.062.12503.098.32051 0,.41934-.049.0494-.15892-.0494-.20793,0-.098.0988.098.3205 0,.41934-.009.009-.9416,0-1.03963,0-.13663,0-.50647.0394-.62376,0-.14704-.0495-.26884-.16026-.41586-.20966-.1315-.0442-.29187.0625-.41584,0-.0877-.0442-.12026-.16548-.20793-.20968-.16635-.0838-.45744.0838-.62378,0-.0877-.0442-.12025-.16546-.20792-.20967-.12399-.0625-.31783.0988-.41586,0s.098-.3205 0-.41933-.51981.10484-.62376,0 .098-.3205 0-.41934c-.049-.0494-.15893.0495-.20794,0s.0489-.16025 0-.20966-.15891.0494-.20792,0 .0489-.16025 0-.20968-.13862,0-.20792,0h-.20792-2.91095-.20794c-.0693,0-.15891-.0495-.20792,0s.049.16025 0,.20968-.15892-.0495-.20792,0 0,.13977 0,.20966v.20967 1.67734 .20967c0,.0699.0489.16025 0,.20967-.009.009-.94159,0-1.03962,0h-1.24755-.20794c-.0693,0-.14593.0312-.20791,0-.86533-.4363.22227.0144-.20793-.41934-.049-.0494-.15891.0495-.20792,0-.10396-.10483.10396-.52417 0-.62899-.049-.0495-.15892.0493-.20794,0-.10395-.10485.10398-.52418 0-.62902-.0489-.0494-.15891.0495-.20791,0s.0489-.16024 0-.20966-.15892.0495-.20793,0 .0489-.16026 0-.20967-.15891-.0494-.20792,0 0,.13977 0,.20967v1.25801c0,.0699.049.16024 0,.20966s-.14593-.0312-.20793,0c-.0877.0442-.12026.16547-.20792.20967-.062.0312-.14593-.0312-.20793,0-.0877.0442-.12025.16547-.20792.20967-.0825.0416-.58126-.0428-.62378,0-.0489.0495.0489.16025 0,.20967s-.13862,0-.20792,0h-.20793-1.87132c-.14738,0-1.19379.0271-1.24755,0-.86533-.4363.22228.0145-.20793-.41934-.0489-.0494-.15891.0494-.20792,0-.0425-.0428.0412-.54587 0-.629-.0438-.0884-.16409-.12127-.20793-.20966-.062-.12504.098-.32051 0-.41935-.0489-.0495-.15892.0494-.20791,0s.0501-.78822 0-.83867-.15892.0495-.20794,0 0-.13979 0-.20966c0-.10894-.0184-1.02047 0-1.04835 .24618-.37234.55447-.69889.8317-1.04834z" fill="#999" filter="url(#d)" opacity=".5"/>
  <path transform="matrix(.87474 0 0 1.1412 53.045 -16.716)" d="m296.37 259.34c-7.0342 1.4469-24.736-3.9003-28.747 8.7897 2.9419-10.719 7.9384-8.8814 28.747-8.7897z" fill="#fff" filter="url(#bw)"/>
  <path d="m563.14 237.92c-35.455 14.396-94.954 37.893-123.38 38.008-0.82655 0.32529-0.58877-10.654 0.57771-14.807 1.9178-9.0717 83.698-39.105 113.56-51.912l2.2839 1.7334c-39.695 19.148-117.62 40.391-116.86 51.248-0.67109 2.456-0.82542 16.296 0.68446 16.251 37.938-1.1321 83.65-22.759 123.76-37.707z" fill="#999"/>
  <path transform="matrix(.87474 0 0 1.1412 53.045 -16.716)" d="m294 261.88c13.672 3.4023-17.774-3.9628-23.482 9.6277 2.9276-12.839 14.363-10.05 23.482-9.6277z" fill="#4d4d4d" filter="url(#w)" opacity=".5"/>
  <path d="m501.65 240.6 13.367-3.3508c3.0828-0.7728 6.203 1.9042 6.9455 6.2295l0.35287 2.0556c0.74252 4.3253-1.1078 8.6456-4.1488 9.6867l-13.709 4.6933c-3.0409 1.0411-6.6568 0.1513-7.3485-5.3287l-0.32902-2.6066c-0.55273-4.3788 1.7871-10.606 4.8699-11.379z" fill="#808080" opacity=".98333"/>
  <path d="m502.1 242.6 12.628-3.4502c2.5998-0.71034 5.157 1.3722 5.7914 5.0288l0.30149 1.7378c0.6344 3.6566-0.92713 7.3013-3.5012 8.172l-12.473 4.2189c-2.574 0.87066-5.8623-0.15778-6.1143-3.8999l-0.23886-3.5467c-0.25199-3.7421 1.007-7.5504 3.6068-8.2607z" fill="#fff"/>
  <path transform="matrix(.71414 -.25206 -.18663 -1.0136 179.79 617.38)" d="m512.71281,231.13116v1.88701 .20968c0,.0699-.0489.16023 0,.20966s.15893-.0494.20793,0-.0489.16025 0,.20967c.098.0988.29187-.0625.41585,0 .86533.43629-.22228-.0145.20792.41933 .0489.0495.15893-.0494.20793,0s0,.13979 0,.20967c.13862,0 .29187-.0625.41585,0 .062.0312-.049.16026 0,.20967 .0642.0648.97588-.0643 1.03962,0 .0489.0494-.0489.16025 0,.20968s.15892-.0495.20793,0-.049.16024 0,.20966 .13862,0 .20792,0h.20793c.55447,0-.0694.0699.20792-.20966 .049-.0495.15892.0493.20793,0s-.0489-.16026 0-.20968 .15891.0494.20792,0-.0489-.16025 0-.20967 .15892.0494.20792,0-.0489-.16024 0-.20967 .15892.0495.20793,0 0-.13977 0-.20966v-.20967-1.46768c0-.0699-.0489-.16024 0-.20966s.15892.0493.20793,0-.049-.16026 0-.20968 .14593.0312.20792,0c.0877-.0442.12026-.16546.20793-.20967 .062-.0312.15892.0494.20792,0s-.049-.16024 0-.20966 .13861,0 .20793,0c.0763,0 .82333-.008.8317,0 .0489.0494-.049.16024 0,.20966s.13862,0 .20792,0h1.24755 1.45548c.0693,0 .15891-.0495.20792,0s-.049.16026 0,.20967 .13862,0 .20792,0h.20792 1.6634c.0936,0 .5605.0318.62379,0 .0877-.0442.12025-.16546.20791-.20967 .062-.0312.13862,0 .20793,0h.20793 1.66339 .20794c.0693,0 .15891.0494.20792,0s-.0489-.16024 0-.20966 .15891.0494.20792,0-.049-.16024 0-.20967c.10396-.10484.51981.10484.62378,0 .0489-.0494-.049-.16026 0-.20966 .10396-.10485.51981.10482.62377,0 .0489-.0494-.0489-.16026 0-.20968 .10395-.10483.51981.10483.62377,0s-.098-.32049 0-.41934c.009-.009.94159,0 1.03963,0 .48762,0-.098-.0495.41585.20968 .062.0312.14594-.0312.20793,0 .0877.0442.12024.16546.20792.20966 .062.0312.15891-.0494.20792,0 .098.0989-.098.3205 0,.41934 .049.0494.15892-.0494.20793,0 .007.007 0,.57815 0,.629v.20968c0,.0699.0489.16024 0,.20966s-.15892-.0494-.20793,0 0,.13978 0,.20967v1.04834c0,.0699.049.16025 0,.20967s-.15891-.0494-.20792,0 .031.14716 0,.20967c-.0438.0884-.16409.12126-.20792.20966-.062.12503.098.32051 0,.41934-.049.0494-.15892-.0494-.20793,0-.098.0988.098.3205 0,.41934-.009.009-.9416,0-1.03963,0-.13663,0-.50647.0394-.62376,0-.14704-.0495-.26884-.16026-.41586-.20966-.1315-.0442-.29187.0625-.41584,0-.0877-.0442-.12026-.16548-.20793-.20968-.16635-.0838-.45744.0838-.62378,0-.0877-.0442-.12025-.16546-.20792-.20967-.12399-.0625-.31783.0988-.41586,0s.098-.3205 0-.41933-.51981.10484-.62376,0 .098-.3205 0-.41934c-.049-.0494-.15893.0495-.20794,0s.0489-.16025 0-.20966-.15891.0494-.20792,0 .0489-.16025 0-.20968-.13862,0-.20792,0h-.20792-2.91095-.20794c-.0693,0-.15891-.0495-.20792,0s.049.16025 0,.20968-.15892-.0495-.20792,0 0,.13977 0,.20966v.20967 1.67734 .20967c0,.0699.0489.16025 0,.20967-.009.009-.94159,0-1.03962,0h-1.24755-.20794c-.0693,0-.14593.0312-.20791,0-.86533-.4363.22227.0144-.20793-.41934-.049-.0494-.15891.0495-.20792,0-.10396-.10483.10396-.52417 0-.62899-.049-.0495-.15892.0493-.20794,0-.10395-.10485.10398-.52418 0-.62902-.0489-.0494-.15891.0495-.20791,0s.0489-.16024 0-.20966-.15892.0495-.20793,0 .0489-.16026 0-.20967-.15891-.0494-.20792,0 0,.13977 0,.20967v1.25801c0,.0699.049.16024 0,.20966s-.14593-.0312-.20793,0c-.0877.0442-.12026.16547-.20792.20967-.062.0312-.14593-.0312-.20793,0-.0877.0442-.12025.16547-.20792.20967-.0825.0416-.58126-.0428-.62378,0-.0489.0495.0489.16025 0,.20967s-.13862,0-.20792,0h-.20793-1.87132c-.14738,0-1.19379.0271-1.24755,0-.86533-.4363.22228.0145-.20793-.41934-.0489-.0494-.15891.0494-.20792,0-.0425-.0428.0412-.54587 0-.629-.0438-.0884-.16409-.12127-.20793-.20966-.062-.12504.098-.32051 0-.41935-.0489-.0495-.15892.0494-.20791,0s.0501-.78822 0-.83867-.15892.0495-.20794,0 0-.13979 0-.20966c0-.10894-.0184-1.02047 0-1.04835 .24618-.37234.55447-.69889.8317-1.04834z" fill="#999" filter="url(#d)" opacity=".5"/>
  <path transform="matrix(.79678 -.07788 .05956 1.0419 80.79 48.305)" d="m510.66 241.06c-6.5603-2.571-5.4794-13.686 0.14962-17.356-1.1452 0.36596-5.2611 2.353-5.7604 8.8276l0.44885 3.965c0.71693 3.0774 2.2495 4.5581 5.1619 4.5634z" fill="#fff" filter="url(#bo)" opacity=".5"/>
  <path transform="matrix(.79678 -.07788 .05956 1.0419 80.79 48.305)" d="m511.85 224.31 17.506-2.1695-0.22442-0.82292c-1.025-0.0276-12.528 1.0621-17.88 2.0947-0.42469 0.301-1.7603 0.96784 0.59847 0.89772z" fill="#fff" filter="url(#bm)" opacity=".5"/>
  <path transform="matrix(.79678 -.07788 .05956 1.0419 80.79 48.305)" d="m531.53 221.76c2.2712 0.55101 6.132 7.3292 2.9924 14.139 5.1338-5.4456 0.35586-13.284-2.9924-14.139z" fill="#4d4d4d" filter="url(#bj)"/>
  <path transform="matrix(.79678 -.07788 .05956 1.0419 80.79 48.305)" d="m525.54 223.71c6.468 1.6712 10.317 4.4488 5.1619 12.344 7.1276-4.326 3.8284-13.835-5.1619-12.344z" fill="#4d4d4d" filter="url(#ay)" opacity=".54"/>
  <path transform="matrix(.87474 0 0 1.1412 53.045 -16.716)" d="m531.92 267.61c0.0137 1.0876 0.10456 1.8013-2.0719 2.1426l-70.325 24.511c-1.9419 1.073-1.0673-1.373-1.2902-3.1649l-2.6102 0.41605c1.4354 1.552-2.8533 8.5096 3.9004 5.7268 0 0 45.763-16.399 74.678-27.489 0.69893-1.002-0.0904-2.7612-0.0904-2.7612 0.21991-1.0882-2.1494-0.72865-2.1901 0.61865z" fill="#fff" filter="url(#cb)"/>
  <path transform="matrix(.87474 0 0 1.1412 53.045 -16.716)" d="m267.42 315.71c-3.8326-0.26014-4.7191 3.6827 0.14788 3.3914l115.51-6.9707 0.5852-2.075c-38.645 2.9496-76.814 5.0446-116.24 5.6543z" fill="#fff" filter="url(#bn)"/>
  <path d="m276.4 264.06c44.537-5.1741 129.8-8.5856 133.89-7.5759 5.7969 1.4323 8.7641 3.2442 12.156 5.9316v18.291c4.3771 1.2455 10.065 1.4139 15.417-1.1535l0.2997-19.941c4.7559-5.2175 9.2177-8.5166 13.487-10.557 28.574-15.301 56.774-22.598 85.532-32.825l0.29971 4.1096c-28.446 10.23-53.96 16.148-85.034 33.236-1.3789 0.45543-6.0684 3.8558-11.221 9.9472l-0.36563 18.358c-7.5689 3.6647-14.795 4.9416-21.878 3.5386v-19.159c-3.4677-2.4486-10.885-3.3512-19.181-3.9101-41.186 0.53661-82.179 2.8358-122.88 7.8202z" fill="#ccc" opacity=".99583"/>
  <path transform="matrix(.87474 0 0 1.1412 53.045 -16.716)" d="m241.33 223.78c1.8823 0.95867 2.3569 2.9804 3.7447 2.1778 4.1169 0.79707 5.6523-0.4711 8.3216-0.83215-0.68985-2.0049-1.3882-3.9957-3.035-4.4057-19.785 3.2064-28.117 0.56949-33.996 6.4861 11.019-2.7357 17.706-2.5707 24.965-3.4261z" fill="#666" filter="url(#bi)" opacity=".75"/>
  <path d="m272.87 231.49c-13.005 6.0352-26.906-3.6467-33.604 14.239-1.2187 24.232-1.0693 54.595-0.77126 78.826 11.838 5.7781 21.64 21.097 40.678-4.1218l-1.42-82.948c-0.58376-3.3602-2.8234-4.5601-4.8826-5.9954z" fill="#ececec"/>
  <path d="m275.74 238.24-5.2769 0.7049c9.6649 19.872-2.2418 39.23-11.094 39.389-13.727 0.24693-16.846-12.545-16.658-19.11 0.6349-21.156 10.998-16.687 16.084-18.736z" fill="#fff" opacity=".48"/>
  <path transform="matrix(.87474 0 0 1.1412 53.045 -16.716)" d="m243.69 256.42c-1.8484 3.0876 7.8372 0.8887 8.5613 0.30942-11.77 5.1735-18.336 5.7396-31.256 3.3002 4.2819 0.28446 3.8591-1.0601 4.9484-2.372 6.6175 1.9289 14.415 0.94186 17.746-1.2377z" fill="#333" filter="url(#cm)" opacity=".5"/>
  <path transform="matrix(.87474 0 0 1.1412 53.045 -16.716)" d="m227.29 252.09-2.1659-9.5918c9.7901-9.8904 16.698-3.4467 24.134 0l-8.0447-6.8071s10.514-0.35578 9.5918-1.2376c-3.3731-3.2268-18.482-4.8615-24.444-1.5471l7.4259-6.4977c-3.0251-2.1349-17.342 2.6723-15.78 12.686 0.63518 4.0708 3.3281-3.4793 9.2824 12.995z" fill="#333" filter="url(#cw)" opacity=".5"/>
  <path transform="matrix(.87474 0 0 1.1412 53.045 -16.716)" d="m218.93 246.52c5.5931 16.809 32.536 3.9766 32.488-10.211 4.1125 1.1764-7.7337 21.527-15.471 20.421-13.89-1.166-14.959-4.434-17.018-10.211z" fill="#b3b3b3" filter="url(#bv)"/>
  <path transform="matrix(.87474 0 0 1.1412 53.045 -16.716)" d="m242.14 225.48c-2.1659-0.30941-7.4259 0.61882-7.4259 0.61882l-1.2376 1.8565c4.6439-0.18618 9.0006-0.31495 9.5918 0.30941 3.8736 2.455 8.5238 3.2588 7.1165 12.995l1.8692-7.7074c-2.8878-4.9749-7.4674-6.502-9.914-8.0727z" fill="#b3b3b3" filter="url(#cq)"/>
  <path transform="matrix(.87474 0 0 1.1412 53.045 -16.716)" d="m229.48 248.98c-0.7944 0.88744-2.9375 1.7136 0.30941 2.7847 4.2512-1.0183 8.7825-3.1572 12.686-2.7847 2.3941-1.6774 1.1442-2.2616-0.30941-2.7847-4.2284 0.92837-7.2487 2.4608-12.686 2.7847z" fill="#4d4d4d" filter="url(#bx)" opacity=".5"/>
  <path transform="matrix(.87474 0 0 1.1412 53.045 -16.716)" d="m253.72 223.19c-0.47901 3.4643-2.3904 2.4402-1.347 10.653-1.7412-6.1747-7.6574-8.4933-9.6736-9.1838z" filter="url(#bk)" opacity=".75"/>
  <path transform="matrix(.87474 0 0 1.1412 53.045 -16.716)" d="m231.64 262.77 22.411-0.12753c-9.1836 1.5067 14.055 17.782-14.216 33.458 18.661-14.073 10.714-26.921 5.2171-32.022-4.9853-0.26006-14.264 1.1021-13.412-1.3085z" fill="#1a1a1a" filter="url(#bd)" opacity=".9"/>
  <path transform="matrix(.87474 0 0 1.1412 53.045 -16.716)" d="m244.49 264.73c17.289 24.562-16.107 35.245-26.825 21.552 2.9327 7.8524 21.013 12.024 27.823 3.3989 4.1018-4.5334 10.73-14.423-0.99799-24.951z" fill="#333" filter="url(#ba)"/>
  <path transform="matrix(.87474 0 0 1.1412 53.045 -16.716)" d="m217.9 282.26c2.6585-5.5657 6.5155-3.3411 10.1-2.8858 3.8327-4.5942 12.652-0.87738 19.118-1.0822l-8.2966-2.8858 7.9359-1.8036-9.3788-1.0822 9.7395-4.6894c-7.3178 2.2168-14.153 2.5037-22.365 8.2966-1.0705-3.1072 6.1779-6.9076 10.461-10.461-2.3968 1.1233-17.928-2.8729-17.315 16.593z" fill="#666" filter="url(#aq)" opacity=".8"/>
  <path transform="matrix(.87474 0 0 1.1412 53.045 -16.716)" d="m219.25 291.28c-2.8568-0.80299-2.5733 1.0109-2.5816 2.5816 0.1779 1.6025 0.77956 2.9225 3.8724 2.5816 0 0 1.6596-3.3192 1.6596-2.3972s8.6669 4.4257 8.6669 4.4257c5.1336 4.0401 8.1916 1.1612 11.986 0.73761 0.55116-1.9834-1.366-2.5562-4.2413-2.5816-13.748-0.4564-16.07-2.9902-19.362-5.3477z" fill="#666" filter="url(#at)"/>
  <path transform="matrix(.87474 0 0 1.1412 53.045 -16.716)" d="m214.53 227.34c-3.3594 4.4101 8.0712-2.5306 12.038-1.8965-12.533-0.14273-18.521 31.943 6.0502 37.151-13.901 0.25564-21.919 12.027-15.79 33.041l-4.2684-2.955c0.2852-21.718-2.9775-42.845 1.97-65.34z" fill="#4d4d4d" filter="url(#cs)" opacity=".84"/>
  <path d="m444.41 292.52c7.4382-0.2237 23.515-2.6346 23.515-2.6346l0.53713-1.6576 2.3192 0.0418-0.39424 1.134 7.3186-1.4491 0.56644-1.8154 2.3192 0.0418-0.44076 1.2944 7.9559-1.5764 0.53599-1.6435 2.3203 0.0277-0.39426 1.134 7.8003-1.5382 0.54044-1.6999 2.3192 0.0418-0.41477 1.1789 7.8862-1.5516-0.77847-0.0177 0.58813-1.8745 2.3203 0.0277-0.54538 1.5475 9.1434-1.8036-1.4732-0.0206 0.60519-1.8772 2.3203 0.0277-0.59194 1.708 4.598-0.91286c0.0566-2.5072 0.0843-4.0482 0.11878-5.8262l-1.7949-0.0263 0.60525-1.8772 1.2362 0.0158c0.055-3.0494 0.0806-5.1249 0.0856-6.2667l-2.1841-0.0351 0.4917-1.5113c-1.2053 0.56987-4.1686 0.0823-4.6047 1.4292-1.2904-0.16245-2.541 0.0935-3.8954 0.38537l0.66051 8e-3 -0.6556 1.8711-2.2699-0.0217 0.47232-1.4804-8.1214 1.7415 0.52537 1e-3 -0.63953 1.8826-2.2688-0.0358 0.45187-1.4354-8.5173 1.8173 1.3724 8e-3 -0.65667 1.8852-2.2517-0.0384 0.51881-1.6409-8.6717 1.8414 0.79554 0.015-0.65666 1.8852-2.2528-0.0243 0.47569-1.5227-7.9659 1.7033-0.61131 1.7389-2.2687-0.0358 0.74567-0.80573c-3.4933 1.2108-3.1574 0.90573-8.1762 2.8154-7.0726 1.505-9.6872 0.62648-15.622 3.258l-6.5582 2.5936s-0.78808 9.6661 1.6123 9.5538zm28.169-17.919 2.71-1.1997 0.1547 0.47384-2.0518 0.56769-0.42483 0.23917zm10.676-2.903 1.6382-0.35327-1.5247-0.0127zm10.31-2.1947 1.0171-0.2145-0.94782-0.0192-0.0694 0.23366zm9.5343-2.0318 1.9311-0.41293-1.7949-0.0261zm10.053-2.1545 1.7927-0.37739-1.6586-0.0334zm10.293-2.192 1.6382-0.35325-1.5236-0.0267zm1.6923 1.5463 0.0848 3.5e-4 0.65671-1.8852-0.76123-0.0204s0.0274 0.15647 0.0198 1.9049zm-0.0856 6.2667c-9e-3 0.50775-0.0355 1.312-0.0467 1.8874l0.47391 9e-3 0.65665-1.8852zm-4.7634 8.6265-0.86036 0.16223 0.79555 0.0151 0.0648-0.17726zm-10.004 1.9658-1.5845 0.31701 1.4732 0.0206zm-9.4707 1.8686-2.4448 0.47921-0.0661 0.19135 2.2688 0.0358 0.24196-0.70627zm-10.245 2.0174-2.462 0.4819-0.0694 0.23365 2.2688 0.0358 0.26245-0.75128zm-10.418 2.0583-2.4449 0.47922-0.0226 0.073 2.2688 0.0358 0.19876-0.58812zm-9.7635 1.9283-2.462 0.48187-0.0694 0.23368 2.2699 0.0217 0.26137-0.73716zm-16.143 2.8546-2.2688-0.0358 0.60524-1.8772 2.3203 0.0277zm9.8415-2.2747-2.2688-0.0358 0.58802-1.8745 2.3203 0.0277zm9.4734-2.1198-2.2688-0.0358 0.60636-1.8913 2.3192 0.0418zm-25.453 3.974-2.2688-0.0358 0.60636-1.8913 2.3192 0.0418zm35.941-6.0712-2.2517-0.0385 0.58917-1.8886 2.3192 0.0418zm-25.891 3.9449-2.2688-0.0358 0.60525-1.8772 2.3031 0.0305zm36.278-6.0402-2.2699-0.0215 0.60636-1.8913 2.3192 0.0418zm-26.789 3.723-2.27-0.0217 0.60634-1.8913 2.3203 0.0277zm36.598-5.7976-2.2517-0.0385 0.58918-1.8886 2.3192 0.0418zm-26.578 4.0521-2.2688-0.0358 0.60525-1.8772 2.3203 0.0277zm-25.679 3.8282-2.2516-0.0385 0.58808-1.8745 2.3203 0.0277zm62.321-10.19-2.2688-0.0358 0.60637-1.8913 2.3191 0.0418zm-26.242 4.0972-2.2688-0.0358 0.58913-1.8886 2.3192 0.0418zm35.807-5.8692-2.2688-0.0358 0.60526-1.8772 2.3203 0.0277zm-62.267 9.7219-2.2688-0.0358 0.60527-1.8772 2.3031 0.0303zm36.486-5.8776-2.2689-0.0358 0.60636-1.8913 2.3192 0.0418zm-26.452 3.754-2.2516-0.0384 0.58801-1.8745 2.3203 0.0277zm-25.789 3.943-2.2516-0.0385 0.58916-1.8886 2.3192 0.0418zm62.42-9.9407-2.2699-0.0217 0.58911-1.8886 2.3203 0.0277zm-26.46 3.8527-2.2699-0.0217 0.60636-1.8913 2.302 0.0444zm-26.132 3.9966-2.2689-0.0358 0.60526-1.8772 2.3031 0.0305zm62.281-9.9052-2.2517-0.0385 0.58918-1.8886 2.3192 0.0418zm-26.003 3.865-2.27-0.0217 0.60636-1.8913 2.3203 0.0277zm-26.231 3.7333-2.2516-0.0385 0.58807-1.8745 2.3203 0.0277zm36.616-5.8145-2.2688-0.0358 0.58808-1.8745 2.3203 0.0277zm-26.931 4.0238-2.2688-0.0358 0.60519-1.8772 2.3203 0.0277zm-25.884 3.8603-2.2689-0.0358 0.58922-1.8886 2.3192 0.0418zm62.395-9.8393-2.2688-0.0358 0.60526-1.8772 2.3031 0.0304zm9.6849-1.7907-2.2688-0.0358 0.58801-1.8745 2.3203 0.0277zm-36.018 5.5401-2.2688-0.0358 0.58918-1.8886 2.3192 0.0418zm-25.9 3.8489-2.2699-0.0217 0.60631-1.8913 2.3192 0.0418zm36.486-5.8776-2.2516-0.0385 0.58806-1.8745 2.3203 0.0277zm9.8195-1.9927-2.2688-0.0358 0.60524-1.8772 2.3203 0.0277zm-36.488 5.697-2.2516-0.0384 0.58808-1.8745 2.3203 0.0277zm46.188-7.671-2.2688-0.0358 0.60526-1.8772 2.3031 0.0303zm-36.36 5.5795-2.27-0.0217 0.60636-1.8913 2.3203 0.0277zm-25.573 3.9927-2.2699-0.0217 0.60632-1.8913 2.3203 0.0277zm36.277-6.0261-2.2688-0.0358 0.6052-1.8772 2.3203 0.0277zm9.8051-1.8094-2.2689-0.0358 0.60524-1.8772 2.3031 0.0303zm-36.251 5.4789-2.2517-0.0384 0.58922-1.8886 2.3192 0.0418zm46.046-7.3843-2.2699-0.0217 0.6063-1.8913 2.3192 0.0418zm-36.705 5.6472-2.2516-0.0384 0.58806-1.8745 2.3203 0.0277zm-25.325 3.8565-2.2688-0.0358 0.73554-2.7274 2.1728 0.88064zm71.743-11.661-2.2689-0.0358 0.60525-1.8772 2.3203 0.0277zm-35.682 5.5711-2.2688-0.0358 0.6052-1.8772 2.3031 0.0304zm-26.117 3.7992-2.2687-0.0358 0.60519-1.8772 2.3203 0.0277zm36.135-5.7253-2.2517-0.0385 0.58924-1.8886 2.3191 0.0418zm10.021-1.7597-2.2698-0.0215 0.60632-1.8913 2.3192 0.0418zm-36.471 5.6943-2.2699-0.0217 0.6063-1.8913 2.302 0.0444zm46.199-8.0349-2.2688-0.0358 0.6052-1.8772 2.3203 0.0277zm-36.025 5.6246-2.2688-0.0358 0.60521-1.8772 2.3203 0.0277zm45.813-7.4314-2.2516-0.0385 0.58806-1.8745 2.3203 0.0277zm-35.905 5.6059-2.2688-0.0358 0.60521-1.8772 2.3203 0.0277zm10.237-1.6958-2.2699-0.0217 0.6063-1.8913 2.3203 0.0277zm-36.234 5.4762-2.2688-0.0358c0.53864-0.81183 0.80529-1.8745 2.9083-1.8468zm46.058-7.7482-2.2528-0.0243 0.58924-1.8886 2.3203 0.0277zm-36.351 5.6756-2.2699-0.0217 0.32847-2.3988 2.581 0.53791zm10.032-2.1095-2.2688-0.0358 0.60635-1.8913 2.3192 0.0418zm35.81-5.6885-2.2688-0.0358 0.60519-1.8772 2.3203 0.0277zm-25.453 3.974-2.2688-0.0358 0.60521-1.8772 2.3203 0.0277zm10.033-2.1236-2.2517-0.0384 0.58808-1.8745 2.3202 0.0277zm9.5049-2.3057-2.2688-0.0358 0.60631-1.8913 2.3192 0.0418zm9.8051-1.8094-2.2689-0.0358 0.58813-1.8745 2.3203 0.0277z" fill="url(#p)"/>
  <path d="m553.28 194.76c9.2192 1.8623 14.329 0.34841 15.069-4.4303-2.6363-6.5086-12.779-2.51-18.889-1.1076-12.31 2.7257-11.822 8.1578-12.31 13.568-1.1303 18.826-2.6552 36.366-2.1705 60.459 5.6029 7.709 12.41 6.0971 17.451 5.1648-5.882-3.7926-10.879-6.8187-13.562-13.614-4.7115-11.931-1.2398-20.361 4.648-22.936-3.9598-0.65793-1.7502-7.7907-1.0612-12.183-6.1734-16.142 5.5914-26.786 10.824-24.921z" fill="#e6e6e6"/>
  <path transform="matrix(.93673 0 0 1.1746 11.665 -26.866)" d="m586.59 231.85c0 8.0375-6.0401 14.553-13.491 14.553s-13.491-6.5157-13.491-14.553 6.0401-14.553 13.491-14.553 13.484 6.5078 13.491 14.54" fill="#fff"/>
  <path d="m562.65 211.84c0 8.0306-6.3638 11.221-12.341 11.449-7.2529 0.27689-9.5746-5.661-9.5746-13.692s5.5114-14.912 11.485-14.559c9.3715 0.5538 9.5694 4.5364 11.06 10.901" fill="#fff"/>
  <path transform="matrix(.87474 0 0 1.1412 53.045 -16.716)" d="m556.56 199.34c7.4638-3.7298 17.55-2.7401 28.329-0.5014-3.6312-21.448-25.967-18.577-28.329 0.5014z" fill="#b3b3b3" filter="url(#cy)" opacity=".5"/>
  <path transform="matrix(.87474 0 0 1.1412 53.045 -16.716)" d="m575.96 231.21c-0.72254 3.5889-1.7763 6.3336-4.5411 8.6971 0.17533 1.0575 0.12552 2.3401-0.91691 4.6153 4.4784-2.2244 7.2929-5.6251 10.615-10.161z" fill="#808080" filter="url(#ao)" opacity=".5"/>
  <path d="m553.07 195.04c4.8079 0.53788 9.5095 3.904 9.9751 13.014-1.458 15.075-12.939 17.919-20.162 12.46-1.7519 2.0449-2.6932 8.582-0.42447 11.63 4.6947-0.82286 5.8993-0.65786 8.7789-0.35429 15.093 1.5911 6.4543 43.474-11.15 25.709-1.3324 0.91796 0.56538 0.76211-0.61295 1.1119 13.006 18.829 24.213 4.5137 24.807-3.4074 1.7859-12.475 1.4699-23.822 2.1933-35.203 1.6496-9.9373 0.94263-19.688 1.6643-29.667-2.3238 8.8889-9.9751 3.0458-15.069 4.7072z" fill="#ececec"/>
  <path transform="matrix(.87474 0 0 1.1412 53.045 -16.716)" d="m588.65 182.55-4.2619 49.89c-0.43304-4.3987-0.47254-9.5844-1.5042-12.786-0.91924-2.9156-1.8385-1.6377-2.7577 0.75211 1.5575 11.398-3.3531 21.376-9.7774 24.067 14.451-13.085 8.9828-26.202 1.5042-27.577 5.2438-1.1595 10.862-1.7568 13.538-6.769l0.81045-19.542-2.3146-1.0157-0.0969 5.7363c-1.3174-5.3832-3.3518-7.6477-5.9406-8.1963l-2.5735-1.3187 11.511-1.4918 0.1081-1.9998z" fill="#4d4d4d" filter="url(#co)" opacity=".75"/>
  <path transform="matrix(.87474 0 0 1.1412 53.045 -16.716)" d="m559.32 207.37c1.2598 0.98859 2.6457 1.7261 4.1085 2.2173 3.5973 1.208 7.6596 0.92684 11.455-0.77147 2.4938-1.1159 5.6291-0.42517 8.7545 0.0584-1.6209 3.4431-4.2105 6.5632-11.783 8.0225l-15.544 1.5042c0.86646-3.8678-0.82805-11.321 3.0084-11.031z" fill="#808080" filter="url(#cl)" opacity=".75"/>
  <path transform="matrix(.87474 0 0 1.1412 53.045 -16.716)" d="m559.57 209.12c0.50141 1.0028 8.0225 5.5154 8.0225 5.5154-1.3248 0.93154-3.2857 1.2269-5.2647 1.5042l-6.5183-4.0112z" fill="#fff" filter="url(#bt)" opacity=".5"/>
  <path transform="matrix(.87474 0 0 1.1412 53.045 -16.716)" d="m578.87 197.59c-1.54 5.7-3.7236 10.231-12.535 13.287 5.3396-0.68597 9.4494-3.8315 12.786-8.5239l-6.0168 7.7718c3.2744-1.6741 5.0998-0.0683 10.279-12.535z" fill="#b3b3b3" filter="url(#cx)" opacity=".5"/>
  <path transform="matrix(.87474 0 0 1.1412 53.045 -16.716)" d="m567.84 187.06c5.1691 0.0413 11.619 2.3988 12.786 7.7718-1.4636-7.8763-6.5176-8.9298-12.786-7.7718z" fill="#fff" filter="url(#ct)"/>
  <path transform="matrix(.87474 0 0 1.1412 53.045 -16.716)" d="m570.6 248.48c6.3673-0.93617 7.3719-4.1706 9.276-7.0196l0.50141-7.5211c2.1019 2.05 2.971-0.21455 3.7605-2.7577l-0.2507 10.529c-4.4291 4.813-8.8581 9.175-13.287 6.769z" fill="#333" filter="url(#br)" opacity=".75"/>
  <path transform="matrix(.87474 0 0 1.1412 53.045 -16.716)" d="m553.99 234.38 1.2294-2.7661c-3.3796-7.6077 2.675-10.221 5.6859-14.445-6.8481 2.7652-11.053 10.075-6.9153 17.211z" fill="#333" filter="url(#au)" opacity=".5"/>
  <path transform="matrix(.87474 0 0 1.1412 53.045 -16.716)" d="m562.91 220.55 2.6125 2.4588c4.2591-1.4149 3.784 0.21891 5.6859 0.76837l-1.8441-3.3808c-2.6683-0.98247-4.5914-0.47464-6.4543 0.15368z" fill="#fff" filter="url(#av)" opacity=".5"/>
  <path transform="matrix(.87474 0 0 1.1412 53.045 -16.716)" d="m557.21 185.34c8.5501-3.9888 17.862-4.929 27.08-6.2491 3.698 1.5689 2.2747 2.4976 0.52076 3.3849-10.863-1.0829-20.809 0.32402-28.902 7.551-1.6469-0.42126-2.9728-3.5864 1.3019-4.6868z" fill="#fff" filter="url(#am)"/>
  <path transform="matrix(.87474 0 0 1.1412 53.045 -16.716)" d="m553.8 234.14c6.3926-5.5472 14.7-5.7748 24.781-1.0774 5.0306-30.62-34.342-19.835-24.781 1.0774z" fill="#808080" filter="url(#ar)" opacity=".5"/>
  <path transform="matrix(.87474 0 0 1.1412 53.045 -16.716)" d="m586.16 180.54c1.0845 0.5295 3.009-0.3411 2.5494 2.7619-3.9498 4.1396-10.92 2.0252-16.996 1.9121-8.325 1.8397-18.095 4.1881-11.897 22.733-3.6042 5.2722-0.9575 7.4189-0.42491 10.623-4.3895 2.1854-8.243 5.1299-5.9487 16.784 1.4683 5.9346 13.366 11.047 17.474 14.528-3.8993-0.78678-9.3608-2.9358-17.687-9.0046l0.63737 2.1246 1.4872 3.1868-3.8929-4.7012 2.9264-44.163c2.7035-6.4374 6.9028-11.905 17.538-13.81 7.1006-0.052 15.402 0.88403 14.234-2.9744z" fill="#333" filter="url(#bs)" opacity=".75"/>
  <path d="m220.69 329.19c2.7 6.3032 0.24281 12.606 8.6964 18.91 3.704 0.73101 7.8912 3.306 11.595 5.6729 3.0598 8.0535 6.1197 13.783 9.1795 15.128l33.819-3.7819 98.076-11.346 3.865 2.5213 61.841-14.497 0.96627-3.7819c37.171-19.835 58.62-29.415 87.93-44.123 3.8286-1.9221 13.219-7.7733 16.1-5.4147 6.0735 0.69822 15.044-18.925 14.018-23.58l-2.2231-10.085c-0.69218 4.9913-6.1226 14.868-13.274 13.32-19.996-4.3288-13.409-5.7854-26.699-1.3441-21.84 8.5337-42.194 15.129-62.807 22.061-9.6208 2.5986-12.409 4.3986-19.808-0.63032l-8.2132 3.1516-8.6964 0.63031c-4.5568 4.029-8.7453 6.9938-18.412 9.3563-40.346 7.3316-94.781 11.564-127.23 13.456-3.4782 15.712-18.138 19.419-18.138 19.419-4.5202 0.70309-12.499-1.7734-22.307-10.399-11.736-8.6944-5.5394-5.7059-10.063-8.5105l3.865 24.583z" fill="#ccc"/>
  <path transform="matrix(.87474 0 0 1.1412 53.045 -16.716)" d="m584.28 242.46c2.0285 0.88486 0.49576 10.234-6.0087 13.468-6.5806 3.2713-19.632-5.8333-21.517-4.891-11.125-3.564-63.442 15.515-100.94 21.621-6.7802-0.2569-9.2487-2.2761-8.0196-2.4567 13.012 3.8533 68.071-15.675 101.91-23.313 13.42 1.3697 18.351 9.3997 25.953 4.2447s8.6248-8.6728 8.6248-8.6728z" fill="#fff" filter="url(#ce)" opacity=".5"/>
  <path transform="matrix(.87474 0 0 1.1412 53.045 -16.716)" d="m435.48 273.68-0.11332 16.876c-32.618 4.8823-112.87 9.3254-156.91 12.542-11.488 0.83911-15.961-0.94969-14.496 9.3669-23.563 21.229-55.531 19.075-62.073-20.379 1.8546 2.8039 39.968 37.297 59.451 5.0455 108.27-8.1733 133.63-11.538 161.22-18.032 0.80262-6.1319 9.4522-3.3537 12.923-5.4206z" fill="#999" filter="url(#cc)"/>
  <path d="m433.01 315.29c-46.924 6.399-96.27 9.6379-144.41 14.445-3.8105 1.0781-7.3035 9.6045-0.32091 11.514l100.45-6.4897c0.86873-1.4481 0.43022-3.2373 3.2092-4.1869 21.569-5.1594 41.91-9.7591 60.353-14.77 24.416-10.796 48.132-22.649 67.757-28.801 3.3145-5.7094 2.3555-6.3918 0.41889-8.3466z" fill="#1a1a1a"/>
  <path transform="matrix(.87474 0 0 1.1412 53.045 -16.716)" d="m214.07 300.36c1.3411 1.8215 14.301 13.529 31.611 10.493 10.641-4.466 11.056-8.5856 16.805-14.563 55.372-4.2332 113.83-6.5545 158.27-17.558 2.83-7.0208 9.8857-4.1065 16.184-5.181-3.3311-0.62766 7.0004-2.8194 9.776-4.1256l-2.4491-1.9593-9.3824 3.56-10.624 0.28281c-3.9519 2.5095-6.228 4.9656-13.791 6.4434-43.401 9.571-97.059 11.083-147.59 15.053-5.7269 5.0795-11.075 11.297-20.421 14.826-10.325 2.928-18.545-3.3072-28.389-7.2715z" fill="#fff" filter="url(#cd)" opacity=".8"/>
  <path d="m433.57 296.6 9.3453-4.5533c0.71613-1.046 0.0534-1.089-0.55693-2.5677 1.0948 1.0398 2.3105 2.133 3.7105 2.264-1.7128 0.19162-1.4864 0.86189-0.0971 2.5191 12.805 3.1515 53.216-15.636 77.477-23.147 8.2803-2.7597 16.13-4.2365 22.029 0.10682 13.765 8.613 19.715 2.6809 19.09-15.239-0.0743 0.85777 1.5174 5.4869 2.3424 10.007-1.3219 4.3702-1.502 8.1988-5.3881 13.134-10.39 11.407-24.042 7.464-34.233 2.7351-2.112-0.9801-5.6504 2.2045-5.6504 2.2045 1.1911-5.497-1.9889-5.02-1.9889-5.02l-86.245 36.043z" fill="#b3b3b3"/>
  <path transform="matrix(.87474 0 0 1.1412 53.045 -16.716)" d="m260.01 311.28c0.71961-5.2554 5.3886-8.5709 9.4492-9.8171-5.2123-2.3502-12.967 4.0156-9.4492 9.8171z" fill="#fff" filter="url(#as)"/>
  <path transform="matrix(.87474 0 0 1.1412 53.045 -16.716)" d="m376.53 323.34 4.4858 3.6373 3.1055-19.111-115.25 5.7519c-1.1147 0.0911-4.3376-1.1328-4.5152-3.2311-34.153 33.812-56.587 4.2654-61.79-10.882l4.221 15.317-14.254-10.778c2.033 4.9485 0.43766 7.1834 8.7857 13.854l14.519 6.185c2.4826 6.1031 5.0854 10.664 9.4753 12.953z" fill="#b3b3b3" filter="url(#ap)"/>
  <path d="m388.93 335.99s0.88977 0.96737-0.14829 0.96737-102.32 6.1912-102.32 6.1912c-2.06-1.9504-2.6064-4.3193-1.9278-6.9651 0.0165 3.0679 1.5442 5.2198 5.1903 5.0303l99.358-6.7716z" fill="#808080"/>
  <path transform="matrix(.87474 0 0 1.1412 53.045 -16.716)" d="m376.49 324.66 6.5497-12.333-2.7171 14.245z" fill="#808080" filter="url(#b)"/>
  <path transform="matrix(.87474 0 0 1.1412 53.045 -16.716)" d="m531.77 266.72c-0.0512 1.0054 1.3656 2.2478-1.4492 3.002l-72.317 24.576c-1.2634-0.75163-2.2833-2.3111-0.64015-3.1898 23.975-8.0181 53.295-19.363 74.406-24.388z" fill="#808080" filter="url(#bl)"/>
  <path transform="matrix(.87474 0 0 1.1412 53.045 -16.716)" d="m443.61 258.99-0.31197 5.9273c-0.40677-4.8696 19.71-5.981 29.529-8.735-10.928 1.6801-24.378 3.446-29.217 2.8077z" fill="#ccc" filter="url(#an)" opacity=".6"/>
  <path transform="matrix(.87474 0 0 1.1412 53.045 -16.716)" d="m55.892 133.16c3.9711-6.6984 13.486 26.442 22.731 41.13l-0.7882-2.7587-12.861-28.92c-6.1685-18.052-12.999-7.5714-9.0817-9.4515z" fill="#fff" filter="url(#ai)" opacity=".6"/>
  <path transform="matrix(.87474 0 0 1.1412 53.045 -16.716)" d="m79.608 175.67c-4.9787-15.275-8.2366-24.658-11.65-39.481-5.653-10.926-10.19-7.9605-13.789-5.0081 4.7353-0.39574 6.0943-1.4932 8.9958 6.5042 4.289 11.822 9.7243 24.115 16.443 37.985z" fill="#2d0032" filter="url(#bh)" opacity=".8"/>
  <path transform="matrix(.87474 0 0 1.1412 53.045 -16.716)" d="m73.998 189.86c-1.6373 5.2458-3.5581-0.67189-4.9677-3.5188 1.4068 4.8143 4.4447 12.749 4.9677 3.5188z" fill="#4d4d4d" filter="url(#b)" opacity=".75"/>
  <path transform="matrix(.87474 0 0 1.1412 53.045 -16.716)" d="m65.615 169.16c-0.08381 5.2058 2.4273 30.644 6.3131 30.531 1.2419 0.31049 3.3118-6.3131 3.3118-6.3131-4.9517 22.923-10.96-12.934-9.625-24.218z" fill="#fff" filter="url(#al)"/>
  <path transform="matrix(.87474 0 0 1.1412 53.045 -16.716)" d="m185.82 298.6c-20.369-64.42-35.016-87.081-45.302-80.341 18.046-19.266 34.447 27.466 45.302 80.341z" fill="#381138" filter="url(#ak)"/>
  <path d="m123.92 76.144c11.895-34.935 26.412-47.577 41.362-48.137 32.853-4.4977 91.985-12.949 142.91-6.9917 21.985 1.3075 40.2 9.4423 53.292 16.314-64.087 1.0615-122.18 2.8477-184.17 13.005-4.385-5.3022-27.794-14.551-32.01-9.3498-5.6015 6.9096-11.432 28.375-19.32 42.567-1.9912 1.7518-2.476-5.4202-2.063-7.4076z" fill="#501644"/>
  <path transform="matrix(.87474 0 0 1.1412 53.045 -16.716)" d="m144.09 58.594c65.853-7.3228 137.24-11.842 205.93-11.87 2.2485-0.05144-6.0654-3.0242-9.8513-3.2178-69.498-4.033-135.51 3.4764-197.05 10.468-10.022-0.24026-0.24018 4.2462 0.96942 4.6198z" fill="#000303" filter="url(#ae)" opacity=".5"/>
  <path transform="matrix(.87474 0 0 1.1412 53.045 -16.716)" d="m183.28 293.09-9.072-24.702c-7.8921-19.512-20.23-52.46-35.134-48.049 14.948-13.775 35.397 43.907 44.206 72.75z" fill="#999" filter="url(#aj)" opacity=".75"/>
  <path d="m181.52 51.821c60.788-8.3487 119.77-12.575 178.5-11.586l39.075 65.655-1.4801 1.931-210.18 21.241-6.8085-8.4966z" opacity=".75"/>
  <path d="m179.31 52.721-0.63407 68.008c0.15358 9.1407 7.4176 11.806 10.873 11.161 73.712-8.7661 140.84-15.473 210.23-21.957 1.0472-0.38948 1.4709-5.3913-0.67452-8.2046l-36.587-59.651-2.8463-0.67518 36.226 60.429c1.5513 2.9924 1.1207 4.4333-0.77627 4.7263-69.174 6.8645-142.59 15.083-204.94 20.931-3.5926-0.21332-7.0042-3.2842-7.3618-7.0894l-0.14217-67.856z" fill="#f9f9f9"/>
  <g transform="matrix(.48358 0 0 .70673 717.16 -22.913)">
   <path d="m-904.87 206.24c0 1.8076-1.4653 3.2729-3.2729 3.2729s-3.2729-1.4653-3.2729-3.2729 1.4653-3.2729 3.2729-3.2729 3.2713 1.4636 3.2729 3.27" fill="#fff"/>
   <g transform="matrix(.99897 .04532 -.04532 .99897 9.0922 43.409)" fill="#f9f9f9">
    <path d="m-967.65 196.63c-44.92-3.1111-96.439 3.8829-122.13 14.565-1.9167-0.76982-1.1734-1.669-0.1543-2.1968 21.275-7.0026 41.78-12.914 68.927-15.188 17.933 0.31162 35.543-0.29981 53.464 0.33431 1.0838 0.53249 1.2786 1.5733-0.11016 2.4854z"/>
    <path d="m-910.43 201.75c-37.828-2.2013-74.894-3.847-110.65-7.7151-0.6203 0.8319-2.3401 1.2712-0.4018 3.0167 38.013 1.9409 74.864 5.9826 112 9.4089 3.303 0.53061 6.548-3.7668-0.95557-4.7106z"/>
   </g>
  </g>
  <g transform="matrix(.48358 0 0 .70673 717.16 -22.913)">
   <path d="m-730.44 193.54c0 1.8076-1.4653 3.2729-3.2729 3.2729s-3.2729-1.4653-3.2729-3.2729 1.4653-3.2729 3.2729-3.2729 3.2713 1.4636 3.2729 3.27" fill="#fff"/>
   <g transform="matrix(.99994 .01054 -.01054 .99994 3.5391 9.6918)" fill="#f9f9f9">
    <path d="m-794.85 184.17c-45.969-0.53607-90.407 1.542-122.39 7.0741-1.9167-0.76982-2.4845-1.9031-1.4654-2.4309 20.488-3.7253 44.14-5.4232 71.287-7.697 17.933 0.31163 35.019 0.63658 52.677 0.56842 1.0838 0.53248 1.2786 1.5733-0.11016 2.4854z"/>
    <path d="m-736.86 189.03c-37.828-2.2013-74.894-3.847-110.65-7.7151-0.6203 0.8319-2.3401 1.2712-0.40184 3.0167 38.013 1.9409 74.864 5.9826 112 9.4089 3.303 0.53061 6.548-3.7668-0.95559-4.7106z"/>
   </g>
  </g>
  <path d="m420.23 102.15c0.14189 5.4658-3.1938 10.044-7.4505 10.227s-7.8224-4.1011-7.9643-9.5669 3.1938-10.044 7.4505-10.227c4.1897-0.17933 7.7236 3.9718 7.9567 9.3462" fill="#f2f2f2"/>
  <path transform="matrix(.87474 0 0 1.1412 52.402 -17.22)" d="m405.93 111.43c4.7146-2.3285 6.3741-5.879 9.5612-8.8186 2.0349-1.0684 3.3295-0.65626 4.6413-0.27848 2.7159 9.9458-8.3411 14.154-14.203 9.097z" fill="url(#j)" filter="url(#ab)" opacity=".5"/>
  <path transform="matrix(.87474 0 0 1.1412 52.402 -17.22)" d="m405.19 110.68c0.92597-2.323 2.1788-4.5346 3.9887-5.4739 1.0256-1.1895-4.3968-2.4758-5.3854-4.3034-1.4164 2.9578-1.2795 7.1115 1.3967 9.7773z" fill="url(#i)" filter="url(#b)" opacity=".775"/>
  <path transform="matrix(.87474 0 0 1.1412 52.402 -17.22)" d="m403.79 101.07c0.46115 0.6251 0.64741 0.9763 1.7605 1.3924 1.68-7.3086 10.282-5.6787 13.838-0.60031-2.459-5.4294-11.485-8.5774-15.598-0.79213z" fill="url(#h)" filter="url(#ad)"/>
  <path d="m182.45 52.767c57.193-11.562 119.42-13.61 176.62-11.623 0 0 32.326 52.198 30.076 50.498-15.779-11.932-168.57 4.3563-205.77 30.446z" fill="url(#o)"/>
  <path transform="matrix(.87474 0 0 1.1412 53.045 -16.716)" d="m137.32 236.81c-6.6482-0.68263-37.095-38.505-56.293-59.872 22.687 29.502 44.295 56.076 65.729 84.602-3.6878-7.2671-9.3279-17.137-9.4364-24.73z" fill="#ccc" filter="url(#ag)" opacity=".5"/>
  <path d="m107.91 77.756 15.397-0.08511c3.0273 11.402 6.9706 22.343 14.484 31.494-1.2341 2.3694-3.9854 0.77984-8.351-5.022-9.0594-12.715-13.711-19.096-21.53-26.387z" fill="url(#n)"/>
  <path transform="matrix(.87474 0 0 1.1412 53.045 -16.716)" d="m127.06 138.23c-12.278-9.1051-24.11-18.338-38.881-26.731-16.571-19.306-22.81-22.928-32.504-29.236-1.3299-1.1133-4.2632 2.8836 0.56593 4.5884 12.397 6.6283 19.85 17.707 28.814 27.425 14.555 9.0362 27.555 18.694 40.27 28.467 2.7984 2.5285 6.8752-4.3544 1.7358-4.513z" fill="#fff" filter="url(#ah)" opacity=".5"/>
  <path transform="matrix(.87474 0 0 1.1412 53.045 -16.716)" d="m63.117 83.148c11.295 7.4988 19.563 18.644 29.932 27.719 1.5569 0.2893 3.076 0.46542 4.2946-0.26028l-0.78785-0.59053-2.9862-0.0602c-0.47936-0.01-19.007-20.578-29.411-27.069-1.8146-0.52475-1.1761-0.02732-1.0411 0.26028z" fill="#fff" filter="url(#v)"/>
  <path d="m154.36 42.429c-2.98 13.769-3.8663-1.6066-13.39 67.432-5.6632-5.5629-10.022-14.812-14.283-24.341 0.42338-3.3142 21.189-50.804 20.888-44.955-0.03 0.58101 6.7843 1.8634 6.7843 1.8634z" opacity=".75"/>
  <path d="m155.64 42.541 19.187 8.5439-1.3787 85.139-32.399-26.831c9.0703-69.595 14.591-66.852 14.591-66.852z" opacity=".75"/>
  <path d="m155.33 42.653c-6.9672 20.659-10.912 41.824-13.153 67.055l-1.7112-0.17625c1.0866-18.566 4.9727-46.81 13.415-67.204z" fill="#ccc"/>
  <path d="m175.84 52.33-1.1929 87.113-2.8931-2.5023c0.43349-30.052 0.47803-61.921 1.469-87.246z" fill="#ccc"/>
  <path d="m125.26 83.43 3.1398 1.5756c-0.14425 3.8239 5.2037 13.354 12.076 23.003l31.399 23.003 1.2076 7.2476c-10.498-10.035-22.6-18.847-35.022-28.045-7.9054-11.776-11.312-20.031-12.801-26.785z" fill="#ececec"/>
  <path d="m176.9 50.485c12.898-3.908 106.6-15.466 185.66-12.591l2.7574 3.2976c-64.172-1.537-123.1 3.7484-188.42 11.991z" fill="#ececec"/>
  <path d="m179.03 50.624c-8.9753-5.1935-10.963-9.9761-30.585-11.625-5.5348-0.57944-15.153 30.459-22.641 45.164l2.2421 1.0205c9.2586-16.701 14.038-42.676 20.882-41.773 12.684-0.22137 17.409 5.7885 26.426 9.2547 3.3043 1.2074 4.4059-0.15247 3.6755-2.0414z" fill="#e6e6e6"/>
  <path d="m146.45 42.883c8.211-2.6146 21.181 2.8693 26.592 9.4952l-1.3996 47.841-40.589-20.451c4.7586-8.5075 6.4382-24.873 15.396-36.885z" fill="url(#m)"/>
  <path d="m172.41 46.802c51.354-10.111 108.75-13.551 165.53-18.204l-27.783-7.2635c-57.553-6.879-100.59 1.6809-150.61 7.5431-23.035 6.4943-32.615 39.291-36.009 48.929-0.0639 0.41671 0.75628 8.6514 2.1368 6.0714 12.39-23.156 17.014-46.983 24.369-44.845 17.769 2.4122 19.937 6.1761 22.365 7.7683z" fill="url(#l)" opacity=".25"/>
  <path transform="matrix(.48358 0 0 .70673 550.29 10.044)" d="m-870.27727,157.92263c0,0-.3912,5.10646 1.0727,7.83102 .012.0114.027.0238.038.0354 .0004.0126.011.0311.019.041l-.7375.81283c.01.16272.09.81901.1143.93154 .2142.56166 1.261,1.35083 1.8393,1.57376 1.1757.24959.942-.70013.962-1.00406 .046-.21914.048-.33925.068-.49157 .038.0292.078.0771.117.10613l.019.0411c.1481.0947-.5307.77385 1.6782,1.94 3.5059,2.59417 6.0826,4.46579 9.5791,6.37635 3.0652-.37426 8.4545-1.30152 6.7351-5.24436-.4612-1.05765-4.4778-3.27205-4.4778-3.27205-.8579.69453-1.9754,1.47382-2.8043,2.72868l-10.2238-6.39826c-.3582-4.16957-.135-2.75735-.5705-4.30588l-3.1369-1.55444c0-.0324 0-.06-.014-.0912-.015.003-.016.0413-.029.0561l-.2472-.11421z" filter="url(#b)" opacity=".5"/>
  <path d="m129.54292,121.21185c0,0-1.38256,2.34438-1.12931,3.82741l.0164.0202-.21529.34301c-.0334.0769-.0247.16597-.0329.22195 0,.29339.23695.68166.53.86763 .21974.13946.39973.11936.4803-.0202 .0768-.0962.10295-.15331.14904-.22194 1.52246,1.80313 3.60327,3.61254 4.96862,5.12502 1.90459.25664 5.19744,1.02052 5.06794-1.06939-.0348-.56062-1.9204-2.16563-1.9204-2.16563-.66638.20452-1.49398.42326-2.26974.89446l-4.63742-4.439c.72997-2.00432.55395-1.31929.64525-2.10634z" fill="#ccc"/>
  <path transform="matrix(.52998 0 0 .64567 138.19 60.997)" d="m-15.882 94.006c-1.1149 0.51614-1.5469 2.4641-1.7934 4.5205-0.04352 0.36314-0.84799 1.2181-0.86953 1.5185-0.03339 0.53233 0.68485 1.2056 1.3952 1.0911 0.52793-0.76524 0.84019-1.0573 1.2071-0.62038 1.5427 1.8374 7.2562 5.9434 9.3332 7.7557 0.03919-0.0296 5.036 1.5879 7.7034 0.14265 1.0188-0.98625 1.0244-2.0424-1.6168-3.281-1.4685-1.1474-3.961 0.57235-5.9915 0.99858l-8.9397-7.7509c0.96573-1.1396 1.342-2.2549 1.2839-3.2811-0.40168 0.16433-1.156-0.54338-1.7118-1.0937z" fill="#e6e6e6" filter="url(#dc)"/>
  <path transform="matrix(.52998 0 0 .64567 138.19 60.997)" d="m-16.358 100.47 9.5579 7.6558c2.7751 0.48856 7.9532 1.8168 8.9872-1.5692-0.11529 0.92202-3.5731 3.3696-9.4794 2.2589-3.1518-2.7104-6.1999-5.1356-9.3035-7.6322z" fill="#fff" filter="url(#db)"/>
  <path transform="matrix(.52998 0 0 .64567 138.19 60.997)" d="m-17.97448,101.23432c-.3352-.78959-.44175-1.55755.33286-2.23492-.65037-2.38248.99276-3.62041 1.62736-5.6174-.59733-.02458-2.6461,4.43731-2.38818,5.85516-.40777.4327-.08872,1.66881.42796,1.99716z" fill="#fff" filter="url(#da)"/>
  <path transform="matrix(.48358 0 0 .70673 550.29 10.044)" d="m-710.88 184.4 44.58-8.5636 103.56 5.3374c2.2375-0.19657 2.7081-1.8907 1.0556-3.8727l-97.759-2.639 31.2-0.82139c4.1304-1.2316 4.3119-1.5262 1.6395-2.7578-39.323-0.12034-73.803 9.0417-84.277 13.317z" fill="#fff" filter="url(#e)" opacity=".3"/>
  <path transform="matrix(.48358 0 0 .70673 550.29 10.044)" d="m-667.93 216.59c67.268-7.718 134.65-15.359 200.25-24.188l19.142 13.451c-17.18-8.3834-9.2684 3.0919-58.962 1.5997-31.404 4.9245-45.145 5.4761-64.684 3.5738-25.169 1.5278-50.285 2.8928-76.567 7.7602-23.866 1.8885-16.267-0.94268-19.182-2.1968z" filter="url(#aa)" opacity=".25"/>
  <path transform="matrix(.48358 0 0 .70673 550.29 10.044)" d="m-475.29 159.46c-8.6303-2.0193-7.4886 7.1295-8.5793 13.727 13.757 13.531 32.982 22.688 52.334 31.743l-7.2924-19.303c-10.933-7.5014-24.308-17.445-36.462-26.167z" filter="url(#z)" opacity=".25"/>
 </g>
</svg>
