<?xml version="1.0" encoding="UTF-8"?>
<svg viewBox="0 0 300.79999 143.38284" xmlns="http://www.w3.org/2000/svg" xmlns:xlink="http://www.w3.org/1999/xlink">
 <defs>
  <filter id="bb">
   <feGaussianBlur stdDeviation=".2745"/>
  </filter>
  <filter id="bc">
   <feGaussianBlur stdDeviation="1.4727"/>
  </filter>
  <filter id="ba">
   <feGaussianBlur stdDeviation="2.2497"/>
  </filter>
  <filter id="az">
   <feGaussianBlur stdDeviation=".5624"/>
  </filter>
  <filter id="a"/>
  <filter id="bd" x="-.08086" y="-.2621" width="1.1617" height="1.5242">
   <feGaussianBlur stdDeviation="7.9299"/>
  </filter>
  <filter id="u" x="-.1388" y="-.10797" width="1.2776" height="1.2159"/>
  <linearGradient id="d">
   <stop stop-color="#fff" offset="0"/>
   <stop offset="1"/>
  </linearGradient>
  <linearGradient id="c">
   <stop stop-color="#333" offset="0"/>
   <stop offset="1"/>
  </linearGradient>
  <linearGradient id="s">
   <stop stop-color="#4d4d4d" offset="0"/>
   <stop offset="1"/>
  </linearGradient>
  <linearGradient id="e">
   <stop stop-color="#666" offset="0"/>
   <stop offset="1"/>
  </linearGradient>
  <linearGradient id="t">
   <stop stop-color="#f5cf9d" offset="0"/>
   <stop stop-color="#efb466" offset="1"/>
  </linearGradient>
  <linearGradient id="r">
   <stop stop-color="#eee" offset="0"/>
   <stop offset="1"/>
  </linearGradient>
  <linearGradient id="b">
   <stop stop-color="#fff" offset="0"/>
   <stop stop-color="#fff" stop-opacity="0" offset="1"/>
  </linearGradient>
  <linearGradient id="ay" x1="368.62" x2="368.86" y1="576.41" y2="564.77" gradientUnits="userSpaceOnUse">
   <stop stop-color="#ccc" offset="0"/>
   <stop stop-color="#808080" offset=".4163"/>
   <stop offset="1"/>
  </linearGradient>
  <linearGradient id="ax" x1="327.38" x2="330.03" y1="525" y2="522.47" gradientUnits="userSpaceOnUse">
   <stop offset="0"/>
   <stop stop-color="#4d4d4d" offset="1"/>
  </linearGradient>
  <linearGradient id="aw" x1="329.18" x2="333.88" y1="523.68" y2="517.89" gradientUnits="userSpaceOnUse">
   <stop offset="0"/>
   <stop stop-color="#b3b3b3" offset="1"/>
  </linearGradient>
  <linearGradient id="q" x1="986.22" x2="216.73" y1="1019.8" y2="202.36" gradientTransform="matrix(.00225 .00070762 -.00070762 .00225 380.16 476.02)" gradientUnits="userSpaceOnUse" xlink:href="#b"/>
  <linearGradient id="p" x1="221.35" x2="532.86" y1="69.929" y2="529.76" gradientTransform="matrix(.00204 .00064179 -.00064179 .00204 380.2 476.12)" gradientUnits="userSpaceOnUse" xlink:href="#b"/>
  <linearGradient id="o" x2="0" y1="476.8" y2="477.73" gradientUnits="userSpaceOnUse" xlink:href="#b"/>
  <linearGradient id="n" x1="158.83" x2="158.99" y1="138.49" y2="175.06" gradientTransform="matrix(-.01889 .01462 .01462 .01889 382.1 471.46)" gradientUnits="userSpaceOnUse" xlink:href="#b"/>
  <linearGradient id="m" x1="165.82" x2="181.51" y1="156.59" y2="152.29" gradientTransform="matrix(0 .02389 -.02389 0 384.16 472.5)" gradientUnits="userSpaceOnUse" xlink:href="#b"/>
  <linearGradient id="l" x1="159.77" x2="158.99" y1="127.12" y2="175.06" gradientTransform="matrix(.00743 -.02271 .02271 .00743 375.79 480.41)" gradientUnits="userSpaceOnUse" xlink:href="#b"/>
  <linearGradient id="k" x1="179.51" x2="156.44" y1="143.06" y2="175.59" gradientTransform="matrix(-.00743 -.02271 -.02271 .00743 386.32 480.22)" gradientUnits="userSpaceOnUse" xlink:href="#b"/>
  <radialGradient id="av" cx="146.39" cy="49.457" r="2.2184" gradientTransform="matrix(2.0824 -.87146 .28001 .6691 52.059 609.8)" gradientUnits="userSpaceOnUse">
   <stop stop-color="#808080" offset="0"/>
   <stop offset="1"/>
  </radialGradient>
  <radialGradient id="at" cx="166.75" cy="308.72" r="2.2085" gradientTransform="matrix(-23.043 17.199 -14.307 -19.168 8725.1 3592)" gradientUnits="userSpaceOnUse">
   <stop stop-color="#ff0e0e" offset="0"/>
   <stop offset="1"/>
  </radialGradient>
  <radialGradient id="as" cx="2138.9" cy="-2156.6" r="2.2045" gradientTransform="matrix(-13.254 15.073 -15.164 -13.335 -4063.6 -60433)" gradientUnits="userSpaceOnUse">
   <stop stop-color="#dc0000" offset="0"/>
   <stop offset="1"/>
  </radialGradient>
  <radialGradient id="ap" cx="2156.3" cy="-2157.8" r=".36627" gradientTransform="matrix(-15.463 12.299 8.2902 10.423 51479 -3478.2)" gradientUnits="userSpaceOnUse">
   <stop stop-color="#d6d6d6" offset="0"/>
   <stop stop-color="#828282" offset=".5"/>
   <stop stop-color="#2e2e2e" offset="1"/>
  </radialGradient>
  <radialGradient id="ao" cx="2156.4" cy="-2157.7" r=".5421" gradientTransform="matrix(-4.2259 -2.9329 -10.297 14.836 -12859 38889)" gradientUnits="userSpaceOnUse">
   <stop offset="0"/>
   <stop stop-color="#c1c1c1" offset=".4402"/>
   <stop stop-color="#6e6e6e" offset="1"/>
  </radialGradient>
  <radialGradient id="an" cx="161.1" cy="307.88" r="10.651" gradientTransform="matrix(12.375 .52837 -.06402 1.5002 -1583.2 17.946)" gradientUnits="userSpaceOnUse">
   <stop stop-color="#980101" offset="0"/>
   <stop offset="1"/>
  </radialGradient>
  <radialGradient id="am" cx="-9739.8" cy="-7042" r="1212.9" gradientTransform="matrix(-.01573 -.08288 .21017 -.03988 1820.3 -568.15)" gradientUnits="userSpaceOnUse">
   <stop stop-color="#ff8080" offset="0"/>
   <stop stop-color="#f00" offset=".1482"/>
   <stop stop-color="#2b0000" offset="1"/>
  </radialGradient>
  <radialGradient id="h" cx="-13393" cy="-8873.2" r="194.82" gradientTransform="matrix(1.3453 -.62558 .37949 .71724 7964.1 -10907)" gradientUnits="userSpaceOnUse">
   <stop stop-color="#eee" offset="0"/>
   <stop stop-color="#aaa" offset="1"/>
  </radialGradient>
  <radialGradient id="g" cx="-13591" cy="-8579.6" r="194.82" gradientTransform="matrix(-.88326 -.49164 .91911 -1.4513 -17436 -28194)" gradientUnits="userSpaceOnUse">
   <stop stop-color="#eee" offset="0"/>
   <stop stop-color="#888" offset="1"/>
  </radialGradient>
  <radialGradient id="af" cx="2156.4" cy="-2157.7" r=".5421" gradientTransform="matrix(.58201 -.45608 1.6012 2.0433 4356.3 3234.7)" gradientUnits="userSpaceOnUse">
   <stop offset="0"/>
   <stop stop-color="#eee" offset=".4402"/>
   <stop stop-color="#888" offset="1"/>
  </radialGradient>
  <radialGradient id="ae" cx="2156.3" cy="-2157.8" r=".36627" gradientTransform="matrix(2.3215 1.6361 -1.1029 1.5648 -5229.3 -2309.3)" gradientUnits="userSpaceOnUse">
   <stop stop-color="#eee" offset="0"/>
   <stop stop-color="#909090" offset=".5"/>
   <stop stop-color="#333" offset="1"/>
  </radialGradient>
  <radialGradient id="f" cx="-26.45" cy="-537.59" r="21.429" gradientTransform="matrix(-.88554 .50486 -.24698 -1.7687 -203.95 -1509.1)" gradientUnits="userSpaceOnUse">
   <stop stop-color="#ccc" offset="0"/>
   <stop offset="1"/>
  </radialGradient>
  <radialGradient id="ab" cx="-50.243" cy="-561.37" r="23.316" gradientTransform="matrix(.86748 1.9525 -.65054 1.1894 -371.72 204.23)" gradientUnits="userSpaceOnUse">
   <stop stop-color="#f9f9f9" offset="0"/>
   <stop stop-color="#f9f9f9" stop-opacity="0" offset="1"/>
  </radialGradient>
  <radialGradient id="au" cx="372.2" cy="514.86" r="1.5432" gradientTransform="matrix(-.40028 -1.9501 2.0656 -.42401 -543.29 1458.4)" gradientUnits="userSpaceOnUse" xlink:href="#d"/>
  <radialGradient id="ar" cx="170.08" cy="313.83" r="1.0843" gradientTransform="matrix(.77515 -10.195 -28.281 -2.1504 8974.5 2978.4)" gradientUnits="userSpaceOnUse" xlink:href="#d"/>
  <radialGradient id="aq" cx="170.88" cy="313.19" r="1.0843" gradientTransform="matrix(-2.5338 -11.55 25.275 -5.5449 -6973.7 4276.5)" gradientUnits="userSpaceOnUse" xlink:href="#d"/>
  <radialGradient id="al" cx="119.03" cy="67.857" r="12.996" gradientTransform="matrix(2.1361 .97469 -.1548 .33927 98.151 375.54)" gradientUnits="userSpaceOnUse" xlink:href="#c"/>
  <radialGradient id="ak" cx="144.89" cy="50.769" r="5.6001" gradientTransform="matrix(1.2687 -1.0746 .74281 .87693 146.46 623.3)" gradientUnits="userSpaceOnUse" xlink:href="#c"/>
  <radialGradient id="aj" cx="2144.2" cy="-2159.6" r=".37967" gradientTransform="matrix(3.9258 1.718 -9.5167 21.746 -28586 43791)" gradientUnits="userSpaceOnUse" xlink:href="#e"/>
  <radialGradient id="ai" cx="2144.2" cy="-2159.6" r=".37967" gradientTransform="matrix(-1.718 3.9258 -21.746 -9.5167 -42889 -28452)" gradientUnits="userSpaceOnUse" xlink:href="#e"/>
  <radialGradient id="ah" cx="119.59" cy="60.419" r="13.192" gradientTransform="matrix(.67877 -.0916 .06872 .50923 261.5 504.57)" gradientUnits="userSpaceOnUse" xlink:href="#c"/>
  <radialGradient id="ag" cx="-1604.6" cy="-882.3" r="22.759" gradientTransform="matrix(.00503 -1.2242 .62001 .00255 942.86 -1440.9)" gradientUnits="userSpaceOnUse" xlink:href="#t"/>
  <radialGradient id="j" cx="380.53" cy="475.54" r="1.088" gradientTransform="matrix(.85991 -.29137 .33595 .99149 -106.19 116.72)" gradientUnits="userSpaceOnUse" xlink:href="#d"/>
  <radialGradient id="i" cx="-13317" cy="-8948.9" r="194.82" gradientTransform="matrix(-.9316 .49311 -.40216 -.66778 -29485 -8234.1)" gradientUnits="userSpaceOnUse" xlink:href="#r"/>
  <radialGradient id="ad" cx="340.87" cy="482.6" r="14.635" gradientTransform="matrix(.38472 -.18146 .67893 1.4394 -116.46 -152.73)" gradientUnits="userSpaceOnUse" xlink:href="#e"/>
  <radialGradient id="ac" cx="349.22" cy="487.61" r="23.029" gradientTransform="matrix(.83694 -.23627 .02835 .10043 42.279 521.5)" gradientUnits="userSpaceOnUse" xlink:href="#c"/>
  <radialGradient id="aa" cx="320.37" cy="508.83" r="2.5919" gradientTransform="matrix(.68727 -.19637 .24396 .85383 -23.915 137.17)" gradientUnits="userSpaceOnUse" xlink:href="#c"/>
  <radialGradient id="z" cx="91.147" cy="43.299" r="1.9655" gradientTransform="matrix(1.238 .28721 -.24152 1.0411 -11.246 -28.222)" gradientUnits="userSpaceOnUse" xlink:href="#s"/>
  <radialGradient id="y" cx="91.147" cy="43.299" r="1.9655" gradientTransform="matrix(-1.238 -.28721 .24152 -1.0411 426.79 579.25)" gradientUnits="userSpaceOnUse" xlink:href="#s"/>
  <radialGradient id="x" cx="-1604.6" cy="-882.3" r="22.759" gradientTransform="matrix(1.1382 -.45066 .22824 .57648 2375.5 316.4)" gradientUnits="userSpaceOnUse" xlink:href="#t"/>
  <radialGradient id="w" cx="345.51" cy="539.44" r="17.205" gradientTransform="matrix(1.2418 -.55101 .4202 .94696 -310.09 216.06)" gradientUnits="userSpaceOnUse" xlink:href="#c"/>
  <radialGradient id="v" cx="2147.7" cy="-2160.3" r="2.6974" gradientTransform="matrix(22.66 7.9655 -7.0556 20.072 -65457 25340)" gradientUnits="userSpaceOnUse" xlink:href="#r"/>
 </defs>
 <g transform="translate(-224.6 -464.66)">
  <path d="m343.81757,541.02872c-.47614-.0803-1.16174-.33284-1.52356-.56125-1.47611-.93183-2.79927-3.53425-3.53999-6.96254-.16033-.74203-.37338-1.34592-.47346-1.34198s-.49173.0671-.87034.14046l-.68839.13329-.50461-1.12854c-1.30206-2.91201-2.65273-7.66571-3.38404-11.91016-1.03192-5.98922-1.0746-6.16742-1.50293-6.27493-.38583-.0968-.39247-.13138-.39247-2.04234 0-1.27318.0628-1.96476.18197-2.00449 .12597-.042.14515-.45367.0623-1.3375-.11793-1.25852-.12822-1.28124-.71698-1.58321-.78736-.40382-1.31817-.99065-1.57692-1.74332-.30534-.88818-.0788-1.63673.75127-2.48253 .80763-.82291.76114-1.08998-.0974-.55939-1.08248.66901-1.58869,2.47716-1.00528,3.59078 .27015.51567 1.16349,1.38899 1.70575,1.66753l.37477.1925-.53939.76726c-.69864.99379-2.14834,2.5088-2.40064,2.5088-.10805,0-.19645-.10674-.19645-.23721 0-.57248-.32648-.34037-.81778.5814-.29195.54777-.56574.96104-.6084.91837s.009-1.12404.11402-2.40307c.27589-3.34867.0995-3.57844-.89855-1.17054-.33922.81838-.69446,1.48797-.78942,1.48797-.36194,0-.002-2.05446.67393-3.84198 .61078-1.61629.65009-1.80844.41754-2.041s-.30682-.23225-.77905-.002c-.28727.14032-.95166.64177-1.47641,1.11434s-.99843.81487-1.05262.76068c-.19439-.19439.49925-1.64449 1.2801-2.67614l.79572-1.05124h-.70983c-1.31168,0-2.29593-1.07452-2.01383-2.19851 .2218-.88373.98609-1.34298 5.27742-3.17115 2.62802-1.11957 4.17786-1.86439 4.13348-1.98645-.0391-.10741-2.04109-3.17291-4.44898-6.81222s-4.35657-6.67247-4.33038-6.74036c.0635-.1646 2.80141-2.70242 3.83585-3.5555 3.04713-2.51292 7.39654-4.75816 11.34914-5.85861 1.11445-.31028 3.74125-.82622 3.79879-.74615 .0153.0213 1.93425,3.26109 4.26434,7.19954s4.41044,7.42963 4.62301,7.75818l.38649.59736 4.99052-2.14604c5.16078-2.21924 5.87326-2.42594 6.74839-1.95772 .91411.48907 1.27141,2.05568.64902,2.84569-.18969.24077-1.21578.77453-2.65347,1.38028l-2.34418.9877 .96615.12199c.53138.0671 1.42333.34666 1.98211.62128 2.58341,1.26963 4.49869,4.98678 4.49869,8.73099 0,.87996.077,1.28472.30662,1.61195 .8441,1.20294 2.23467,3.94381 3.22092,6.34861l.26408.64392 .48288-.54086 .48288-.54086 .10907.43459c.06.23902.0661.59876.0137.79943s.0107.77447.14046,1.27511 .26933,1.42791.31022,2.0606c.12973,2.00752.0504,1.93763 2.67836,2.35824 3.64731.58374 5.94937.84981 7.35261.84981 1.27351,0 1.32182-.0147 1.83433-.55811 .85734-.90905 1.09557-2.03048 1.19284-5.61501 .0485-1.78844.007-3.89606-.0977-4.92209-.13948-1.37074-.13645-1.84998.0128-2.02987 .19628-.2365-.11899-.22596-1.46525.049-.37478.0765-.5047-.19611-.80221-1.68368l-.1005-.5025 1.02196-.0145c.56208-.008 1.06229-.0548 1.11157-.1041s-.15646-.47929-.4572-.95558c-1.1329-1.79416-1.2053-2.03239-1.2837-4.22362l-.073-2.0407 .60377.46052c.6906.52674 1.96186.73381 2.55529.41621 .46224-.24738.98935-1.38734.99409-2.14989 .004-.59498-.23813-1.06571-.93906-1.82784l-.39834-.43312 .78214-.2665c1.05477-.35939 1.55987-.33567 2.2121.10389 1.42457.96007 1.82041,3.40493.91285,5.63811-.66259,1.63039-1.53737,3.36536-2.01326,3.99293-.22353.29478-.36692.5999-.31863.67803s.5628.0284 1.14335-.1105l1.05555-.25255 .74656.64453 .74656.64453-.51385.535c-.3577.37244-.66659.53577-1.01655.53753-.725.004-1.00326.21253-.66123.49638 .38519.31969 1.32378,2.24609 1.82107,3.73767 .31278.93813.44956,1.76061.51424,3.09216 .15369,3.16397-.62994,5.33065-3.54269,9.7954-1.29531,1.98548-2.46312,3.28832-2.94751,3.28832-.0828,0-.28005.0946-.43824.21031-.26462.1935-.26722.24945-.0325.69962 .51962.99652.24687,1.90723-.87466,2.92047-.86438.78091-1.39059,1.04038-2.54138,1.25311-1.11185.20554-4.20669.0775-5.57987-.23089l-.93994-.21107-.57984.70762-.57985.70762 .62884,1.69997 .62884,1.69998-.56361.7845c-.62088.86422-.84609.87045-1.49818.0414-.2566-.32621-.36009-.36976-.46547-.19588-.39165.64627-5.65149,4.28632-9.0248,6.24556-7.7103,4.47822-14.44993,6.90906-17.65659,6.36837zm28.35939-20.92359c.35223-.53226.39667-.69591.21947-.80821-.40394-.25598-.78994-.15619-.8686.22454-.31822,1.54029-.10864,1.72873.64913.58367zm8.26926-.29379c.61858-.37715.71815-.7419.16462-.60304-.20372.0511-.98175.14388-1.72896.20617-1.08582.0905-1.32302.15608-1.18151.32659 .38837.46796 2.02491.50985 2.74585.0703z" filter="url(#ba)" opacity=".6996"/>
  <path class="fil39" d="m391.71 501.41s-1.2578-6.6154-2.7098-9.1078c1.338-1.7368 1.6315-2.809 2.5041-4.8202 0.55173-1.2718 0.55704-2.5367 0.13224-3.8564-0.28492-0.88507-0.88927-1.7744-1.8024-1.9498-1.1457-0.21982-1.4832 0.20053-2.6107 0.49961 0.76956 0.76566 1.7004 1.7832 1.4357 2.6879-0.35946 1.2283-0.74533 2.1325-2.2663 1.8874-0.7613-0.12277-1.3865-0.76605-1.9277-1.3387 0.21717 1.4307-0.11692 3.3676 0.3087 4.7506 0.27297 0.88717 0.93914 1.6014 1.4087 2.4021 0.89576 2.3198 1.3791 7.7849 1.3791 7.7849z" fill="url(#ag)" fill-rule="evenodd"/>
  <g transform="translate(1.2194)">
   <path d="m384.7 495.44 7.0096-1.0511 1.0963-1.061-1.6337-1.4214c-2.3637 0.57609-4.7288 1.4533-7.0885 1.0808z" fill="#fff"/>
   <g transform="matrix(.60069 -.03933 .03933 .60069 144.16 221.62)">
    <path d="m381.08 478.5-1.3448-0.41691-0.0191-1.4078 1.333-0.45316 0.84292 1.1277-0.81207 1.1502z" fill="url(#j)" opacity=".858"/>
    <path d="m380.95769,477.90196-.84366-.26157-.0122-.88321 .8363-.2843 .5288.70751-.50947.72157z" fill="url(#q)" opacity=".65"/>
    <path d="m380.16126,477.59221-.0107-.80104 .75848-.25784 .47961.64168c-.29212.18292-.34842.00013-.63127-.0154s-.42141.23013-.59615.43254z" fill="url(#p)" opacity=".65"/>
    <path d="m379.76991,476.7064 .31209.0681 .006.86649-.30549.3662c-.01-.28932-.0122-1.24303-.0129-1.30085z" fill="url(#o)" opacity=".65"/>
    <path d="m381.06228,476.28712-.0753.16184 .52067.7208 .3229.14145z" fill="url(#n)" opacity=".6502"/>
    <path transform="matrix(.70312 0 0 .70312 129.78 274.68)" d="m356.47811,289.56183-.9372-.29241c-.003-.002-.0289-1.86071-.0273-1.92578l.00092-.0387 .92775-.31547c.8661-.2945.92816-.31503.93418-.30892l1.08818,1.45469 .0836.11222-.56317.79794-.56766.80222c-.003.003-.25515-.0735-.93932-.28576zm.85464.23362c-.00057-.0271-.0811-.71259-.084-.71529-.005-.005-1.2245-.37613-1.23056-.37473s-.44059.54598-.43808.54849l1.74791.54809c.003.00015.005-.003.005-.007zm.62123-.75924 .53998-.75528c.002-.004-.0619-.0357-.24185-.12091l-.24748-.11275-.3398.49135-.34813.5039-.0111.0156 .0527.36046 .0527.36426 .003.004 .54004-.75032zm-2.16786-.11478 .21531-.25781-.003-.4961c-.002-.27285-.004-.55132-.005-.61882l-.002-.12273-.20898-.0457-.22233-.0486-.0134-.003 .003.52096c.004.80115.0116,1.33311.0185,1.33067l.21847-.25893zm1.81306-.39922 .36181-.51501c.00091-.004-.73008-.98691-.7471-1.00497-.004-.004-.11223.0314-.59819.19653l-.59567.20435c-.003.003.0145,1.25444.0173,1.25726l1.19661.37202 .36523-.51018zm.87926-.33418-.54393-.72559-.54476-.72572c-.004-.004-.016.0192-.0586.111-.0498.10717-.0535.11671-.0486.12488s.16958.23617.37027.51402l.36487.50518 .22888.10043c.12588.0552.23041.10049.23228.10056s.002-.002-.00042-.005zm-1.87079-1.02188 .61655-.222 .0625-.1122 .0612-.11349-.7338.24056-.88801.29289-.15306.0536 .20833.0422 .20774.04 .61852-.22161z" fill="#fff" filter="url(#a)" opacity=".93"/>
    <path d="m381.0351,476.27607-.0873.15697-.86548.31153-.2964-.0563z" fill="url(#m)" opacity=".6626"/>
    <path d="m380.1 477.67 0.86672 0.26443 0.0574 0.50703-1.2313-0.3858z" fill="url(#l)" opacity=".65"/>
    <path d="m381.5 477.21-0.49205 0.712 0.0746 0.51109 0.75994-1.061z" fill="url(#k)" opacity=".65"/>
   </g>
  </g>
  <path d="m371.33 515.21c-4.6537 0.60809-4.6528-7.9242-1.5475-8.9473 0 0 13.988 2.812 15.359 1.872 2.6736-1.8338 1.1882-12.851 1.1882-12.851s3.3605-2.1708 4.5571-0.0848c4.9162 8.5704 0.0454 13.733-2.7125 18.146-2.9542 4.7272-16.844 1.865-16.844 1.865z" stroke="#000"/>
  <path d="m358.52 489.53c-1.1154 5e-3 -1.9896-0.35158-2.4858-0.22481-1.1753 0.30026-0.85461 1.2825-1.0891 1.5925-0.28335 0.37458 1.8799 1.3691 1.6157 1.7572-2.3487 3.45-2.2667 5.8099-2.1397 4.3305 0.0211-0.24622-1.1271 2.5247-1.3095 2.0693-0.24293-0.60636 0.43076-4.5088 0.14253-5.3676-0.12009-0.3578-1.2946 3.5483-1.6527 3.384-1.0722-0.49185 1.0244-5.3157 1.1757-5.7098 0.24866-0.6476-0.42825 0.15338-0.16983-0.55097-0.9972-0.22342-2.983 2.4918-3.2219 2.1879-0.84586-1.0762 3.808-5.6309 6.3109-7.6676 16.686-10.095 16.216 27.316 2.8236 4.1994z" fill="#ececec" stroke="#dfdfdf" stroke-width=".37444"/>
  <g transform="matrix(.9705 -.24112 .24112 .9705 -112.26 100.44)">
   <path d="m335.71 510.74c0 12.415 8.4883 22.48 18.959 22.48s18.959-10.065 18.959-22.48-4.94-22.943-15.167-25.189c-11.274-2.4751-18.765 0.53788-21.615 6.8144-0.11121 0.2449-0.36106 0.81418-0.94412 0.90276-2.299 0.96895-2.0126 3.7606 0.14343 5.0267-0.93159 3.9788-0.87558 8.382-0.33525 12.445z" fill="#ecb165" fill-rule="evenodd" stroke="#8c5124" stroke-width=".36496"/>
  </g>
  <path d="m339.69 528.97 22.15-3.5105-2.5754-7.7851-23.778-5.0878c-0.34756 3.2786 2.3517 13.381 4.2043 16.383z" fill="url(#ah)"/>
  <path d="m358.08 515.47 6.122 17.049 1.5568-0.77899-2.2264-17.57z" fill="#fff"/>
  <path transform="matrix(12.415 0 0 12.415 -26187 27325)" d="m2139.3204-2158.7487c-.9656.1699-1.9357.3379-2.8998.5009-.2646-.3149-.5498-.6573-.9281-.8331-.321-.07-.8244.1984-.6469.5786 .078.1598.1976.3309.2491.4835-.5641.093-1.0712-.219-1.6073-.3536-.3626-.1149-.7052-.2688-1.0674-.3629-.2068-.085-.554-.1883-.6978.06-.1262.3825-.2641.7628-.3992,1.1398-.022.1691-.2845.092-.4115.1467-.7903.1047-1.7074.2893-2.1532,1.0299-.1636.2152-.2408.4881-.3417.7253-.354.2105-.4929.8244-.1111,1.0795 .4246.3404 1.0264.2046 1.488.025 .1691-.025.3412-.015.5116-.017 .043.8767.7491,1.7405 1.6461,1.8162 .447.03.9198.01 1.2952-.2652 .4757-.2902.8021-.7986.892-1.3461 .2138.2209.5731.077.8489.1352 2.9527.09 5.9063.1769 8.8588.2586 .1458.038.2483-.2409.3361-.07 .2544.696.9005,1.2478 1.6461,1.3193 .7686.071 1.5435-.3397 1.8979-1.0273 .041-.2236.2175-.2508.4191-.2141 .7588-.01 1.5694.2341 2.2851-.1221 .5286-.2111.6432-.9392.2906-1.3554-.088-.119-.1974-.2256-.3255-.3001 .3548-.9266.6498-1.9947.2666-2.96-.3986-.9191-1.4742-1.3281-2.4202-1.2965-1.1066-.053-2.2.1326-3.2909.288-1.7791.3289-3.6311.575-5.6306.9369z" filter="url(#bb)" opacity=".7407"/>
  <g transform="matrix(12.385 .86758 -.86758 12.385 -28056 25392)">
   <path d="m2140.2442-2157.2282-3.2503-.7989c0,.059.02.1114-.052.2139 .013.067.023.1353-.054.2248 .01.08.034.1635-.069.2215 0,.068.031.134-.052.2133 .025.071.02.1346-.057.1827 .01.094 0,.1809-.06.2521 .035.095-.017.1786-.071.2624z"/>
   <path d="m2136.9392-2157.8166 .1019.062 2.6404.6413 .074-.019-2.6551-.6753z" fill="#666"/>
   <path d="m2136.8777-2157.6 .1019.062 2.2812.5171 .066-.019-2.2882-.551z" fill="#666"/>
   <path d="m2136.8177-2157.3686 .1019.062 1.828.392 .085-.019-1.8543-.426z" fill="#4d4d4d"/>
   <path d="m2136.757-2157.1496 .1019.062 1.367.2839 .082-.019-1.3894-.3179z" fill="#4d4d4d"/>
   <path d="m2136.71-2156.959 .1019.062 .9004.1952 .097-.015-.9385-.2332z" fill="#4d4d4d"/>
   <path d="m2136.6467-2156.7305 .1019.062 .4714.074 .097-.023-.5094-.1036z" fill="#4d4d4d"/>
   <path d="m2137-2158 0.1019 0.062 3.1418 0.7398 0.058-0.012-3.1409-0.7777z" fill="#666"/>
  </g>
  <path d="m326.77 532.36s-1.4575-6.1517-4.8443-10.543c-0.745-0.95597-0.9933-2.6544 0.2979-3.624 0.8939-0.67042 2.9263-1.6251 2.9263-1.6251 1.4103-0.62076 2.8666 0.45936 4.061 1.2167 4.5687 2.894 10.853 12.06 10.853 12.06z" fill="url(#aw)"/>
  <path d="m327.37 532.46s-2.7375-7.5981-5.0107-10.477c-0.5091-0.62076-0.6705-1.7418 0.1986-2.3775 0.5959-0.43453 1.9579-1.0677 1.9579-1.0677 0.9435-0.4097 1.9467 0.26071 2.7176 0.79457 3.9605 2.7574 8.5417 11.57 8.5417 11.57z" fill="url(#ax)"/>
  <path d="m385.04 513.13c-1.018-0.45936-2.7449-1.105-3.4787 0.58351-0.7325 1.6835 0.5835 2.8741 1.7878 3.4427l9.3511 4.2236c1.8821 0.84423 3.141 1.0801 3.8487-0.48419 0.7077-1.5668-0.6704-2.6717-1.9864-3.2379-0.1242-0.12415-7.2132-3.4676-9.5212-4.5266z" fill="url(#ai)"/>
  <path d="m375.54 523.12c-0.4594 1.018-1.105 2.745 0.5835 3.4787 1.6835 0.7325 2.8741-0.58351 3.4427-1.7878l7.6415-16.024c0.8443-1.8821 1.0801-3.141-0.4842-3.8487-1.5668-0.70767-2.6717 0.67041-3.2378 1.9864-0.1242 0.12415-6.8855 13.886-7.9445 16.194z" fill="url(#aj)"/>
  <path d="m363.43 516.19 0.9747 7.1475 9.2738-2.213c1.0743-4.6251 1.6327-9.3792 0.10543-14.655z"/>
  <path d="m363.14 515.13 1.2197 8.3847 2.7923-7.7996 0.83584-1.6717 1.1702 0.58508 5.1822-5.6836-0.75225-4.1792z" fill="url(#ak)"/>
  <path d="m358.67 515.6-24.116-6.238 1.2537 6.8309 15.546 1.807 1.171-1.6758 1.1693 1.6676 7.3771 6.1116z" fill="url(#al)"/>
  <path d="m241.62 568.16 258.44 8.7291s52.357-80.926-31.939-70.567c-61.205 7.5223-115.78 20.555-202.68 32.402-27.949 3.8102-23.816 29.435-23.816 29.435z" fill="url(#am)"/>
  <path d="m241.87 568.09 257.89 8.8731 6.0107-10.018-264.47-3.5777z" fill="url(#an)" opacity=".2469"/>
  <path d="m320.85 530.56s-1.9343 12.104 0.9808 16.41c3.0554 4.5154 9.6863 7.937 15.05 8.9091 13.898 2.5215 35.584 6.3119 44.692-4.4844 6.3603-7.5397-4.539-30.355-4.539-30.355" fill="none" opacity=".5473" stroke="#680101" stroke-width="2.483"/>
  <path transform="matrix(.11179 .00844 -.00901 .11924 1889.7 1729.3)" d="m-13316-8764.2c0 100.87-87.224 182.65-194.82 182.65s-194.82-81.773-194.82-182.65 87.225-182.65 194.82-182.65 194.82 81.773 194.82 182.65z" fill="url(#i)"/>
  <path transform="matrix(.08104 .00612 -.00653 .08645 1496.1 1410.5)" d="m-13316-8764.2c0 100.87-87.224 182.65-194.82 182.65s-194.82-81.773-194.82-182.65 87.225-182.65 194.82-182.65 194.82 81.773 194.82 182.65z" fill="url(#h)"/>
  <path transform="matrix(.05028 .0038 -.00405 .05363 1102.2 1091.6)" d="m-13316-8764.2c0 100.87-87.224 182.65-194.82 182.65s-194.82-81.773-194.82-182.65 87.225-182.65 194.82-182.65 194.82 81.773 194.82 182.65z" fill="url(#g)"/>
  <path d="m323.98 535.32 16.063-2.7512s-9.2282 5.1573-12.569 5.1026c-2.1566 0-3.4937-2.3514-3.4937-2.3514z" fill="#5a0101" opacity=".5144"/>
  <path transform="matrix(.11179 .00844 -.00901 .11924 1718.6 1729.2)" d="m-13316-8764.2c0 100.87-87.224 182.65-194.82 182.65s-194.82-81.773-194.82-182.65 87.225-182.65 194.82-182.65 194.82 81.773 194.82 182.65z" fill="url(#i)"/>
  <path transform="matrix(.08104 .00612 -.00653 .08645 1324.9 1410.4)" d="m-13316-8764.2c0 100.87-87.224 182.65-194.82 182.65s-194.82-81.773-194.82-182.65 87.225-182.65 194.82-182.65 194.82 81.773 194.82 182.65z" fill="url(#h)"/>
  <path transform="matrix(.05028 .0038 -.00405 .05363 931.01 1091.5)" d="m-13316-8764.2c0 100.87-87.224 182.65-194.82 182.65s-194.82-81.773-194.82-182.65 87.225-182.65 194.82-182.65 194.82 81.773 194.82 182.65z" fill="url(#g)"/>
  <g transform="matrix(12.415 0 0 12.415 -26263 27308)">
   <path d="m2147.047-2157.2245 5.5174-.6417c0,0-2.9886.822-4.1679.876-.761.035-1.3495-.2343-1.3495-.2343z" fill="#4c0101"/>
   <path d="m2147.6398-2157.1817 3.9533-.5019c0,0-2.8414.5812-3.3599.605-.3347.015-.5934-.1031-.5934-.1031z" filter="url(#a)" opacity=".3992"/>
  </g>
  <g transform="matrix(12.415 0 0 12.415 -26259 27316)">
   <path d="m2147.047-2157.2245 5.5174-.6417c0,0-2.9886.822-4.1679.876-.761.035-1.3495-.2343-1.3495-.2343z" fill="#4c0101"/>
   <path d="m2147.6398-2157.1817 3.9533-.5019c0,0-2.8414.5812-3.3599.605-.3347.015-.5934-.1031-.5934-.1031z" filter="url(#a)" opacity=".3992"/>
  </g>
  <g transform="matrix(12.415 0 0 12.415 -26259 27325)">
   <path d="m2147.047-2157.2245 5.5174-.6417c0,0-2.9886.822-4.1679.876-.761.035-1.3495-.2343-1.3495-.2343z" fill="#4c0101"/>
   <path d="m2147.6398-2157.1817 3.9533-.5019c0,0-2.8414.5812-3.3599.605-.3347.015-.5934-.1031-.5934-.1031z" filter="url(#a)" opacity=".3992"/>
  </g>
  <g transform="matrix(12.415 0 0 12.415 -26263 27308)">
   <path d="m2156.865-2157.128c-.2133-.9716-1.1989-1.6637-1.1306-1.1341 0,0 .018.2908.3308.6301 .2816.3154.8977.9501.7998.504z" fill="#960101" filter="url(#u)" opacity=".6049"/>
   <path d="m2156.8504-2157.1585c-.202-.9206-1.1358-1.5763-1.0711-1.0745 0,0 .017.2754.3134.5969 .2668.2988.8505.9002.7577.4776z" fill="url(#af)"/>
   <path d="m2156.6778-2157.3373c-.1365-.622-.7674-1.0651-.7237-.726 0,0 .012.1861.2117.4033 .1803.2019.5747.6083.512.3227z" fill="url(#ae)"/>
  </g>
  <path transform="matrix(-6.9451 .40308 .40308 6.9451 16092 14668)" d="m2156.865-2157.128c-.2133-.9716-1.1989-1.6637-1.1306-1.1341 0,0 .018.2908.3308.6301 .2816.3154.8977.9501.7998.504z" fill="#960101" filter="url(#u)" opacity=".6049"/>
  <path d="m243.3 555.98c1.0318-6.475 7.2528-11.405 7.0057-7.8942 0 0-0.01 1.9195-1.936 4.2718-1.7325 2.1827-5.5439 6.5948-5.0697 3.6224z" fill="url(#ao)"/>
  <path d="m244.42 554.67c0.6973-4.3748 4.9003-7.7065 4.7335-5.3338 0 0-0.01 1.2973-1.3077 2.8863-1.1708 1.4749-3.7461 4.4563-3.4258 2.4476z" fill="url(#ap)"/>
  <path d="m496.45 567.13c-9.3305-0.41094-5.439 8.8955-3.373 9.5055 15.736 2.9518 25.364-2.6354 24.246-9.7754-1.2253-7.4418-7.7336-11.483-8.6335-6.5377-1.3484 3.4437-1.3687 4.0447-3.6542 5.1874-2.5598 1.2799-8.5857 1.6361-8.5857 1.6199z" fill="url(#aq)"/>
  <path d="m251.86 563.83c6.2449-1.0677 5.5757 5.1014 3.0877 6.1083-10.338 3.3397-17.298 0.4097-17.16-4.493 0.1862-5.1138 4.2186-8.3951 5.2491-5.1436 1.2043 2.2012 1.2713 2.6034 2.9051 3.177 1.8325 0.64559 5.9196 0.36004 5.9171 0.34763z" fill="url(#ar)"/>
  <path transform="matrix(12.186 0 0 11.045 -25774 24355)" d="m2138.2261-2155.7789c-.9293.1292-1.6689.9696-1.7422,2.0313v.062l.3999.031c.067-.9688.8566-1.6981 1.742-1.625 .8553.071 1.4737.8544 1.4566,1.7813l.4284.031c.052-1.188-.7659-2.2224-1.8563-2.3125-.1387-.012-.2958-.019-.4284,0z" filter="url(#a)"/>
  <path d="m283.03 542.21c-12.622 1.604-22.67 12.038-23.666 25.219v0.76974l5.4317 0.38487c0.9063-12.028 11.638-21.082 23.666-20.175 11.618 0.88148 20.02 10.608 19.787 22.115l5.819 0.38487c0.7201-14.749-10.404-27.591-25.218-28.71-1.8834-0.14898-4.0175-0.23589-5.8202 0z" fill="url(#as)"/>
  <path transform="matrix(12.103 0 0 11.662 -25590 25685)" d="m2152.137-2155.71c-.9385.1204-1.7107.9042-1.7844,1.8942-.017.2401.028.4796.087.6993h.4029c-.067-.2019-.1031-.4444-.087-.6702 .067-.9034.8633-1.5836 1.7556-1.5153s1.5639.8742 1.4965,1.7776c-.014.1927-.071.3574-.1438.5245h.4317c.052-.1578.1021-.3219.1151-.4954 .085-1.1315-.7533-2.1292-1.8707-2.2147-.1398-.011-.269-.017-.403,0z" filter="url(#a)" opacity=".8354"/>
  <path d="m456.05 540.21c-12.651 1.6028-23.06 12.038-24.054 25.219-0.2359 3.1969 0.3724 6.3851 1.167 9.3114h5.4316c-0.9063-2.6891-1.3905-5.9171-1.167-8.924 0.9063-12.028 11.638-21.083 23.666-20.175s21.083 11.639 20.175 23.667c-0.1986 2.5662-0.956 4.7587-1.9393 6.9835h5.819c0.7077-2.1006 1.3769-4.2857 1.5519-6.5962 1.1422-15.065-10.154-28.349-25.218-29.486-1.8834-0.14898-3.6253-0.22347-5.4317 0z" fill="url(#at)"/>
  <path d="m314.59 567.01v3.0107l-2.4633 2.737 120.97 3.5581-1.9159-1.9159-1.6422-4.6528z" fill="url(#ay)"/>
  <path d="m325.92 535.6 10.302-1.65s-6.8246 2.8741-8.5242 2.8468c-1.0926 0-1.7779-1.1919-1.7779-1.1919z" opacity=".3004"/>
  <path d="m277.51 537.29s-2.4892 2.7624-4.061 3.7047c-5.8041 3.4775-13.516 4.6557-19.136 6.7712-3.4638 1.3048-3.4203-3.1783-3.4203-3.1783" fill="none" opacity=".2346" stroke="#680101" stroke-width=".85653"/>
  <path transform="matrix(-.03648 .00906 .00906 .03648 384.89 510.65)" d="m853.07-779.69c-3.4547 17.201-58.542-3.8675-123.72 7.5535-79.888 13.999-115.05-36.831-111.21-54.736 3.6845-17.153 58.844-20.583 123.72-7.5535s114.66 37.535 111.21 54.736z" fill="#ffcb87" filter="url(#bd)" opacity=".716"/>
  <path d="m333.75548,499.52902c.0403-.008.0813-.0109.12251-.0106l.003-.00073 .00097-.00024c.0835.003.16415.0163.24173.0331l.1239.0257-.0433.12063-.017.0485-.0488.0183-.12579.0465-.0295.0104-.0305-.006c-.0577-.0116-.11294-.0178-.16701-.0211l-.0389.0401c-.0356.0459-.0595.10341-.0768.17017-.013.0503-.0105.10783-.002.17459 .007.0526.0295.10233.0663.15599l.00024.00097 .00024.00097c.0361.0558.0889.10616.14992.16116s.13376.0948.21644.13395c.0892.0414.19114.0683.2991.0982l.33467.0939-.32634.11776-.12581.0465-.0338.0115-.0341-.008c-.10723-.0297-.22202-.0603-.335-.11365l-.00024-.00097c-.0915-.0442-.18567-.0964-.27026-.17247l-.00097.00024c-.0636-.058-.13251-.12362-.18793-.20972l-.00024-.00097c-.0479-.0725-.0904-.15717-.10343-.25664-.009-.0791-.0149-.16792.008-.26152s.0538-.17508.11353-.25561l.00073-.001 .00073-.001c.0815-.10144.19458-.1628.31533-.1867z" fill="#b0753d"/>
  <path d="m362.37398,507.87373 .008.0331 .0374-.003 .0522.21442c-.0421.0166-.0877.0471-.13806.0831l-.00097.00024c-.0674.0473-.13216.10208-.19998.15958l-.00073.001-.00097.00024c-.0837.0681-.16789.13671-.25608.20403l-.003.002c-.0996.0808-.20327.15696-.30964.22803-.12989.0861-.26414.16186-.39837.23328-.16241.0852-.32753.16257-.49216.23673-.19308.086-.38885.16462-.58412.24126-.22877.0891-.45938.17204-.68938.25371l-.79433.26752-.00097.00024c-.32589.0981-.65617.17796-.98658.24923l-.00097.00024c-.27936.0643-.56055.10774-.8437.13636-.27298.0264-.54353.0145-.80936-.008l-.00097.00024c-.12416-.0119-.24568-.0291-.36563-.0465l-.42741-.0617 .40295-.15348 .12437-.0462 .0265-.01 .0284.004 .35451.0447c.25895.0214.51492.0299.76733.005 .2757-.0283.54817-.0705.8171-.13283l.00097-.00024c.24292-.0531.48289-.10967.71634-.1821 .26343-.0829.52483-.17068.78639-.26256 .22916-.0813.45687-.1643.68221-.25192 .19308-.0757.38474-.1535.57298-.23695l.00097-.00024c.16259-.073.3231-.14766.47884-.22885 .13111-.0694.2591-.14145.38004-.2211l.00024.00097c.10208-.0677.20037-.13974.29418-.21655l.00072-.001 .00098-.00024c.0842-.0638.16691-.13266.25211-.20152l.00098-.00024c.0665-.0564.13511-.11569.21256-.17034l.003-.002c.0514-.0376.10884-.0795.18013-.11039l.12151-.0515z" fill="#8c5124"/>
  <path d="m359.56976,505.33145c.16504-.042.32889-.0899.49192-.14055l.4716-.14922 .45759-.15335 .45162-.15651 .40448-.14779 .003-.002 .003-.00072 .21874-.091-.0842-.20343-.0797.0136-.0423.007-.0374.0165c-.0577.0264-.11873.0517-.1856.0782l-.003.00072c-.12874.0487-.25867.0957-.39017.14269l-.44185.15408-.45062.15008-.46426.14739c-.15299.0473-.30708.0904-.46331.13036l-.38906.0845-.003.00072-.47897.0778-.492.0566c-.16403.0159-.32977.0294-.49559.0422l-.003.00072-.4607.026-.11118.002 .21348-.16445-.4831.0925-.0792.0156-.0718.0137-.0501.0384-.0734.0595-.007.005-.004.005-.0533.0468-.0317.0292-.39165.12626 .2514-.001-.10441.0916 .43067-.0841 .0545-.0104 .0623-.00023 .29471-.005 .003.00024 .48623-.0276 .50816-.0438c.17066-.0166.34509-.0347.51996-.059s.33786-.0496.51147-.0828l.003-.00072c.1918-.0374.38697-.0793.58252-.13102l.003-.00073z" fill="#8c5124"/>
  <path d="m350.46352,499.01388 .11819-.01 .0117-.002 .11966-.01 .0131-.002 .0317.21954-.0129.003c-.0448.0101-.0882.024-.13152.0419l-.00097.00025-.00073.001c-.0592.0229-.11635.0577-.17509.1-.0657.0493-.12636.11012-.18959.17683-.0699.0741-.13588.15539-.20008.23897l-.002.004c-.0685.0951-.13571.19053-.19728.2871-.0691.10744-.13657.21453-.1959.32339l-.00073.001c-.0591.11041-.1054.22983-.14421.35328l.00025.00097c-.0347.11287-.0553.23235-.0674.35555-.00022.001-.00049.002-.00025.003-.009.12556-.007.25246.002.37793l.00072.003c.005.0539.017.11172.0281.17463l.0186.10376-.1023.0244-.12937.0321-.11525.0276-.0198-.11717c-.0108-.0602-.0247-.12418-.0317-.19511l-.00024-.00097-.00024-.00097c-.011-.13909-.0109-.27861-.002-.41779l-.00024-.00097 .00073-.001c.0127-.13448.0331-.2707.0746-.40619 .0418-.13453.0925-.2687.1608-.39708l.00097-.00024-.00024-.00097c.0637-.11815.1335-.2295.20419-.3392l.20629-.30002 .00073-.001-.00024-.00097c.0673-.0884.13807-.17607.21627-.25977l.00097-.00024c.065-.0687.13283-.14226.21729-.20661l.00097-.00024 .00097-.00024c.0649-.0478.1374-.0944.22148-.12829l-.00024-.00097 .004-.00096 .0718-.024-.006-.0259z" fill="#8c5124"/>
  <g transform="matrix(-.046 .01143 .01143 .046 396.89 513.88)" stroke="#000">
   <path d="m881.63-644.53c1.8717 1.1 3.7417 2.2021 5.585 3.3493 2.6722 1.6655 5.3312 3.3538 7.9267 5.1369 1.6549 1.194 0.84638 0.5937 2.4267 1.7992l-2.7969 0.25825c-1.5783-1.1959-0.77087-0.60013-2.4234-1.7856-2.5982-1.776-5.2562-3.4627-7.9291-5.1238-1.845-1.1415-3.7113-2.2474-5.5919-3.3292l2.803-0.305z" fill="#5e83a4" stroke-width="4.7"/>
   <path d="m875.91-644.53c1.5268 1.0798 2.8526 2.4155 4.1733 3.7318 1.7948 1.9135 3.5439 3.8708 5.2727 5.8444 2.0588 2.3357 4.0264 4.7501 5.9899 7.1659l1.0098 1.29-2.8003 0.18651-1.0096-1.285c-1.9646-2.412-3.9307-4.8248-5.992-7.1554-1.7277-1.9686-3.4727-3.924-5.2745-5.8249-1.3139-1.3013-2.6329-2.6293-4.1746-3.6633l2.8053-0.29008z" fill="#5e83a4" stroke-width="4.7"/>
   <g transform="matrix(.81987 0 0 .42009 880.39 -409.83)">
    <path d="m-18.571-553.35c0 23.669-9.5939 42.857-21.429 42.857s-21.429-19.188-21.429-42.857 9.5939-42.857 21.429-42.857 21.429 19.188 21.429 42.857z" fill="#f9f9f9" stroke-width="13.461"/>
    <path transform="matrix(1 0 0 1.4762 -2.8571 235.27)" d="m-25.714-524.07c0 8.2843-5.4365 15-12.143 15s-12.143-6.7157-12.143-15 5.4365-15 12.143-15 12.143 6.7157 12.143 15z" stroke-width="11.079"/>
   </g>
  </g>
  <path d="m361.10391,489.81057c.0555-.0159.11212-.0258.16881-.0358 .0715-.0116.14328-.003.21427.007 .0863.0129.1689.0416.25046.0715 .0645.0241.12585.0554.18808.0846l.12604-.0436-.1884-.0857c-.082-.0302-.16475-.06-.25133-.0742-.0714-.01-.14363-.0209-.21566-.0106l-.16906.0348-.12319.0521z" fill="#5e83a4" stroke="#000" stroke-width=".22277"/>
  <path d="m360.97484,489.8562c.0595.0348.11243.0793.16656.12157 .0699.0576.14297.11077.2171.16265 .0863.0621.17215.12458.2546.1917l.13158.11863 .1272-.0399-.13188-.11937c-.0824-.0676-.16838-.13031-.25476-.19268-.0739-.0518-.14741-.10415-.2168-.16204-.0547-.0425-.10762-.0877-.16707-.1237l-.12663.0429z" fill="#5e83a4" stroke="#000" stroke-width=".22277"/>
  <path transform="matrix(-.03406 .00846 .00419 .01686 361.19 500.11)" d="m-18.571-553.35c0 23.669-9.5939 42.857-21.429 42.857s-21.429-19.188-21.429-42.857 9.5939-42.857 21.429-42.857 21.429 19.188 21.429 42.857z" fill="#f9f9f9" stroke="#000" stroke-width="15.165"/>
  <path transform="matrix(-.03406 .00846 .00618 .02489 362.28 504.05)" d="m-25.714-524.07c0 8.2843-5.4365 15-12.143 15s-12.143-6.7157-12.143-15 5.4365-15 12.143-15 12.143 6.7157 12.143 15z" stroke="#000" stroke-width="12.482"/>
  <path d="m348.55263,493.2047c1.38704-.92801 1.96795-2.51505 1.0732-3.9283-.20574-.32496-.30362,1.69877-.59446,1.48121 .009.64923-.35267.74951-1.05245.97397-.20302.0651-.3215-.42348-.66257.17313-.20246.35411-.57827.35297-1.18144.80369-.5728.42803-2.03698-.14911-2.08015-.91609 .0788.27162.19503.53633.35385.7872 .90882,1.43566.25831,1.0529 3.9568.74373 .0265-.002-.3753-.60309.18718-.11857z" fill="#ececec" stroke="#dfdfdf" stroke-width=".22277"/>
  <path d="m359.20691,489.15126c-1.17135.51571-2.43772.24178-2.98453-.91336-.12571-.26564 1.22463.49854 1.20342.22191 .41671.27105.63028.0788 1.06347-.28099 .12565-.10443-.14187-.38061.38479-.35663 .31253.0141.4664-.22888 1.0063-.43386 .51273-.1946.74143-1.37545.26266-1.71685 .14323.16207.26696.34513.36408.55014 .55551,1.17339.57534.59714-1.14626,2.85744-.0126.0161-.23605-.48872-.15375.0724z" fill="#ececec" stroke="#dfdfdf" stroke-width=".22277"/>
  <g transform="matrix(.99296 -.11843 .11843 .99296 -56.343 43.955)">
   <path d="m335.03 490.56-7.6742-15.277c6.7728-5.5921 13.546-7.8587 20.318-7.9803l7.9506 17.929z" fill="url(#ad)"/>
   <path d="m327.81 496.17 39.109-11.474c1.8065-0.43404 1.6887-4.4924-1.8181-3.7884l-38.739 11.409c-3.0906 1.0079-2.0979 4.7614 1.4475 3.8528z" fill="url(#ac)"/>
  </g>
  <path d="m352.76153,489.56214 .0345.01c.0892.0257.16429.0672.23121.10128l.48571.23494-.00024-.00097c.23871.11215.46871.23722.69531.36599l.00024.00097c.25329.14454.50161.29475.7498.44406l.77778.47066 .75837.48464c.24308.15514.47607.32275.70447.49499s.43959.35505.64762.54269l.00097-.00025c.20075.18246.39197.37311.58007.56557s.35573.39614.51535.60608 .30122.42634.43552.64727c.13541.22276.25296.45299.36004.68739l.00024.00097c.10408.23438.19497.47248.2806.71171l.00024.00097c.0842.22678.15106.45746.21203.68753 .0556.21119.0993.42457.13705.63748l.00024.00097c.0334.19521.0527.39075.0645.5853 .0102.17998.003.35905-.0162.53668l.00024.00097c-.0199.16779-.0594.32898-.10526.48553l-.00073.001c-.0457.15226-.10542.29672-.17379.43695-.0736.15148-.1697.28499-.26752.40986l.00024.00097c-.10526.13166-.22037.25204-.33571.36881s-.24351.23185-.3723.33822c-.14384.11899-.29592.22216-.44665.32158l-.00097.00024c-.1594.1037-.32529.19576-.49364.27984l-.00097.00024c-.18055.0905-.36983.14928-.55495.19898-.23356.0621-.46898.10601-.70432.14449-.20411.0332-.41017.0604-.61727.0771l-.00097.00024-.00097.00024c-.23049.0128-.46109.0161-.69084.0144l-.69044-.0147-.00097.00024-.66455-.0272-.00097.00024c-.21818-.009-.43679-.0125-.65667-.0139l-.00097.00024-.00024-.00097c-.20941-.005-.41911.009-.6298.0328l-.004.00097c-.19055.0299-.37755.0532-.54764.10555l-.00097.00025-.00097.00024c-.21154.0577-.42153.12317-.62966.19312-.192.066-.38128.1447-.57116.22588l-.00097.00024-.27571.12496-.0166.007-.019.004-.0923.009-.0596-.21106c.0933-.0438.18725-.0866.28254-.12821l.00073-.001c.19196-.0822.38716-.16213.58806-.23152 .21188-.0714.42665-.13815.64227-.19769l.00097-.00024c.24661-.0623.49947-.12616.76253-.15586 .21905-.0245.44-.0384.66321-.0335l.00097-.00024c.22067.002.44116.006.66313.0153l-.00024-.00097 .66635.0283-.00024-.00097c.22839.007.45639.0133.68433.0147s.45042-.002.67396-.0148l.003-.00072c.19918-.0166.39692-.0423.59501-.0746 .16969-.0279.33854-.0592.5038-.0976l.004-.00097c.17888-.0475.3521-.0999.50966-.17855s.32112-.16901.47243-.26694 .29447-.19643.42759-.30617c.1243-.10229.24383-.20899.35648-.32207s.22092-.22901.31879-.35087l.00024.00097c.0939-.11915.17845-.23984.24123-.36823s.121-.2645.16261-.40211c.0441-.14946.08-.29764.098-.44712 .0183-.16629.0244-.3324.0151-.49823-.0114-.18864-.0297-.37521-.061-.55871l-.00024-.00097c-.037-.20825-.0787-.41474-.13205-.61736-.0605-.2269-.12504-.45103-.20558-.66777l-.00024-.00097c-.0844-.23594-.17439-.46927-.2752-.69626l-.00024-.00097c-.1044-.22817-.21733-.45119-.34641-.66331-.13185-.21673-.269-.42741-.4212-.62641-.15599-.20489-.31914-.40183-.49741-.58305l-.00024-.00097c-.18612-.19036-.37557-.37643-.5711-.55407l-.00024-.00097c-.20521-.18485-.41356-.36427-.63185-.52828-.22546-.16985-.45496-.33382-.69119-.48455-.25131-.16295-.50148-.32627-.75477-.48249l-.77456-.46994c-.24841-.14937-.49608-.29933-.74621-.44188l.00024.00097c-.22418-.12721-.45045-.25047-.68131-.3588l-.00097.00024c-.16102-.078-.32651-.15335-.49073-.23674-.0696-.0353-.13069-.0663-.18812-.0815l-.34007-.091 .32996-.12165 .088-.0326 .0349-.0128z" fill="#8c5124"/>
  <path d="m332.01 498.28c-1.8839 2.4727 0.29591 4.4989 1.7712 4.9499-2.3487 3.45-3.6298 4.1504-3.5028 2.671 0.0211-0.24622-1.1271 2.5247-1.3096 2.0693-0.24293-0.60635 0.43077-4.5088 0.14254-5.3676-0.12009-0.3578-1.2946 3.5483-1.6527 3.384-1.0722-0.49185 1.0244-5.3157 1.1757-5.7098 0.24866-0.6476-0.42825 0.15338-0.16983-0.55097-0.99719-0.22342-2.983 2.4918-3.2219 2.1879-0.84586-1.0762 3.4189-6.2362 6.3109-7.6676 7.7482-3.8351 13.492 0.87983 11.567 3.4981-2.9906 4.0669-4.6112 9.1774-7.1115 3.2145-0.47924-3.0201-1.3685-4.6546-3.9989-2.6788z" fill="#ececec" stroke="#dfdfdf" stroke-width=".37444"/>
  <path d="m354.69 510.05 4.3206 4.6951c-7.9397-0.77004-16.936-2.2364-24.247-5.344l-0.79887-4.4704c6.5422 2.769 13.994 5.4635 20.726 5.1193z" filter="url(#a)" opacity=".3786"/>
  <path d="m354.52 510.47 4.3206 4.6951c-7.9397-0.77004-17.688-2.5707-25-5.6783l-0.0466-4.1361c6.5422 2.769 13.994 5.4635 20.726 5.1193z" fill="#fff"/>
  <path d="m363.62 507.97-2.1362 6.6923c4.5505-2.7559 8.6166-5.83 11.102-9.9427l-0.32133-4.3225c-2.5589 2.9298-4.9451 5.8719-8.6441 7.5729z" filter="url(#a)" opacity=".3292"/>
  <path d="m364.21 508.22-2.1362 6.6923c4.5505-2.7559 9.254-6.0212 11.739-10.134l-0.95876-4.1312c-2.5589 2.9298-4.9451 5.8719-8.6441 7.5729z" fill="#fff"/>
  <path d="m364.32 507.92-2.443 5.4431 6.6003 0.12858z" filter="url(#a)" opacity=".2963"/>
  <path d="m354.12 510.18-2.443 5.4431 6.6003 0.12858z" filter="url(#a)" opacity=".2963"/>
  <path d="m354.62 510.35-2.443 5.4431 6.6003 0.12858z" fill="#e6e6e6"/>
  <path d="m364.01 508.46-2.443 5.4431 6.6003 0.12858z" fill="#e6e6e6"/>
  <path transform="matrix(-.03406 .00846 .00419 .01686 362.5 527.07)" d="m-18.571-553.35c0 23.669-9.5939 42.857-21.429 42.857s-21.429-19.188-21.429-42.857 9.5939-42.857 21.429-42.857 21.429 19.188 21.429 42.857z" fill="url(#f)"/>
  <path transform="matrix(-.03406 .00846 .00419 .01686 363.18 530.09)" d="m-18.571-553.35c0 23.669-9.5939 42.857-21.429 42.857s-21.429-19.188-21.429-42.857 9.5939-42.857 21.429-42.857 21.429 19.188 21.429 42.857z" fill="url(#f)"/>
  <g transform="translate(43.027 17.899)" fill="none" filter="url(#a)" opacity=".4774" stroke="#000" stroke-width="29.072">
   <path transform="matrix(.01027 -.00464 .00229 .00506 311.17 498.11)" d="m-18.571-553.35c0 23.669-9.5939 42.857-21.429 42.857s-21.429-19.188-21.429-42.857 9.5939-42.857 21.429-42.857 21.429 19.188 21.429 42.857z"/>
   <path transform="matrix(.01027 -.00464 .00229 .00506 311.82 498.35)" d="m-18.571-553.35c0 23.669-9.5939 42.857-21.429 42.857s-21.429-19.188-21.429-42.857 9.5939-42.857 21.429-42.857 21.429 19.188 21.429 42.857z"/>
   <path transform="matrix(.01027 -.00464 .00229 .00506 312.44 498.64)" d="m-18.571-553.35c0 23.669-9.5939 42.857-21.429 42.857s-21.429-19.188-21.429-42.857 9.5939-42.857 21.429-42.857 21.429 19.188 21.429 42.857z"/>
   <path transform="matrix(.01027 -.00464 .00229 .00506 313.03 498.98)" d="m-18.571-553.35c0 23.669-9.5939 42.857-21.429 42.857s-21.429-19.188-21.429-42.857 9.5939-42.857 21.429-42.857 21.429 19.188 21.429 42.857z"/>
   <path transform="matrix(.01027 -.00464 .00229 .00506 313.63 499.37)" d="m-18.571-553.35c0 23.669-9.5939 42.857-21.429 42.857s-21.429-19.188-21.429-42.857 9.5939-42.857 21.429-42.857 21.429 19.188 21.429 42.857z"/>
   <path transform="matrix(.01027 -.00464 .00229 .00506 315.71 501.29)" d="m-18.571-553.35c0 23.669-9.5939 42.857-21.429 42.857s-21.429-19.188-21.429-42.857 9.5939-42.857 21.429-42.857 21.429 19.188 21.429 42.857z"/>
   <path transform="matrix(.01027 -.00464 .00229 .00506 315.28 500.74)" d="m-18.571-553.35c0 23.669-9.5939 42.857-21.429 42.857s-21.429-19.188-21.429-42.857 9.5939-42.857 21.429-42.857 21.429 19.188 21.429 42.857z"/>
   <path transform="matrix(.01027 -.00464 .00229 .00506 314.76 500.25)" d="m-18.571-553.35c0 23.669-9.5939 42.857-21.429 42.857s-21.429-19.188-21.429-42.857 9.5939-42.857 21.429-42.857 21.429 19.188 21.429 42.857z"/>
   <path transform="matrix(.01027 -.00464 .00229 .00506 314.2 499.81)" d="m-18.571-553.35c0 23.669-9.5939 42.857-21.429 42.857s-21.429-19.188-21.429-42.857 9.5939-42.857 21.429-42.857 21.429 19.188 21.429 42.857z"/>
   <path transform="matrix(.01075 .00338 -.00166 .0053 315.52 507.35)" d="m-18.571-553.35c0 23.669-9.5939 42.857-21.429 42.857s-21.429-19.188-21.429-42.857 9.5939-42.857 21.429-42.857 21.429 19.188 21.429 42.857z"/>
   <path transform="matrix(.01075 .00338 -.00166 .0053 315.44 506.7)" d="m-18.571-553.35c0 23.669-9.5939 42.857-21.429 42.857s-21.429-19.188-21.429-42.857 9.5939-42.857 21.429-42.857 21.429 19.188 21.429 42.857z"/>
   <path transform="matrix(.01075 .00338 -.00166 .0053 315.37 506.03)" d="m-18.571-553.35c0 23.669-9.5939 42.857-21.429 42.857s-21.429-19.188-21.429-42.857 9.5939-42.857 21.429-42.857 21.429 19.188 21.429 42.857z"/>
   <path transform="matrix(.01075 .00338 -.00166 .0053 315.2 505.38)" d="m-18.571-553.35c0 23.669-9.5939 42.857-21.429 42.857s-21.429-19.188-21.429-42.857 9.5939-42.857 21.429-42.857 21.429 19.188 21.429 42.857z"/>
   <path transform="matrix(.01075 .00338 -.00166 .0053 315.08 504.79)" d="m-18.571-553.35c0 23.669-9.5939 42.857-21.429 42.857s-21.429-19.188-21.429-42.857 9.5939-42.857 21.429-42.857 21.429 19.188 21.429 42.857z"/>
   <path transform="matrix(.01075 .00338 -.00166 .0053 313.91 502.34)" d="m-18.571-553.35c0 23.669-9.5939 42.857-21.429 42.857s-21.429-19.188-21.429-42.857 9.5939-42.857 21.429-42.857 21.429 19.188 21.429 42.857z"/>
   <path transform="matrix(.01075 .00338 -.00166 .0053 314.29 502.9)" d="m-18.571-553.35c0 23.669-9.5939 42.857-21.429 42.857s-21.429-19.188-21.429-42.857 9.5939-42.857 21.429-42.857 21.429 19.188 21.429 42.857z"/>
   <path transform="matrix(.01075 .00338 -.00166 .0053 314.59 503.52)" d="m-18.571-553.35c0 23.669-9.5939 42.857-21.429 42.857s-21.429-19.188-21.429-42.857 9.5939-42.857 21.429-42.857 21.429 19.188 21.429 42.857z"/>
   <path transform="matrix(.01075 .00338 -.00166 .0053 314.84 504.18)" d="m-18.571-553.35c0 23.669-9.5939 42.857-21.429 42.857s-21.429-19.188-21.429-42.857 9.5939-42.857 21.429-42.857 21.429 19.188 21.429 42.857z"/>
   <path transform="matrix(.00815 .00778 -.00383 .00402 314.32 507.47)" d="m-18.571-553.35c0 23.669-9.5939 42.857-21.429 42.857s-21.429-19.188-21.429-42.857 9.5939-42.857 21.429-42.857 21.429 19.188 21.429 42.857z"/>
   <path transform="matrix(.00815 .00778 -.00383 .00402 314.31 508.19)" d="m-18.571-553.35c0 23.669-9.5939 42.857-21.429 42.857s-21.429-19.188-21.429-42.857 9.5939-42.857 21.429-42.857 21.429 19.188 21.429 42.857z"/>
  </g>
  <path transform="matrix(.01027 -.00464 .00229 .00506 354.43 515.91)" d="m-18.571-553.35c0 23.669-9.5939 42.857-21.429 42.857s-21.429-19.188-21.429-42.857 9.5939-42.857 21.429-42.857 21.429 19.188 21.429 42.857z" fill="none" stroke="#a46800" stroke-width="29.072"/>
  <path transform="matrix(.01027 -.00464 .00229 .00506 355.08 516.15)" d="m-18.571-553.35c0 23.669-9.5939 42.857-21.429 42.857s-21.429-19.188-21.429-42.857 9.5939-42.857 21.429-42.857 21.429 19.188 21.429 42.857z" fill="none" stroke="#a46800" stroke-width="29.072"/>
  <path transform="matrix(.01027 -.00464 .00229 .00506 355.69 516.44)" d="m-18.571-553.35c0 23.669-9.5939 42.857-21.429 42.857s-21.429-19.188-21.429-42.857 9.5939-42.857 21.429-42.857 21.429 19.188 21.429 42.857z" fill="none" stroke="#a46800" stroke-width="29.072"/>
  <path transform="matrix(.01027 -.00464 .00229 .00506 356.29 516.78)" d="m-18.571-553.35c0 23.669-9.5939 42.857-21.429 42.857s-21.429-19.188-21.429-42.857 9.5939-42.857 21.429-42.857 21.429 19.188 21.429 42.857z" fill="none" stroke="#a46800" stroke-width="29.072"/>
  <path transform="matrix(.01027 -.00464 .00229 .00506 356.89 517.17)" d="m-18.571-553.35c0 23.669-9.5939 42.857-21.429 42.857s-21.429-19.188-21.429-42.857 9.5939-42.857 21.429-42.857 21.429 19.188 21.429 42.857z" fill="none" stroke="#a46800" stroke-width="29.072"/>
  <path transform="matrix(.01027 -.00464 .00229 .00506 358.97 519.09)" d="m-18.571-553.35c0 23.669-9.5939 42.857-21.429 42.857s-21.429-19.188-21.429-42.857 9.5939-42.857 21.429-42.857 21.429 19.188 21.429 42.857z" fill="none" stroke="#a46800" stroke-width="29.072"/>
  <path transform="matrix(.01027 -.00464 .00229 .00506 358.54 518.54)" d="m-18.571-553.35c0 23.669-9.5939 42.857-21.429 42.857s-21.429-19.188-21.429-42.857 9.5939-42.857 21.429-42.857 21.429 19.188 21.429 42.857z" fill="none" stroke="#a46800" stroke-width="29.072"/>
  <path transform="matrix(.01027 -.00464 .00229 .00506 358.02 518.05)" d="m-18.571-553.35c0 23.669-9.5939 42.857-21.429 42.857s-21.429-19.188-21.429-42.857 9.5939-42.857 21.429-42.857 21.429 19.188 21.429 42.857z" fill="none" stroke="#a46800" stroke-width="29.072"/>
  <path transform="matrix(.01027 -.00464 .00229 .00506 357.46 517.61)" d="m-18.571-553.35c0 23.669-9.5939 42.857-21.429 42.857s-21.429-19.188-21.429-42.857 9.5939-42.857 21.429-42.857 21.429 19.188 21.429 42.857z" fill="none" stroke="#a46800" stroke-width="29.072"/>
  <path transform="matrix(.01075 .00338 -.00166 .0053 358.78 525.15)" d="m-18.571-553.35c0 23.669-9.5939 42.857-21.429 42.857s-21.429-19.188-21.429-42.857 9.5939-42.857 21.429-42.857 21.429 19.188 21.429 42.857z" fill="none" stroke="#a46800" stroke-width="29.072"/>
  <path transform="matrix(.01075 .00338 -.00166 .0053 358.7 524.5)" d="m-18.571-553.35c0 23.669-9.5939 42.857-21.429 42.857s-21.429-19.188-21.429-42.857 9.5939-42.857 21.429-42.857 21.429 19.188 21.429 42.857z" fill="none" stroke="#a46800" stroke-width="29.072"/>
  <path transform="matrix(.01075 .00338 -.00166 .0053 358.63 523.83)" d="m-18.571-553.35c0 23.669-9.5939 42.857-21.429 42.857s-21.429-19.188-21.429-42.857 9.5939-42.857 21.429-42.857 21.429 19.188 21.429 42.857z" fill="none" stroke="#a46800" stroke-width="29.072"/>
  <path transform="matrix(.01075 .00338 -.00166 .0053 358.46 523.18)" d="m-18.571-553.35c0 23.669-9.5939 42.857-21.429 42.857s-21.429-19.188-21.429-42.857 9.5939-42.857 21.429-42.857 21.429 19.188 21.429 42.857z" fill="none" stroke="#a46800" stroke-width="29.072"/>
  <path transform="matrix(.01075 .00338 -.00166 .0053 358.34 522.59)" d="m-18.571-553.35c0 23.669-9.5939 42.857-21.429 42.857s-21.429-19.188-21.429-42.857 9.5939-42.857 21.429-42.857 21.429 19.188 21.429 42.857z" fill="none" stroke="#a46800" stroke-width="29.072"/>
  <path transform="matrix(.01075 .00338 -.00166 .0053 357.16 520.14)" d="m-18.571-553.35c0 23.669-9.5939 42.857-21.429 42.857s-21.429-19.188-21.429-42.857 9.5939-42.857 21.429-42.857 21.429 19.188 21.429 42.857z" fill="none" stroke="#a46800" stroke-width="29.072"/>
  <path transform="matrix(.01075 .00338 -.00166 .0053 357.55 520.7)" d="m-18.571-553.35c0 23.669-9.5939 42.857-21.429 42.857s-21.429-19.188-21.429-42.857 9.5939-42.857 21.429-42.857 21.429 19.188 21.429 42.857z" fill="none" stroke="#a46800" stroke-width="29.072"/>
  <path transform="matrix(.01075 .00338 -.00166 .0053 357.85 521.32)" d="m-18.571-553.35c0 23.669-9.5939 42.857-21.429 42.857s-21.429-19.188-21.429-42.857 9.5939-42.857 21.429-42.857 21.429 19.188 21.429 42.857z" fill="none" stroke="#a46800" stroke-width="29.072"/>
  <path transform="matrix(.01075 .00338 -.00166 .0053 358.1 521.98)" d="m-18.571-553.35c0 23.669-9.5939 42.857-21.429 42.857s-21.429-19.188-21.429-42.857 9.5939-42.857 21.429-42.857 21.429 19.188 21.429 42.857z" fill="none" stroke="#a46800" stroke-width="29.072"/>
  <path transform="matrix(.00815 .00778 -.00383 .00402 357.58 525.27)" d="m-18.571-553.35c0 23.669-9.5939 42.857-21.429 42.857s-21.429-19.188-21.429-42.857 9.5939-42.857 21.429-42.857 21.429 19.188 21.429 42.857z" fill="none" stroke="#a46800" stroke-width="29.072"/>
  <path transform="matrix(.00815 .00778 -.00383 .00402 357.57 525.99)" d="m-18.571-553.35c0 23.669-9.5939 42.857-21.429 42.857s-21.429-19.188-21.429-42.857 9.5939-42.857 21.429-42.857 21.429 19.188 21.429 42.857z" fill="none" stroke="#a46800" stroke-width="29.072"/>
  <g transform="translate(-.23931,-.19943)" fill="none" stroke-width="29.072">
   <g transform="translate(.19558,-.0197)" filter="url(#a)" opacity=".4156" stroke="#000">
    <path transform="matrix(-.01065 .00367 .00181 .00525 346.33 501.16)" d="m-18.571-553.35c0 23.669-9.5939 42.857-21.429 42.857s-21.429-19.188-21.429-42.857 9.5939-42.857 21.429-42.857 21.429 19.188 21.429 42.857z"/>
    <path transform="matrix(-.01065 .00367 .00181 .00525 346.02 501.78)" d="m-18.571-553.35c0 23.669-9.5939 42.857-21.429 42.857s-21.429-19.188-21.429-42.857 9.5939-42.857 21.429-42.857 21.429 19.188 21.429 42.857z"/>
    <path transform="matrix(-.01065 .00367 .00181 .00525 345.77 502.41)" d="m-18.571-553.35c0 23.669-9.5939 42.857-21.429 42.857s-21.429-19.188-21.429-42.857 9.5939-42.857 21.429-42.857 21.429 19.188 21.429 42.857z"/>
    <path transform="matrix(-.01065 .00367 .00181 .00525 345.57 503.07)" d="m-18.571-553.35c0 23.669-9.5939 42.857-21.429 42.857s-21.429-19.188-21.429-42.857 9.5939-42.857 21.429-42.857 21.429 19.188 21.429 42.857z"/>
    <path transform="matrix(-.01065 .00367 .00181 .00525 345.4 503.76)" d="m-18.571-553.35c0 23.669-9.5939 42.857-21.429 42.857s-21.429-19.188-21.429-42.857 9.5939-42.857 21.429-42.857 21.429 19.188 21.429 42.857z"/>
    <path transform="matrix(-.01065 .00367 .00181 .00525 345.2 506.58)" d="m-18.571-553.35c0 23.669-9.5939 42.857-21.429 42.857s-21.429-19.188-21.429-42.857 9.5939-42.857 21.429-42.857 21.429 19.188 21.429 42.857z"/>
    <path transform="matrix(-.01065 .00367 .00181 .00525 345.14 505.9)" d="m-18.571-553.35c0 23.669-9.5939 42.857-21.429 42.857s-21.429-19.188-21.429-42.857 9.5939-42.857 21.429-42.857 21.429 19.188 21.429 42.857z"/>
    <path transform="matrix(-.01065 .00367 .00181 .00525 345.18 505.18)" d="m-18.571-553.35c0 23.669-9.5939 42.857-21.429 42.857s-21.429-19.188-21.429-42.857 9.5939-42.857 21.429-42.857 21.429 19.188 21.429 42.857z"/>
    <path transform="matrix(-.01065 .00367 .00181 .00525 345.28 504.47)" d="m-18.571-553.35c0 23.669-9.5939 42.857-21.429 42.857s-21.429-19.188-21.429-42.857 9.5939-42.857 21.429-42.857 21.429 19.188 21.429 42.857z"/>
    <path transform="matrix(-.00551 .00983 .00485 .00272 349.5 510.87)" d="m-18.571-553.35c0 23.669-9.5939 42.857-21.429 42.857s-21.429-19.188-21.429-42.857 9.5939-42.857 21.429-42.857 21.429 19.188 21.429 42.857z"/>
    <path transform="matrix(-.00551 .00983 .00485 .00272 349.11 510.34)" d="m-18.571-553.35c0 23.669-9.5939 42.857-21.429 42.857s-21.429-19.188-21.429-42.857 9.5939-42.857 21.429-42.857 21.429 19.188 21.429 42.857z"/>
    <path transform="matrix(-.00551 .00983 .00485 .00272 348.71 509.8)" d="m-18.571-553.35c0 23.669-9.5939 42.857-21.429 42.857s-21.429-19.188-21.429-42.857 9.5939-42.857 21.429-42.857 21.429 19.188 21.429 42.857z"/>
    <path transform="matrix(-.00551 .00983 .00485 .00272 348.38 509.21)" d="m-18.571-553.35c0 23.669-9.5939 42.857-21.429 42.857s-21.429-19.188-21.429-42.857 9.5939-42.857 21.429-42.857 21.429 19.188 21.429 42.857z"/>
    <path transform="matrix(-.00551 .00983 .00485 .00272 348.07 508.7)" d="m-18.571-553.35c0 23.669-9.5939 42.857-21.429 42.857s-21.429-19.188-21.429-42.857 9.5939-42.857 21.429-42.857 21.429 19.188 21.429 42.857z"/>
    <path transform="matrix(-.00551 .00983 .00485 .00272 347.24 506.11)" d="m-18.571-553.35c0 23.669-9.5939 42.857-21.429 42.857s-21.429-19.188-21.429-42.857 9.5939-42.857 21.429-42.857 21.429 19.188 21.429 42.857z"/>
    <path transform="matrix(-.00551 .00983 .00485 .00272 347.34 506.78)" d="m-18.571-553.35c0 23.669-9.5939 42.857-21.429 42.857s-21.429-19.188-21.429-42.857 9.5939-42.857 21.429-42.857 21.429 19.188 21.429 42.857z"/>
    <path transform="matrix(-.00551 .00983 .00485 .00272 347.55 507.44)" d="m-18.571-553.35c0 23.669-9.5939 42.857-21.429 42.857s-21.429-19.188-21.429-42.857 9.5939-42.857 21.429-42.857 21.429 19.188 21.429 42.857z"/>
    <path transform="matrix(-.00551 .00983 .00485 .00272 347.81 508.09)" d="m-18.571-553.35c0 23.669-9.5939 42.857-21.429 42.857s-21.429-19.188-21.429-42.857 9.5939-42.857 21.429-42.857 21.429 19.188 21.429 42.857z"/>
    <path transform="matrix(-.00060084 .01125 .00555 .00029619 354.67 513.51)" d="m-18.571-553.35c0 23.669-9.5939 42.857-21.429 42.857s-21.429-19.188-21.429-42.857 9.5939-42.857 21.429-42.857 21.429 19.188 21.429 42.857z"/>
    <path transform="matrix(-.00060084 .01125 .00555 .00029619 354.1 513.18)" d="m-18.571-553.35c0 23.669-9.5939 42.857-21.429 42.857s-21.429-19.188-21.429-42.857 9.5939-42.857 21.429-42.857 21.429 19.188 21.429 42.857z"/>
    <path transform="matrix(-.00060084 .01125 .00555 .00029619 353.51 512.79)" d="m-18.571-553.35c0 23.669-9.5939 42.857-21.429 42.857s-21.429-19.188-21.429-42.857 9.5939-42.857 21.429-42.857 21.429 19.188 21.429 42.857z"/>
    <path transform="matrix(-.00060084 .01125 .00555 .00029619 352.96 512.37)" d="m-18.571-553.35c0 23.669-9.5939 42.857-21.429 42.857s-21.429-19.188-21.429-42.857 9.5939-42.857 21.429-42.857 21.429 19.188 21.429 42.857z"/>
    <path transform="matrix(-.00060084 .01125 .00555 .00029619 352.45 511.99)" d="m-18.571-553.35c0 23.669-9.5939 42.857-21.429 42.857s-21.429-19.188-21.429-42.857 9.5939-42.857 21.429-42.857 21.429 19.188 21.429 42.857z"/>
    <path transform="matrix(-.00060084 .01125 .00555 .00029619 350.45 510.13)" d="m-18.571-553.35c0 23.669-9.5939 42.857-21.429 42.857s-21.429-19.188-21.429-42.857 9.5939-42.857 21.429-42.857 21.429 19.188 21.429 42.857z"/>
    <path transform="matrix(-.00060084 .01125 .00555 .00029619 350.95 510.65)" d="m-18.571-553.35c0 23.669-9.5939 42.857-21.429 42.857s-21.429-19.188-21.429-42.857 9.5939-42.857 21.429-42.857 21.429 19.188 21.429 42.857z"/>
    <path transform="matrix(-.00060084 .01125 .00555 .00029619 351.44 511.12)" d="m-18.571-553.35c0 23.669-9.5939 42.857-21.429 42.857s-21.429-19.188-21.429-42.857 9.5939-42.857 21.429-42.857 21.429 19.188 21.429 42.857z"/>
    <path transform="matrix(-.00060084 .01125 .00555 .00029619 351.9 511.58)" d="m-18.571-553.35c0 23.669-9.5939 42.857-21.429 42.857s-21.429-19.188-21.429-42.857 9.5939-42.857 21.429-42.857 21.429 19.188 21.429 42.857z"/>
    <path transform="matrix(-.00060084 .01125 .00555 .00029619 355.29 513.86)" d="m-18.571-553.35c0 23.669-9.5939 42.857-21.429 42.857s-21.429-19.188-21.429-42.857 9.5939-42.857 21.429-42.857 21.429 19.188 21.429 42.857z"/>
   </g>
   <path transform="matrix(-.01065 .00367 .00181 .00525 346.33 501.16)" d="m-18.571-553.35c0 23.669-9.5939 42.857-21.429 42.857s-21.429-19.188-21.429-42.857 9.5939-42.857 21.429-42.857 21.429 19.188 21.429 42.857z" stroke="#a46800"/>
   <path transform="matrix(-.01065 .00367 .00181 .00525 346.02 501.78)" d="m-18.571-553.35c0 23.669-9.5939 42.857-21.429 42.857s-21.429-19.188-21.429-42.857 9.5939-42.857 21.429-42.857 21.429 19.188 21.429 42.857z" stroke="#a46800"/>
   <path transform="matrix(-.01065 .00367 .00181 .00525 345.77 502.41)" d="m-18.571-553.35c0 23.669-9.5939 42.857-21.429 42.857s-21.429-19.188-21.429-42.857 9.5939-42.857 21.429-42.857 21.429 19.188 21.429 42.857z" stroke="#a46800"/>
   <path transform="matrix(-.01065 .00367 .00181 .00525 345.57 503.07)" d="m-18.571-553.35c0 23.669-9.5939 42.857-21.429 42.857s-21.429-19.188-21.429-42.857 9.5939-42.857 21.429-42.857 21.429 19.188 21.429 42.857z" stroke="#a46800"/>
   <path transform="matrix(-.01065 .00367 .00181 .00525 345.4 503.76)" d="m-18.571-553.35c0 23.669-9.5939 42.857-21.429 42.857s-21.429-19.188-21.429-42.857 9.5939-42.857 21.429-42.857 21.429 19.188 21.429 42.857z" stroke="#a46800"/>
   <path transform="matrix(-.01065 .00367 .00181 .00525 345.2 506.58)" d="m-18.571-553.35c0 23.669-9.5939 42.857-21.429 42.857s-21.429-19.188-21.429-42.857 9.5939-42.857 21.429-42.857 21.429 19.188 21.429 42.857z" stroke="#a46800"/>
   <path transform="matrix(-.01065 .00367 .00181 .00525 345.14 505.9)" d="m-18.571-553.35c0 23.669-9.5939 42.857-21.429 42.857s-21.429-19.188-21.429-42.857 9.5939-42.857 21.429-42.857 21.429 19.188 21.429 42.857z" stroke="#a46800"/>
   <path transform="matrix(-.01065 .00367 .00181 .00525 345.18 505.18)" d="m-18.571-553.35c0 23.669-9.5939 42.857-21.429 42.857s-21.429-19.188-21.429-42.857 9.5939-42.857 21.429-42.857 21.429 19.188 21.429 42.857z" stroke="#a46800"/>
   <path transform="matrix(-.01065 .00367 .00181 .00525 345.28 504.47)" d="m-18.571-553.35c0 23.669-9.5939 42.857-21.429 42.857s-21.429-19.188-21.429-42.857 9.5939-42.857 21.429-42.857 21.429 19.188 21.429 42.857z" stroke="#a46800"/>
   <path transform="matrix(-.00551 .00983 .00485 .00272 349.5 510.87)" d="m-18.571-553.35c0 23.669-9.5939 42.857-21.429 42.857s-21.429-19.188-21.429-42.857 9.5939-42.857 21.429-42.857 21.429 19.188 21.429 42.857z" stroke="#a46800"/>
   <path transform="matrix(-.00551 .00983 .00485 .00272 349.11 510.34)" d="m-18.571-553.35c0 23.669-9.5939 42.857-21.429 42.857s-21.429-19.188-21.429-42.857 9.5939-42.857 21.429-42.857 21.429 19.188 21.429 42.857z" stroke="#a46800"/>
   <path transform="matrix(-.00551 .00983 .00485 .00272 348.71 509.8)" d="m-18.571-553.35c0 23.669-9.5939 42.857-21.429 42.857s-21.429-19.188-21.429-42.857 9.5939-42.857 21.429-42.857 21.429 19.188 21.429 42.857z" stroke="#a46800"/>
   <path transform="matrix(-.00551 .00983 .00485 .00272 348.38 509.21)" d="m-18.571-553.35c0 23.669-9.5939 42.857-21.429 42.857s-21.429-19.188-21.429-42.857 9.5939-42.857 21.429-42.857 21.429 19.188 21.429 42.857z" stroke="#a46800"/>
   <path transform="matrix(-.00551 .00983 .00485 .00272 348.07 508.7)" d="m-18.571-553.35c0 23.669-9.5939 42.857-21.429 42.857s-21.429-19.188-21.429-42.857 9.5939-42.857 21.429-42.857 21.429 19.188 21.429 42.857z" stroke="#a46800"/>
   <path transform="matrix(-.00551 .00983 .00485 .00272 347.24 506.11)" d="m-18.571-553.35c0 23.669-9.5939 42.857-21.429 42.857s-21.429-19.188-21.429-42.857 9.5939-42.857 21.429-42.857 21.429 19.188 21.429 42.857z" stroke="#a46800"/>
   <path transform="matrix(-.00551 .00983 .00485 .00272 347.34 506.78)" d="m-18.571-553.35c0 23.669-9.5939 42.857-21.429 42.857s-21.429-19.188-21.429-42.857 9.5939-42.857 21.429-42.857 21.429 19.188 21.429 42.857z" stroke="#a46800"/>
   <path transform="matrix(-.00551 .00983 .00485 .00272 347.55 507.44)" d="m-18.571-553.35c0 23.669-9.5939 42.857-21.429 42.857s-21.429-19.188-21.429-42.857 9.5939-42.857 21.429-42.857 21.429 19.188 21.429 42.857z" stroke="#a46800"/>
   <path transform="matrix(-.00551 .00983 .00485 .00272 347.81 508.09)" d="m-18.571-553.35c0 23.669-9.5939 42.857-21.429 42.857s-21.429-19.188-21.429-42.857 9.5939-42.857 21.429-42.857 21.429 19.188 21.429 42.857z" stroke="#a46800"/>
   <path transform="matrix(-.00060084 .01125 .00555 .00029619 354.67 513.51)" d="m-18.571-553.35c0 23.669-9.5939 42.857-21.429 42.857s-21.429-19.188-21.429-42.857 9.5939-42.857 21.429-42.857 21.429 19.188 21.429 42.857z" stroke="#a46800"/>
   <path transform="matrix(-.00060084 .01125 .00555 .00029619 354.1 513.18)" d="m-18.571-553.35c0 23.669-9.5939 42.857-21.429 42.857s-21.429-19.188-21.429-42.857 9.5939-42.857 21.429-42.857 21.429 19.188 21.429 42.857z" stroke="#a46800"/>
   <path transform="matrix(-.00060084 .01125 .00555 .00029619 353.51 512.79)" d="m-18.571-553.35c0 23.669-9.5939 42.857-21.429 42.857s-21.429-19.188-21.429-42.857 9.5939-42.857 21.429-42.857 21.429 19.188 21.429 42.857z" stroke="#a46800"/>
   <path transform="matrix(-.00060084 .01125 .00555 .00029619 352.96 512.37)" d="m-18.571-553.35c0 23.669-9.5939 42.857-21.429 42.857s-21.429-19.188-21.429-42.857 9.5939-42.857 21.429-42.857 21.429 19.188 21.429 42.857z" stroke="#a46800"/>
   <path transform="matrix(-.00060084 .01125 .00555 .00029619 352.45 511.99)" d="m-18.571-553.35c0 23.669-9.5939 42.857-21.429 42.857s-21.429-19.188-21.429-42.857 9.5939-42.857 21.429-42.857 21.429 19.188 21.429 42.857z" stroke="#a46800"/>
   <path transform="matrix(-.00060084 .01125 .00555 .00029619 350.45 510.13)" d="m-18.571-553.35c0 23.669-9.5939 42.857-21.429 42.857s-21.429-19.188-21.429-42.857 9.5939-42.857 21.429-42.857 21.429 19.188 21.429 42.857z" stroke="#a46800"/>
   <path transform="matrix(-.00060084 .01125 .00555 .00029619 350.95 510.65)" d="m-18.571-553.35c0 23.669-9.5939 42.857-21.429 42.857s-21.429-19.188-21.429-42.857 9.5939-42.857 21.429-42.857 21.429 19.188 21.429 42.857z" stroke="#a46800"/>
   <path transform="matrix(-.00060084 .01125 .00555 .00029619 351.44 511.12)" d="m-18.571-553.35c0 23.669-9.5939 42.857-21.429 42.857s-21.429-19.188-21.429-42.857 9.5939-42.857 21.429-42.857 21.429 19.188 21.429 42.857z" stroke="#a46800"/>
   <path transform="matrix(-.00060084 .01125 .00555 .00029619 351.9 511.58)" d="m-18.571-553.35c0 23.669-9.5939 42.857-21.429 42.857s-21.429-19.188-21.429-42.857 9.5939-42.857 21.429-42.857 21.429 19.188 21.429 42.857z" stroke="#a46800"/>
   <path transform="matrix(-.00060084 .01125 .00555 .00029619 355.29 513.86)" d="m-18.571-553.35c0 23.669-9.5939 42.857-21.429 42.857s-21.429-19.188-21.429-42.857 9.5939-42.857 21.429-42.857 21.429 19.188 21.429 42.857z" stroke="#a46800"/>
  </g>
  <path transform="matrix(-.22077 .07599 .03746 .10883 361.86 558.16)" d="m-18.571-553.35c0 23.669-9.5939 42.857-21.429 42.857s-21.429-19.188-21.429-42.857 9.5939-42.857 21.429-42.857 21.429 19.188 21.429 42.857z" fill="none" filter="url(#bc)" opacity=".5556" stroke="#000" stroke-width="3.7741"/>
  <path transform="matrix(-.22077 .07599 .03746 .10883 361.59 557.7)" d="m-18.571-553.35c0 23.669-9.5939 42.857-21.429 42.857s-21.429-19.188-21.429-42.857 9.5939-42.857 21.429-42.857 21.429 19.188 21.429 42.857z" fill="url(#ab)" stroke="#a46800" stroke-width="3.7741"/>
  <g transform="matrix(1.4292 -.56362 .56362 1.4292 -372.26 -12.613)">
   <path d="m318.40473,487.36745 1.14392-.80712c-.51233-.66447-1.25437-1.10154-2.05594-1.23385s-1.61807.0553-2.27053.49351c-.58803.40936-.99308.95198-1.31205,1.48964-.32424.53209-.58569,1.06004-.92699,1.50762-.18955.2475-.39686.47344-.64143.63735v1e-005c-.24338.16234-.5245.27527-.80885.27945-.28095.005-.57861-.0918-.77387-.29555-.0988-.10125-.17553-.22794-.21368-.36576s-.04-.28884.002-.42793 .13454-.2792.2581-.37513 .28109-.1547.44303-.16144 .32958.0382.47017.12968 .25451.22953.31812.39083c-.0467-.16698-.14739-.32147-.28665-.43401s-.3159-.182-.50025-.19336-.3738.0358-.53544.13635-.29218.25292-.36784.43376c-.0723.17409-.0928.36889-.0605.55729s.11401.36669.23374.51725c.2416.29964.61273.4786.99784.5072 .38203.0283.76294-.0705 1.09195-.25026s.60935-.42026.85069-.68177c.43524-.46975.77123-.99396 1.12099-1.45697s.72532-.87612 1.16171-1.09519c.46327-.24627 1.02826-.30393 1.50808-.16913s.91133.4625 1.15361.86753z" fill-rule="evenodd"/>
   <path d="m319.53911,486.56165 1.14392.80712c.24228-.40503.67314-.73589 1.15361-.86753s1.04481-.0771 1.50808.16913c.43639.21907.80672.6378 1.16171,1.09519s.68575.98722 1.12099,1.45697c.24134.26151.52278.50359.85069.68177s.70992.27853 1.09195.25026c.38511-.0286.75624-.20756.99784-.5072 .11973-.15056.20143-.32918.23374-.51725s.0118-.3832-.0605-.55729c-.0757-.18084-.20631-.33304-.36784-.43376s-.35108-.14758-.53544-.13635-.36096.0809-.50025.19336-.23992.26703-.28665.43401c.0636-.1613.17748-.2994.31812-.39083s.30823-.13655.47017-.12968 .31959.0654.44303.16144 .21495.23066.2581.37513 .0403.29044.002.42793-.11486.26451-.21368.36576c-.19526.20373-.49292.30007-.77387.29555s-.56547-.11711-.80885-.27946-.45188-.38985-.64143-.63735c-.3413-.44758-.60275-.97553-.92699-1.50762-.31897-.53766-.72402-1.08028-1.31205-1.48964-.65246-.43816-1.46831-.62266-2.27053-.49351s-1.54361.56938-2.05594,1.23385z" fill-rule="evenodd"/>
   <path transform="translate(224.6 456.68)" d="m93.78742,30.65141c.21959.51869 2.11234.51768 2.36568-.07571l-1.203-.70337z"/>
  </g>
  <g transform="translate(40.055 5.4989)">
   <path d="m317.61 507.02 0.56915 3.0015c2.213 1.1785 3.5171 0.46331 4.6147-0.682l-0.4446-3.3164c-1.3466 0.99649-2.0362 1.556-4.7392 0.99687z" fill="url(#aa)"/>
   <path transform="translate(224.6 465.56)" d="m93.011 41.407 0.64891 3.1046s-1.9867 2.5126-3.0919 1.9849c-0.8762-0.41836-0.31732-2.8955-0.31732-2.8955s-0.9433-2.058-0.29342-2.6775c0.74597-0.71108 3.0537 0.4835 3.0537 0.4835z" fill="url(#z)"/>
   <path d="m322.54 509.62-0.64891-3.1046s1.9867-2.5126 3.0919-1.9849c0.8762 0.41837 0.31732 2.8955 0.31732 2.8955s0.9433 2.058 0.29342 2.6775c-0.74597 0.71108-3.0537-0.4835-3.0537-0.4835z" fill="url(#y)"/>
  </g>
  <path d="m369.5 516.25 2.4928-3.3727 1.0265 1.6863z" fill="#eee"/>
  <path d="m369.75 516.21 2.1862-2.9578 0.90021 1.4789z" fill="url(#au)"/>
  <path d="m368.89 516.48 4.5302-2.3881c0.29897 0.55473 0.28663 1.0576 0.26992 1.5597l-4.6716 2.1788c-0.11627-0.42564-0.31724-0.82305-0.1286-1.3503z" fill="url(#av)"/>
  <path d="m345.13732,538.55445c-1.58898-.78333-3.0231-3.28212-3.85463-6.71624-.67663-2.79443-1.13546-6.69837-1.05619-8.98674 .0607-1.7526.11552-1.99629.55645-2.47377 1.34269-1.45397 4.12232-1.44016 5.83871.029 .43817.37506 1.36886,1.69569 2.24301,3.1828 .82175,1.39796 1.84716,2.9129 2.27868,3.36653l.7846.82478 1.20644-.1261c2.47139-.25831 8.55294-2.74153 14.96347-6.10989 1.8171-.95479 3.56795-1.83638 3.89077-1.9591 1.61419-.61366 2.04975-.90589 2.70072-1.812 .38142-.53091.99283-1.20414 1.3587-1.49607 .58216-.46452 3.07196-1.66164 3.45591-1.66164 .0769,0 .1021.52211.0559,1.16024-.0755,1.04333-.0333,1.21091.41883,1.663 .41673.41673.68494.50276 1.56744.50276 .97382,0 1.1165-.059 1.67189-.69158 .33396-.38036.60856-.75454.6102-.8315s.0836-.26728.18206-.42294c.14796-.23388.25116-.19991.5943.19564 1.47232,1.69718.9359,3.40338-1.44267,4.58867-.88273.43989-1.21323.4877-3.37093.4877-1.31574,0-2.8403-.10342-3.38793-.22983-.969-.22367-1.01135-.21482-1.5801.33008-.32143.30794-.5841.6975-.58371.86568s.26061,1.00147.57827,1.85176l.57755,1.54599-.52935.74869c-.29115.41177-.57428.75056-.62918.75286s-.33879-.21741-.63087-.48824l-.53105-.49241-1.96012,1.51994c-5.61535,4.35432-15.24961,9.39995-20.4838,10.72771-2.22939.56553-4.52816.63007-5.4934.15422z" filter="url(#az)" opacity=".5967"/>
  <g transform="translate(1.0558 -1.7597)">
   <path class="fil39" d="m371.37 524.73s2.6109-2.1821 3.5738-3.4172c2.1098 0.59604 3.2143 0.46969 5.4058 0.53166 1.3858 0.0391 2.5619-0.42642 3.6289-1.3116 0.7156-0.59367 1.3164-1.4854 1.1395-2.3983-0.2221-1.1453-0.7378-1.3022-1.4348-2.2376-0.4245 0.99913-1.0228 2.2417-1.9611 2.3325-1.2739 0.12318-2.2567 0.10129-2.5949-1.4017-0.1692-0.75235 0.1954-1.572 0.5257-2.2873-1.2473 0.73373-3.1695 1.144-4.295 2.0535-0.722 0.58336-1.1372 1.4674-1.7058 2.201-0.88735 0.82599-2.9946 2.2431-2.9946 2.2431z" fill="url(#x)" fill-rule="evenodd"/>
   <path d="m370.91 520.16 1.7233 6.6507 1.1689 0.9804 1.2444-1.7723c-0.81805-2.2913-1.9358-4.5526-1.81-6.9382z" fill="#fff"/>
   <g transform="matrix(.56968 .1945 -.1945 .56968 249.69 180.57)">
    <path d="m381.08 478.5-1.3448-0.41691-0.0191-1.4078 1.333-0.45316 0.84292 1.1277-0.81207 1.1502z" fill="url(#j)" opacity=".858"/>
    <path d="m380.95769,477.90196-.84366-.26157-.0122-.88321 .8363-.2843 .5288.70751-.50947.72157z" fill="url(#q)" opacity=".65"/>
    <path d="m380.16126,477.59221-.0107-.80104 .75848-.25784 .47961.64168c-.29212.18292-.34842.00013-.63127-.0154s-.42141.23013-.59615.43254z" fill="url(#p)" opacity=".65"/>
    <path d="m379.76991,476.7064 .31209.0681 .006.86649-.30549.3662c-.01-.28932-.0122-1.24303-.0129-1.30085z" fill="url(#o)" opacity=".65"/>
    <path d="m381.06228,476.28712-.0753.16184 .52067.7208 .3229.14145z" fill="url(#n)" opacity=".6502"/>
    <path transform="matrix(.70312 0 0 .70312 129.78 274.68)" d="m356.47811,289.56183-.9372-.29241c-.003-.002-.0289-1.86071-.0273-1.92578l.00092-.0387 .92775-.31547c.8661-.2945.92816-.31503.93418-.30892l1.08818,1.45469 .0836.11222-.56317.79794-.56766.80222c-.003.003-.25515-.0735-.93932-.28576zm.85464.23362c-.00057-.0271-.0811-.71259-.084-.71529-.005-.005-1.2245-.37613-1.23056-.37473s-.44059.54598-.43808.54849l1.74791.54809c.003.00015.005-.003.005-.007zm.62123-.75924 .53998-.75528c.002-.004-.0619-.0357-.24185-.12091l-.24748-.11275-.3398.49135-.34813.5039-.0111.0156 .0527.36046 .0527.36426 .003.004 .54004-.75032zm-2.16786-.11478 .21531-.25781-.003-.4961c-.002-.27285-.004-.55132-.005-.61882l-.002-.12273-.20898-.0457-.22233-.0486-.0134-.003 .003.52096c.004.80115.0116,1.33311.0185,1.33067l.21847-.25893zm1.81306-.39922 .36181-.51501c.00091-.004-.73008-.98691-.7471-1.00497-.004-.004-.11223.0314-.59819.19653l-.59567.20435c-.003.003.0145,1.25444.0173,1.25726l1.19661.37202 .36523-.51018zm.87926-.33418-.54393-.72559-.54476-.72572c-.004-.004-.016.0192-.0586.111-.0498.10717-.0535.11671-.0486.12488s.16958.23617.37027.51402l.36487.50518 .22888.10043c.12588.0552.23041.10049.23228.10056s.002-.002-.00042-.005zm-1.87079-1.02188 .61655-.222 .0625-.1122 .0612-.11349-.7338.24056-.88801.29289-.15306.0536 .20833.0422 .20774.04 .61852-.22161z" fill="#fff" filter="url(#a)" opacity=".93"/>
    <path d="m381.0351,476.27607-.0873.15697-.86548.31153-.2964-.0563z" fill="url(#m)" opacity=".6626"/>
    <path d="m380.1 477.67 0.86672 0.26443 0.0574 0.50703-1.2313-0.3858z" fill="url(#l)" opacity=".65"/>
    <path d="m381.5 477.21-0.49205 0.712 0.0746 0.51109 0.75994-1.061z" fill="url(#k)" opacity=".65"/>
   </g>
   <path d="m339.53 522.69c-0.0333-4.2986 6.1884-3.8051 7.7104-0.91141 0 0 2.5579 4.6676 3.7114 5.8641 2.2503 2.334 20.136-7.6827 20.136-7.6827s3.0664 5.4904 1.2068 7.0151c-7.6406 6.2645-22.708 14.163-27.516 12.172-5.1503-2.1327-5.2485-16.457-5.2485-16.457z" fill="url(#w)"/>
  </g>
  <g transform="matrix(.99988 .01547 -.01547 .99988 1939.7 1433.5)">
   <path d="m-1578-887.81s4.6321-37.462 13.796-36.503c29.94 3.1274 53.504 23.913 53.504 23.913z" fill="url(#v)" opacity=".4239"/>
   <path d="m-1564.9-923.58c0.2111-2.3117 28.478 5.3683 51.324 21.766-35.162-21.245-51.532-19.455-51.324-21.766z" fill="#fff" opacity=".1235"/>
  </g>
 </g>
</svg>
