<?xml version="1.0" encoding="UTF-8"?>
<svg viewBox="0 0 300.79999 160.57814" xmlns="http://www.w3.org/2000/svg" xmlns:xlink="http://www.w3.org/1999/xlink">
 <defs>
  <filter id="bb">
   <feGaussianBlur stdDeviation=".275"/>
  </filter>
  <filter id="c">
   <feGaussianBlur stdDeviation=".531"/>
  </filter>
  <filter id="v">
   <feGaussianBlur stdDeviation=".266"/>
  </filter>
  <filter id="be">
   <feGaussianBlur stdDeviation="2.768"/>
  </filter>
  <filter id="bd">
   <feGaussianBlur stdDeviation=".428"/>
  </filter>
  <filter id="bc">
   <feGaussianBlur stdDeviation=".218"/>
  </filter>
  <filter id="ba">
   <feGaussianBlur stdDeviation=".241"/>
  </filter>
  <filter id="az">
   <feGaussianBlur stdDeviation="1.159"/>
  </filter>
  <filter id="b"/>
  <filter id="ay" x="-.0464" y="-.1008" width="1.0929" height="1.2017">
   <feGaussianBlur stdDeviation="1.203"/>
  </filter>
  <filter id="bf" x="-.1029" y="-.0564" width="1.2057" height="1.1129">
   <feGaussianBlur stdDeviation="1.85"/>
  </filter>
  <filter id="w" x="-.1388" y="-.108" width="1.2776" height="1.2159"/>
  <linearGradient id="l">
   <stop stop-color="#666" offset="0"/>
   <stop offset="1"/>
  </linearGradient>
  <linearGradient id="j">
   <stop stop-color="#eee" offset="0"/>
   <stop offset="1"/>
  </linearGradient>
  <linearGradient id="k">
   <stop stop-color="#fff" offset="0"/>
   <stop offset="1"/>
  </linearGradient>
  <linearGradient id="a">
   <stop offset="0"/>
   <stop stop-color="#0f0" offset=".415"/>
   <stop offset="1"/>
  </linearGradient>
  <linearGradient id="e">
   <stop stop-color="#0f0" offset="0"/>
   <stop stop-color="#008000" offset=".415"/>
   <stop offset="1"/>
  </linearGradient>
  <linearGradient id="m">
   <stop stop-color="#c87137" offset="0"/>
   <stop stop-color="#7a5137" offset=".5"/>
   <stop offset="1"/>
  </linearGradient>
  <linearGradient id="d">
   <stop stop-color="#b06d43" offset="0"/>
   <stop stop-color="#b06d43" stop-opacity="0" offset="1"/>
  </linearGradient>
  <linearGradient id="av" x1="368.62" x2="368.86" y1="576.41" y2="564.77" gradientUnits="userSpaceOnUse">
   <stop stop-color="#ccc" offset="0"/>
   <stop stop-color="#808080" offset=".416"/>
   <stop offset="1"/>
  </linearGradient>
  <linearGradient id="au" x1="327.38" x2="330.03" y1="525" y2="522.47" gradientUnits="userSpaceOnUse">
   <stop offset="0"/>
   <stop stop-color="#4d4d4d" offset="1"/>
  </linearGradient>
  <linearGradient id="at" x1="329.18" x2="333.88" y1="523.68" y2="517.89" gradientUnits="userSpaceOnUse">
   <stop offset="0"/>
   <stop stop-color="#b3b3b3" offset="1"/>
  </linearGradient>
  <linearGradient id="o" x1="1868.3" x2="1869.1" y1="444.13" y2="459.75" gradientUnits="userSpaceOnUse">
   <stop stop-color="#0f0" offset="0"/>
   <stop stop-opacity="0" offset="1"/>
  </linearGradient>
  <linearGradient id="n" x1="1871.4" x2="1869.9" y1="481.97" y2="467.03" gradientUnits="userSpaceOnUse">
   <stop offset="0"/>
   <stop stop-opacity="0" offset="1"/>
  </linearGradient>
  <linearGradient id="u" x1="1833.8" x2="1834.5" y1="470.73" y2="485.24" gradientUnits="userSpaceOnUse" xlink:href="#a"/>
  <linearGradient id="t" x1="1876.8" x2="1875.4" y1="453.55" y2="473.11" gradientUnits="userSpaceOnUse" xlink:href="#a"/>
  <linearGradient id="s" x1="1880.4" x2="1879" y1="453.35" y2="472.9" gradientUnits="userSpaceOnUse" xlink:href="#a"/>
  <linearGradient id="r" x1="1884.3" x2="1882.9" y1="452.93" y2="472.49" gradientUnits="userSpaceOnUse" xlink:href="#a"/>
  <linearGradient id="q" x1="1887.8" x2="1886.4" y1="452.73" y2="472.28" gradientUnits="userSpaceOnUse" xlink:href="#a"/>
  <linearGradient id="p" x1="1891.6" x2="1890.2" y1="452.63" y2="472.18" gradientUnits="userSpaceOnUse" xlink:href="#a"/>
  <linearGradient id="ax" x1="-1517.6" x2="-1470.1" y1="2071.6" y2="2078.3" gradientTransform="matrix(-.21878 -.28007 .28007 -.21878 -526.77 551.87)" gradientUnits="userSpaceOnUse" xlink:href="#d"/>
  <linearGradient id="aw" x1="-1364.8" x2="-1319.7" gradientTransform="matrix(-.13447 .27459 .31552 .11702 -444.67 636.45)" gradientUnits="userSpaceOnUse" xlink:href="#d"/>
  <radialGradient id="g" cx="-13393" cy="-8873.2" r="194.82" gradientTransform="matrix(1.3453 -.62558 .37949 .71724 7964.1 -10907)" gradientUnits="userSpaceOnUse">
   <stop stop-color="#eee" offset="0"/>
   <stop stop-color="#aaa" offset="1"/>
  </radialGradient>
  <radialGradient id="f" cx="-13591" cy="-8579.6" r="194.82" gradientTransform="matrix(-.88326 -.49164 .91911 -1.4513 -17436 -28194)" gradientUnits="userSpaceOnUse">
   <stop stop-color="#eee" offset="0"/>
   <stop stop-color="#888" offset="1"/>
  </radialGradient>
  <radialGradient id="ai" cx="2156.4" cy="-2157.7" r=".5421" gradientTransform="matrix(.58201 -.45608 1.6012 2.0433 4356.3 3234.7)" gradientUnits="userSpaceOnUse">
   <stop offset="0"/>
   <stop stop-color="#eee" offset=".44"/>
   <stop stop-color="#888" offset="1"/>
  </radialGradient>
  <radialGradient id="ah" cx="2156.3" cy="-2157.8" r=".3663" gradientTransform="matrix(2.3215 1.6361 -1.1029 1.5648 -5229.3 -2309.3)" gradientUnits="userSpaceOnUse">
   <stop stop-color="#eee" offset="0"/>
   <stop stop-color="#909090" offset=".5"/>
   <stop stop-color="#333" offset="1"/>
  </radialGradient>
  <radialGradient id="ae" cx="166.75" cy="308.72" r="2.2085" gradientTransform="matrix(-23.043 17.199 -14.307 -19.168 8725.1 3592)" gradientUnits="userSpaceOnUse">
   <stop stop-color="#3cd800" offset="0"/>
   <stop offset="1"/>
  </radialGradient>
  <radialGradient id="ad" cx="2138.9" cy="-2156.6" r="2.2045" gradientTransform="matrix(-13.254 15.073 -15.164 -13.335 -4063.6 -60433)" gradientUnits="userSpaceOnUse">
   <stop stop-color="#28d000" offset="0"/>
   <stop offset="1"/>
  </radialGradient>
  <radialGradient id="aa" cx="2156.3" cy="-2157.8" r=".3663" gradientTransform="matrix(-15.463 12.299 8.2902 10.423 51479 -3478.2)" gradientUnits="userSpaceOnUse">
   <stop stop-color="#d6d6d6" offset="0"/>
   <stop stop-color="#828282" offset=".5"/>
   <stop stop-color="#2e2e2e" offset="1"/>
  </radialGradient>
  <radialGradient id="z" cx="2156.4" cy="-2157.7" r=".5421" gradientTransform="matrix(-4.2259 -2.9329 -10.297 14.836 -12859 38889)" gradientUnits="userSpaceOnUse">
   <stop offset="0"/>
   <stop stop-color="#c1c1c1" offset=".44"/>
   <stop stop-color="#6e6e6e" offset="1"/>
  </radialGradient>
  <radialGradient id="y" cx="161.1" cy="307.88" r="10.651" gradientTransform="matrix(12.375 .52837 -.06402 1.5002 -1583.2 17.946)" gradientUnits="userSpaceOnUse">
   <stop stop-color="#980101" offset="0"/>
   <stop offset="1"/>
  </radialGradient>
  <radialGradient id="x" cx="-9739.8" cy="-7042" r="1212.9" gradientTransform="matrix(-.01573 -.08288 .21017 -.03988 1820.3 -568.15)" gradientUnits="userSpaceOnUse">
   <stop stop-color="#a0f000" offset="0"/>
   <stop stop-color="#00b400" offset=".148"/>
   <stop stop-color="#040" offset="1"/>
  </radialGradient>
  <radialGradient id="i" cx="1867.9" cy="462.47" r="6.9982" gradientTransform="matrix(1.4029 -.08196 .18527 3.1714 -836.99 -851.94)" gradientUnits="userSpaceOnUse">
   <stop stop-color="#0f0" offset="0"/>
   <stop stop-color="#008000" offset=".452"/>
   <stop offset="1"/>
  </radialGradient>
  <radialGradient id="aq" cx="944.46" cy="482.29" r="46.624" fx="948.73" fy="480.5" gradientTransform="matrix(.16928 1.549 -.56802 .06207 258.96 -1099.8)" gradientUnits="userSpaceOnUse">
   <stop stop-color="#0f0" offset="0"/>
   <stop stop-color="#008000" offset=".449"/>
   <stop offset="1"/>
  </radialGradient>
  <radialGradient id="ag" cx="1009.9" cy="679.48" r="108.61" gradientTransform="matrix(.05108 .30804 -.4361 .07231 610.19 138.95)" gradientUnits="userSpaceOnUse">
   <stop stop-color="#b46632" offset="0"/>
   <stop stop-color="#6e4932" offset=".5"/>
   <stop offset="1"/>
  </radialGradient>
  <radialGradient id="af" cx="1073.3" cy="727.32" r="23.731" gradientTransform="matrix(.61791 -.00679 .01034 .94065 -486.8 -189.54)" gradientUnits="userSpaceOnUse">
   <stop stop-color="#00a700" offset="0"/>
   <stop stop-color="#050" offset=".415"/>
   <stop offset="1"/>
  </radialGradient>
  <radialGradient id="h" cx="-13317" cy="-8948.9" r="194.82" gradientTransform="matrix(-.9316 .49311 -.40216 -.66778 -29485 -8234.1)" gradientUnits="userSpaceOnUse" xlink:href="#j"/>
  <radialGradient id="ac" cx="170.08" cy="313.83" r="1.0843" gradientTransform="matrix(.77515 -10.195 -28.281 -2.1504 8974.5 2978.4)" gradientUnits="userSpaceOnUse" xlink:href="#k"/>
  <radialGradient id="ab" cx="170.88" cy="313.19" r="1.0843" gradientTransform="matrix(-2.5338 -11.55 25.275 -5.5449 -6973.7 4276.5)" gradientUnits="userSpaceOnUse" xlink:href="#k"/>
  <radialGradient id="as" cx="1012.3" cy="692.44" r="108.61" gradientTransform="matrix(-.05686 -.21511 .3762 -.09944 158.12 800.28)" gradientUnits="userSpaceOnUse" xlink:href="#m"/>
  <radialGradient id="ar" cx="1946.6" cy="579.16" r="10.894" gradientTransform="matrix(.51818 -.11185 .21451 .99379 -984.03 73.909)" gradientUnits="userSpaceOnUse" xlink:href="#e"/>
  <radialGradient id="ap" cx="952.3" cy="525.68" r="10.098" gradientTransform="matrix(2.1189 .3942 -.36374 1.9551 -874.22 -878.27)" gradientUnits="userSpaceOnUse" xlink:href="#e"/>
  <radialGradient id="ao" cx="961.67" cy="600.93" r="31.278" gradientTransform="matrix(.77325 -.00655 .00321 .37897 -451.23 154.04)" gradientUnits="userSpaceOnUse" xlink:href="#d"/>
  <radialGradient id="an" cx="2147.7" cy="-2160.3" r="2.6974" gradientTransform="matrix(22.66 7.9655 -7.0556 20.072 -65457 25340)" gradientUnits="userSpaceOnUse" xlink:href="#j"/>
  <radialGradient id="am" cx="2144.2" cy="-2159.6" r=".3797" gradientTransform="matrix(-1.718 3.9258 -21.746 -9.5167 -42851 -28497)" gradientUnits="userSpaceOnUse" xlink:href="#l"/>
  <radialGradient id="al" cx="2144.2" cy="-2159.6" r=".3797" gradientTransform="matrix(3.9258 1.718 -9.5167 21.746 -28548 43744)" gradientUnits="userSpaceOnUse" xlink:href="#l"/>
  <radialGradient id="ak" cx="920.8" cy="763.97" r="29.313" gradientTransform="matrix(.54655 .04773 -.06452 .73878 -325.77 -113.28)" gradientUnits="userSpaceOnUse" xlink:href="#e"/>
  <radialGradient id="aj" cx="1016.9" cy="672.9" r="108.61" gradientTransform="matrix(.06177 .25133 -.59787 .14694 696.5 163.47)" gradientUnits="userSpaceOnUse" xlink:href="#m"/>
 </defs>
 <g transform="translate(-224.6 -447.46)">
  <path d="m335.7218,529.7764c0-1.7437-.3686-2.977-2.2144-7.4089-2.0774-4.988-2.3873-6.192-2.4045-9.3415-.018-3.3062.4422-5.2063 2.0613-8.511l.6595-1.346-.4265-.4452c-1.4785-1.5436-1.2417-4.5029.4207-5.2577 1.1896-.5401 2.5589-.3228 4.6721.7414 .9348.4708 2.7734,1.1263 2.853,1.0172 .0161-.0221-.0412-.6746-.1273-1.45l-.1566-1.4099-1.0118-.1909c-1.7771-.3353-2.7993-1.1681-3.1805-2.5913-.0864-.3223-.2326-2.0883-.3249-3.9243-.2576-5.1225-.3896-6.1797-1.0162-8.142-.8164-2.5564-2.023-4.1991-4.1592-5.6622-1.6112-1.1036-2.2185-1.7258-2.6653-2.731-.3589-.8075-.4051-1.1591-.6622-5.0411-.1127-1.7017-.2306-2.9291-.262-2.7276-.0555.3558-.1166.3673-2.122.3962-1.1357.0164-2.2243.0217-2.4191.0117-.3054-.0156-.3456.0533-.2915.4994 .0345.2846.0988,1.0036.1428,1.5977l.08,1.0801-1.8752.1172c-1.0314.0644-1.901.0913-1.9326.0597s-.1106-2.1911-.1757-4.7988l-.1183-4.7414 .9596-.1067 1.7331-.1998 .7735-.0931 .002.9516c.001.5234.0485,1.2345.1056,1.5802l.1038.6286 1.2572-.0962c.6914-.0529 1.7704-.1439 2.3978-.2022l1.1406-.106-.0201-1.8105c-.0191-1.7212.004-1.8535.4633-2.6831 .8244-1.4884 2.3682-2.5532 4.7333-3.2647 1.6126-.4851 12.4293-1.8064 14.788-1.8064 1.6516,0 1.9294.0428 2.6025.4007 1.4397.7655 2.3699,2.1343 3.2737,4.8175l.5735,1.7026 1.1842-.0317c.6513-.0174 1.5003-.0776 1.8867-.1337 .657-.0953.697-.1302.6175-.5382-.0467-.24-.1326-.9252-.1909-1.5228l-.1059-1.0865 .7097-.0913c.3903-.0502 1.1452-.1109 1.6775-.1348l.9678-.0434 .6754,4.1524c.3715,2.2838.7173,4.4164.7686,4.739l.0932.5866-1.8725.2001c-1.0299.11-1.8956.1758-1.9239.1462s-.1306-.706-.2274-1.5029-.1956-1.4685-.2196-1.4923-.7764.0797-1.6721.23l-1.6284.2733-.1034,1.7075c-.1132,1.8698-.3469,2.6956-1.3001,4.594-1.6081,3.2028-1.955,5.5213-1.5125,10.1101 .1644,1.7046.2854,4.3443.2851,6.2187-.0005,2.8359-.0463,3.4252-.3549,4.5595-.8555,3.1452-2.3567,4.8744-4.8882,5.6307-.39.1165-.7393.2907-.7763.3872-.1067.2781.3376,2.2573.5204,2.3182 .0908.0303.6382-.2419 1.2164-.6048 2.7171-1.7053 4.4024-2.1551 5.4985-1.4673 .9977.626 1.2935,2.2001.6976,3.7119l-.3104.7874 .8383.2977c3.1881,1.1323 4.9382,3.8749 5.6709,8.8869 .2686,1.8377.2272,9.208-.0801,14.2384-.2733,4.4737-.1128,4.1067-2.0648,4.7233-3.5461,1.1202-8.236,1.61-17.3815,1.815l-4.9259.1105v-1.2871z" filter="url(#bf)" opacity=".708" stroke="#008000" stroke-linejoin="round" stroke-width=".0163"/>
  <g transform="matrix(-.19651 -.9805 .9805 -.19651 -48.205 783.51)">
   <path d="m179.6438,470.7937c2.0024,2.0028 1.6875,4.4128 1.2926,6.3516-.557,2.7353-4.8323,4.8461-5.0387,6.0558-1.0538,1.7595.2094,4.7243 2.6578,2.9508 .7846-1.1137 2.9076-1.7842 1.4649.5136-1.4596,2.1608-2.9022,4.3138-3.3714,6.012-.611,2.2117.861,2.7097 2.3447,2.4846-.9012,3.7315.3871,4.3823 2.4034,4.0089 .8899,3.7319 3.8201,1.8101 5.419-.6664-1.3013,2.1311 1.2401,3.5078 2.0762,1.5892 0,0 5.599-12.267 1.8212-16.1497-.9281-.9539-2.1962-3.915-2.1962-3.915-1.4248-2.5399-1.7035-5.8955-2.0986-9.2431z" fill="url(#af)"/>
   <path d="m186.1212,480.8-.0768-7.1034c-.0178-1.6438.8109-1.1434.8967.3257 .421,7.206.2264,7.1292 3.7041,10.0453-1.5547-2.0995-2.6295-4.2198-2.7266-6.505-.0757-1.78-.6037-3.7596-.9619-6.0887l-7.0444-.3332c2.839,2.9208.6399,6.7151.544,9.8854l1.2687-2.1365 .0128,2.6767c.0242-.8912-.1653-1.6545.4773-2.9166l.9244.6194c-.9046-1.8242-.2996-2.1977.0436-5.4624 .2987-2.8394 1.932-1.2274 2.1132-.1877 .1635.9375.5444,4.7159.8248,7.181z" fill="#003800" opacity=".379"/>
   <path d="m184.33 484.63c-3.4296 10.499-5.8033 12.871-4.3823 13.662 1.4843 0.8266 4.4376-4.8323 6.477-11.991-1.5734 9.8566-4.4046 13.649-6.9329 12.631-0.7546-0.3038-1.2855-1.8583-4e-3 -3.8181 1.087-1.66 2.3299-4.7447 4.8403-10.485z" fill="#003800" opacity=".473"/>
   <path d="m182.2457,497.9617c-.4362,3.295 2.0309,2.9711 3.74.2959 1.4609-2.2867 2.453-6.2715 2.4981-10.524-.3327,3.7815.0512,7.8407-1.7858,11.0393-3.5468,3.8719-4.6624,2.4773-5.4467.3651z" fill="#003800" opacity=".621"/>
   <path d="m177.9265,486.3467c-.5363-.5774 6.1282-5.5456 3.0279-.0345-3.7255,6.6222-4.4355,9.3327-1.3922,8.9283-1.3424.2999-3.1557.6768-3.0728-1.773 .0992-2.9338 5.3292-7.8523 4.0307-8.473-.7073-.3381-2.5935,1.3524-2.5935,1.3524z" fill="#008700" opacity=".346"/>
   <path d="m180.9596,477.298c.011.009-.9161,2.9864-2.7461,4.3859-2.2357,1.7532-2.9197,5.4467.36,4.0321 0,0-1.6549,2.4507-3.1348-.6162-.5209-1.0794.8994-3.0966 2.1106-3.7741 2.3354-1.3063 3.4103-4.0277 3.4103-4.0277z" fill="#008700" opacity=".337"/>
   <path d="m188.44 492.5c-1.1124 5.7648-1.7814 7.5042-1.0076 7.6314 2.2611 0.3717 5.7218-12.429 2.8433-16.394 4.2133 2.3964 0.1696 17.729-2.8778 17.31-2.1652-0.2981-0.8384-3.2684 1.0421-8.5469z" fill="#003800" opacity=".593"/>
  </g>
  <path d="m382.96 503.6s-4.1809 2.6817-7.3284 4.17c-5.0959 2.4096-7.9034 6.1502-10.11-8.0201-1.6792-5.6967-14.122-2.3296-10.96 3.5491 4.3819 8.1484 4.2352 10.24 5.8702 14.06 2.7357 6.3929 2.5421 6.5344 8.2223 4.5423 5.1483-1.8056 12.833-6.3832 19.52-10.388z" fill="url(#ag)"/>
  <g transform="matrix(.56993 -.82169 .82169 .56993 -251.39 534.88)">
   <path transform="matrix(1 0 0 -1 0 1016.2)" d="m384.35 514.55s5.731-0.4441 2.8741-2.7805c-0.9267-0.7578-2.2748-2.3125-2.8349-3.9556-0.7376-2.6339-1.7771-4.0338-3.5461-6.1832l-3.7149 1.7717c2.3339 2.4896 7.2217 11.148 7.2217 11.148z" filter="url(#ba)" opacity=".687"/>
   <path d="m385.39 501.89s5.731 0.4441 2.8741 2.7805c-0.9267 0.7578-2.2748 2.3125-2.8349 3.9556-0.7376 2.6339-1.7771 4.0338-3.5461 6.1832l-3.7149-1.7717c2.3339-2.4896 7.2217-11.148 7.2217-11.148z" fill="url(#aw)"/>
  </g>
  <path transform="matrix(.73523 -.30199 .30199 .73523 109.37 198.73)" d="m143.09 468.16h8.5226v8.8216h-8.5226z" fill="#800000" opacity=".387"/>
  <g transform="matrix(.28248 0 0 .28248 -179.11 327.85)" fill="none" stroke="#000" stroke-width=".7">
   <path d="m1894.6 607.57 3.6829 2.3108"/>
   <path d="m1896.9 606.92-1.2276 3.4663"/>
  </g>
  <g transform="matrix(.28248 0 0 .28248 -177.81 327.22)" fill="none" stroke="#000" stroke-width=".7">
   <path d="m1894.6 607.57 3.6829 2.3108"/>
   <path d="m1896.9 606.92-1.2276 3.4663"/>
  </g>
  <g transform="matrix(.28248 0 0 .28248 -176.19 326.58)" fill="none" stroke="#000" stroke-width=".7">
   <path d="m1894.6 607.57 3.6829 2.3108"/>
   <path d="m1896.9 606.92-1.2276 3.4663"/>
  </g>
  <g transform="matrix(.28248 0 0 .28248 -174.59 325.96)" fill="none" stroke="#000" stroke-width=".7">
   <path d="m1894.6 607.57 3.6829 2.3108"/>
   <path d="m1896.9 606.92-1.2276 3.4663"/>
  </g>
  <g transform="matrix(.28248 0 0 .28248 -179.05 329.29)" fill="none" stroke="#000" stroke-width=".7">
   <path d="m1894.6 607.57 3.6829 2.3108"/>
   <path d="m1896.9 606.92-1.2276 3.4663"/>
  </g>
  <g transform="matrix(.28248 0 0 .28248 -178.05 331.97)" fill="none" stroke="#000" stroke-width=".7">
   <path d="m1894.6 607.57 3.6829 2.3108"/>
   <path d="m1896.9 606.92-1.2276 3.4663"/>
  </g>
  <g transform="matrix(.28248 0 0 .28248 -178.55 330.72)" fill="none" stroke="#000" stroke-width=".7">
   <path d="m1894.6 607.57 3.6829 2.3108"/>
   <path d="m1896.9 606.92-1.2276 3.4663"/>
  </g>
  <g transform="matrix(.28248 0 0 .28248 -176.34 334.08)" fill="none" stroke="#000" stroke-width=".7">
   <path d="m1894.6 607.57 3.6829 2.3108"/>
   <path d="m1896.9 606.92-1.2276 3.4663"/>
  </g>
  <g transform="matrix(.28248 0 0 .28248 -175.05 333.45)" fill="none" stroke="#000" stroke-width=".7">
   <path d="m1894.6 607.57 3.6829 2.3108"/>
   <path d="m1896.9 606.92-1.2276 3.4663"/>
  </g>
  <g transform="matrix(.28248 0 0 .28248 -173.52 332.96)" fill="none" stroke="#000" stroke-width=".7">
   <path d="m1894.6 607.57 3.6829 2.3108"/>
   <path d="m1896.9 606.92-1.2276 3.4663"/>
  </g>
  <g transform="matrix(.28248 0 0 .28248 -172 332.25)" fill="none" stroke="#000" stroke-width=".7">
   <path d="m1894.6 607.57 3.6829 2.3108"/>
   <path d="m1896.9 606.92-1.2276 3.4663"/>
  </g>
  <g transform="matrix(.28248 0 0 .28248 -172.71 326.93)" fill="none" stroke="#000" stroke-width=".7">
   <path d="m1894.6 607.57 3.6829 2.3108"/>
   <path d="m1896.9 606.92-1.2276 3.4663"/>
  </g>
  <g transform="matrix(.28248 0 0 .28248 -171.36 330.16)" fill="none" stroke="#000" stroke-width=".7">
   <path d="m1894.6 607.57 3.6829 2.3108"/>
   <path d="m1896.9 606.92-1.2276 3.4663"/>
  </g>
  <g transform="matrix(.28248 0 0 .28248 -172.06 328.54)" fill="none" stroke="#000" stroke-width=".7">
   <path d="m1894.6 607.57 3.6829 2.3108"/>
   <path d="m1896.9 606.92-1.2276 3.4663"/>
  </g>
  <g transform="matrix(.28248 0 0 .28248 -170.89 331.61)" fill="none" stroke="#000" stroke-width=".7">
   <path d="m1894.6 607.57 3.6829 2.3108"/>
   <path d="m1896.9 606.92-1.2276 3.4663"/>
  </g>
  <g transform="matrix(.28248 0 0 .28248 -173.31 325.61)" fill="none" stroke="#000" stroke-width=".7">
   <path d="m1894.6 607.57 3.6829 2.3108"/>
   <path d="m1896.9 606.92-1.2276 3.4663"/>
  </g>
  <g transform="matrix(.28248 0 0 .28248 -177.58 333.22)" fill="none" stroke="#000" stroke-width=".7">
   <path d="m1894.6 607.57 3.6829 2.3108"/>
   <path d="m1896.9 606.92-1.2276 3.4663"/>
  </g>
  <path transform="matrix(.73523 -.30199 .30199 .73523 109.37 198.73)" d="m147.55 469.47h2.9397v3.0429h-2.9397z" fill="#ff7f2a" opacity=".387"/>
  <path transform="matrix(.73523 -.30199 .30199 .73523 109.37 198.73)" d="m144.62 472.58h2.9397v3.0429h-2.9397z" fill="#ff7f2a" opacity=".387"/>
  <g transform="translate(-3.0426,-1.5213)">
   <path d="m340.56 530.04c4.2065-0.2885 18.428 0.3631 24.387-2.6445 1.0477-17.904 2.0495-27.597-9.6745-28.132l-15.953 1.7553c-8.9611 14.814 2.7969 21.489 1.241 29.021z" fill="url(#as)"/>
   <path transform="matrix(.65373 -.26851 .26851 .65373 145.53 224.89)" d="m113.56 490.07h8.5226v8.8216h-8.5226z" fill="#ff7f2a" opacity=".387"/>
   <g transform="matrix(.25116 0 0 .25116 -124.41 361.82)" fill="none" stroke="#000" stroke-width=".7">
    <path d="m1894.6 607.57 3.6829 2.3108"/>
    <path d="m1896.9 606.92-1.2276 3.4663"/>
   </g>
   <g transform="matrix(.25116 0 0 .25116 -123.26 361.26)" fill="none" stroke="#000" stroke-width=".7">
    <path d="m1894.6 607.57 3.6829 2.3108"/>
    <path d="m1896.9 606.92-1.2276 3.4663"/>
   </g>
   <g transform="matrix(.25116 0 0 .25116 -121.82 360.7)" fill="none" stroke="#000" stroke-width=".7">
    <path d="m1894.6 607.57 3.6829 2.3108"/>
    <path d="m1896.9 606.92-1.2276 3.4663"/>
   </g>
   <g transform="matrix(.25116 0 0 .25116 -120.4 360.14)" fill="none" stroke="#000" stroke-width=".7">
    <path d="m1894.6 607.57 3.6829 2.3108"/>
    <path d="m1896.9 606.92-1.2276 3.4663"/>
   </g>
   <g transform="matrix(.25116 0 0 .25116 -124.37 363.11)" fill="none" stroke="#000" stroke-width=".7">
    <path d="m1894.6 607.57 3.6829 2.3108"/>
    <path d="m1896.9 606.92-1.2276 3.4663"/>
   </g>
   <g transform="matrix(.25116 0 0 .25116 -123.47 365.49)" fill="none" stroke="#000" stroke-width=".7">
    <path d="m1894.6 607.57 3.6829 2.3108"/>
    <path d="m1896.9 606.92-1.2276 3.4663"/>
   </g>
   <g transform="matrix(.25116 0 0 .25116 -123.92 364.38)" fill="none" stroke="#000" stroke-width=".7">
    <path d="m1894.6 607.57 3.6829 2.3108"/>
    <path d="m1896.9 606.92-1.2276 3.4663"/>
   </g>
   <g transform="matrix(.25116 0 0 .25116 -121.95 367.36)" fill="none" stroke="#000" stroke-width=".7">
    <path d="m1894.6 607.57 3.6829 2.3108"/>
    <path d="m1896.9 606.92-1.2276 3.4663"/>
   </g>
   <g transform="matrix(.25116 0 0 .25116 -120.81 366.8)" fill="none" stroke="#000" stroke-width=".7">
    <path d="m1894.6 607.57 3.6829 2.3108"/>
    <path d="m1896.9 606.92-1.2276 3.4663"/>
   </g>
   <g transform="matrix(.25116 0 0 .25116 -119.44 366.37)" fill="none" stroke="#000" stroke-width=".7">
    <path d="m1894.6 607.57 3.6829 2.3108"/>
    <path d="m1896.9 606.92-1.2276 3.4663"/>
   </g>
   <g transform="matrix(.25116 0 0 .25116 -118.1 365.74)" fill="none" stroke="#000" stroke-width=".7">
    <path d="m1894.6 607.57 3.6829 2.3108"/>
    <path d="m1896.9 606.92-1.2276 3.4663"/>
   </g>
   <g transform="matrix(.25116 0 0 .25116 -118.72 361)" fill="none" stroke="#000" stroke-width=".7">
    <path d="m1894.6 607.57 3.6829 2.3108"/>
    <path d="m1896.9 606.92-1.2276 3.4663"/>
   </g>
   <g transform="matrix(.25116 0 0 .25116 -117.52 363.88)" fill="none" stroke="#000" stroke-width=".7">
    <path d="m1894.6 607.57 3.6829 2.3108"/>
    <path d="m1896.9 606.92-1.2276 3.4663"/>
   </g>
   <g transform="matrix(.25116 0 0 .25116 -118.15 362.44)" fill="none" stroke="#000" stroke-width=".7">
    <path d="m1894.6 607.57 3.6829 2.3108"/>
    <path d="m1896.9 606.92-1.2276 3.4663"/>
   </g>
   <g transform="matrix(.25116 0 0 .25116 -117.11 365.16)" fill="none" stroke="#000" stroke-width=".7">
    <path d="m1894.6 607.57 3.6829 2.3108"/>
    <path d="m1896.9 606.92-1.2276 3.4663"/>
   </g>
   <g transform="matrix(.25116 0 0 .25116 -119.26 359.83)" fill="none" stroke="#000" stroke-width=".7">
    <path d="m1894.6 607.57 3.6829 2.3108"/>
    <path d="m1896.9 606.92-1.2276 3.4663"/>
   </g>
   <g transform="matrix(.25116 0 0 .25116 -123.05 366.6)" fill="none" stroke="#000" stroke-width=".7">
    <path d="m1894.6 607.57 3.6829 2.3108"/>
    <path d="m1896.9 606.92-1.2276 3.4663"/>
   </g>
   <path transform="matrix(.65373 -.26851 .26851 .65373 145.53 224.89)" d="m114.92 491.21h2.9397v3.0429h-2.9397z" fill="#b35543" opacity=".387"/>
   <path transform="matrix(.65373 -.26851 .26851 .65373 145.53 224.89)" d="m118.25 494.4h2.9397v3.0429h-2.9397z" fill="#b35543" opacity=".387"/>
   <path transform="matrix(.65373 -.26851 .26851 .65373 145.53 224.89)" d="m114.6 494.4h2.9397v3.0429h-2.9397z" fill="#a14936" opacity=".387"/>
  </g>
  <path transform="matrix(12.415 0 0 12.415 -26187 27325)" d="m2139.3204-2158.7487c-.9656.1699-1.9357.3379-2.8998.5009-.2646-.3149-.5498-.6573-.9281-.8331-.321-.07-.8244.1984-.6469.5786 .078.1598.1976.3309.2491.4835-.5641.093-1.0712-.219-1.6073-.3536-.3626-.1149-.7052-.2688-1.0674-.3629-.2068-.085-.554-.1883-.6978.06-.1262.3825-.2641.7628-.3992,1.1398-.022.1691-.2845.092-.4115.1467-.7903.1047-1.7074.2893-2.1532,1.0299-.1636.2152-.2408.4881-.3417.7253-.354.2105-.4929.8244-.1111,1.0795 .4246.3404 1.0264.2046 1.488.025 .1691-.025.3412-.015.5116-.017 .043.8767.7491,1.7405 1.6461,1.8162 .447.03.9198.01 1.2952-.2652 .4757-.2902.8021-.7986.892-1.3461 .2138.2209.5731.077.8489.1352 2.9527.09 5.9063.1769 8.8588.2586 .1458.038.2483-.2409.3361-.07 .2544.696.9005,1.2478 1.6461,1.3193 .7686.071 1.5435-.3397 1.8979-1.0273 .041-.2236.2175-.2508.4191-.2141 .7588-.01 1.5694.2341 2.2851-.1221 .5286-.2111.6432-.9392.2906-1.3554-.088-.119-.1974-.2256-.3255-.3001 .3548-.9266.6498-1.9947.2666-2.96-.3986-.9191-1.4742-1.3281-2.4202-1.2965-1.1066-.053-2.2.1326-3.2909.288-1.7791.3289-3.6311.575-5.6306.9369z" filter="url(#bb)" opacity=".741"/>
  <g transform="matrix(12.385 .86758 -.86758 12.385 -28056 25392)">
   <path d="m2140.2442-2157.2282-3.2503-.7989c0,.059.02.1114-.052.2139 .013.067.023.1353-.054.2248 .01.08.034.1635-.069.2215 0,.068.031.134-.052.2133 .025.071.02.1346-.057.1827 .01.094 0,.1809-.06.2521 .035.095-.017.1786-.071.2624z"/>
   <path d="m2136.9392-2157.8166 .1019.062 2.6404.6413 .074-.019-2.6551-.6753z" fill="#666"/>
   <path d="m2136.8777-2157.6 .1019.062 2.2812.5171 .066-.019-2.2882-.551z" fill="#666"/>
   <path d="m2136.8177-2157.3686 .1019.062 1.828.392 .085-.019-1.8543-.426z" fill="#4d4d4d"/>
   <path d="m2136.757-2157.1496 .1019.062 1.367.2839 .082-.019-1.3894-.3179z" fill="#4d4d4d"/>
   <path d="m2136.71-2156.959 .1019.062 .9004.1952 .097-.015-.9385-.2332z" fill="#4d4d4d"/>
   <path d="m2136.6467-2156.7305 .1019.062 .4714.074 .097-.023-.5094-.1036z" fill="#4d4d4d"/>
   <path d="m2137-2158 0.1019 0.062 3.1418 0.7398 0.058-0.012-3.1409-0.7777z" fill="#666"/>
  </g>
  <path d="m326.77 532.36s-1.4575-6.1517-4.8443-10.543c-0.745-0.956-0.9933-2.6544 0.2979-3.624 0.8939-0.6704 2.9263-1.6251 2.9263-1.6251 1.4103-0.6208 2.8666 0.4594 4.061 1.2167 4.5687 2.894 10.853 12.06 10.853 12.06z" fill="url(#at)"/>
  <path d="m327.3657,532.4578c0,0-2.7375-7.5981-5.0107-10.4772-.5091-.6208-.6705-1.7418.1986-2.3775 .5959-.4345 1.9579-1.0677 1.9579-1.0677 .9435-.4097 1.9467.2607 2.7176.7946 3.9605,2.7574 8.5417,11.5697 8.5417,11.5697z" fill="url(#au)"/>
  <g transform="translate(-21.298 38.413)">
   <path d="m423.448,468.2561c-1.018-.4594-2.7449-1.105-3.4787.5835-.7325,1.6835.5835,2.8741 1.7878,3.4427l16.0416,7.0336c1.8821.8442 3.141,1.0801 3.8487-.4842 .7077-1.5668-.6704-2.6717-1.9864-3.2379-.1242-.1242-13.9037-6.2775-16.2117-7.3366z" fill="url(#am)"/>
   <path d="m414.3315,475.9612c-.4594,1.018-1.105,2.745.5835,3.4787 1.6835.7325 2.8741-.5835 3.4427-1.7878l7.6415-16.0242c.8443-1.8821 1.0801-3.141-.4842-3.8487-1.5668-.7077-2.6717.6704-3.2378,1.9864-.1242.1242-6.8855,13.8863-7.9445,16.1943z" fill="url(#al)"/>
  </g>
  <g transform="matrix(-.22744 -.97379 .97379 -.22744 -53.842 752.4)">
   <path d="m124.4442,478.6441c0,0 3.513,5.5992 1.5454,7.6038-1.7759,1.8093-5.5116,6.3765-6.0549,7.6098-1.7998,3.3727-.3383,4.3395 1.5743,4.5703-.0577,1.4156-.5869,3.2606-.2196,4.5341 .6536,2.2663 2.5923,3.2531 4.0069.5686-.6913,3.0271 3.7814,4.379 4.5989,1.0661 .3372,2.2574 3.5876,3.1731 4.2302.0999l1.4167-9.129c.058-.7241 1.1654-.9754 1.6136-.4212 1.5308,2.0878 2.7313.9629 3.0398-.5758 1.1023-5.5174-3.0933-6.2557-4.75-9.4133l-1.4905-6.4341z" fill="url(#ak)"/>
   <path d="m127.77 490.45c-0.9758 4.3734-2.4934 8.6906-2.5726 13.157 0.3281 3.7721 3.8462 3.7127 4.5204 0.771-0.2917-5.0581 1.1382-10.305 2.2236-15.607 0 0-2.6307 8.9416-2.8424 12.063 0.7865 5.2257-3.7902 7.1535-3.3144 1.4764 0.3393-2.5717 1.3159-7.8653 1.9855-11.86z" fill="#005600" opacity=".601"/>
   <path d="m129.7791,503.028c1.1068,4.0957 2.8621,1.0722 3.1725-.0477 1.2239-4.4167.2878-11.6039 5.0564-8.7513 1.2669-1.2487 1.0362-3.243-3.0115-7.5382-1.7958-1.9056-.6547-4.101-1.5118-6.2801l.97.1007 1.0556,5.0871c1.7066,2.2884 4.3408,2.5285 4.891,7.3707-.3159,2.028-.585,4.148-2.6897,2.662-.8952-.4588-1.8005-2.3118-2.6587,2.3636-.6791,14.6061-6.512,6.1788-5.2738,5.0333z" fill="#005600" opacity=".387"/>
   <path d="m131.9664,481.2334c0,0 .6936,1.1942.2569,1.71-.6621.7821.4566,3.04.4566,3.04 .0737-2.5007 1.3197-3.3111-.7136-4.7499z" fill="#005600" opacity=".724"/>
   <path d="m123.35 491.58c-1.3863 6.2218-1.7941 16.071 1.6656 11.561-1.6346 4.5399-4.5325 0.5104-3.3967-4.4476 0.5724-2.499 0.8468-5.2134 1.7311-7.1132z" fill="#005600" opacity=".444"/>
   <path d="m126.39 485.56c-0.4506 2.4575-1.775 2.431-4.2314 5.9376-2.437 3.479-3.5201 6.3207-0.631 6.7555-6.702-0.8681 1.89-8.1241 4.8623-12.693z" fill="#00cf00" opacity=".646"/>
  </g>
  <path d="m241.62 568.16 258.44 8.7291s52.357-80.926-31.939-70.566c-61.205 7.5223-115.78 20.554-202.68 32.402-27.949 3.8102-23.816 29.435-23.816 29.435z" fill="url(#x)"/>
  <path d="m241.87 568.09 257.89 8.8731 6.0107-10.018-264.47-3.5777z" fill="url(#y)" opacity=".247"/>
  <path d="m320.85 530.56s-1.9343 12.104 0.9808 16.41c3.0554 4.5154 9.6863 7.937 15.05 8.9091 13.898 2.5215 35.584 6.3119 44.692-4.4844 6.3603-7.5397-4.539-30.355-4.539-30.355" fill="none" opacity=".547" stroke="#00ac00" stroke-width="2.483"/>
  <path transform="matrix(.11179 .00844 -.00901 .11924 1889.7 1729.3)" d="m-13316-8764.2c0 100.87-87.224 182.65-194.82 182.65s-194.82-81.773-194.82-182.65 87.225-182.65 194.82-182.65 194.82 81.773 194.82 182.65z" fill="url(#h)"/>
  <path transform="matrix(.08104 .00612 -.00653 .08645 1496.1 1410.5)" d="m-13316-8764.2c0 100.87-87.224 182.65-194.82 182.65s-194.82-81.773-194.82-182.65 87.225-182.65 194.82-182.65 194.82 81.773 194.82 182.65z" fill="url(#g)"/>
  <path transform="matrix(.05028 .0038 -.00405 .05363 1102.2 1091.6)" d="m-13316-8764.2c0 100.87-87.224 182.65-194.82 182.65s-194.82-81.773-194.82-182.65 87.225-182.65 194.82-182.65 194.82 81.773 194.82 182.65z" fill="url(#f)"/>
  <path d="m323.98 535.32 16.063-2.7512s-9.2282 5.1573-12.569 5.1026c-2.1566 0-3.4937-2.3514-3.4937-2.3514z" fill="#0f0" opacity=".514"/>
  <path transform="matrix(.11179 .00844 -.00901 .11924 1718.6 1729.2)" d="m-13316-8764.2c0 100.87-87.224 182.65-194.82 182.65s-194.82-81.773-194.82-182.65 87.225-182.65 194.82-182.65 194.82 81.773 194.82 182.65z" fill="url(#h)"/>
  <path transform="matrix(.08104 .00612 -.00653 .08645 1324.9 1410.4)" d="m-13316-8764.2c0 100.87-87.224 182.65-194.82 182.65s-194.82-81.773-194.82-182.65 87.225-182.65 194.82-182.65 194.82 81.773 194.82 182.65z" fill="url(#g)"/>
  <path transform="matrix(.05028 .0038 -.00405 .05363 931.01 1091.5)" d="m-13316-8764.2c0 100.87-87.224 182.65-194.82 182.65s-194.82-81.773-194.82-182.65 87.225-182.65 194.82-182.65 194.82 81.773 194.82 182.65z" fill="url(#f)"/>
  <path d="m393.17 525.68 68.499-7.9668s-37.104 10.205-51.745 10.876c-9.4479 0.4345-16.754-2.9089-16.754-2.9089z" fill="#00cb00"/>
  <path transform="matrix(12.415 0 0 12.415 -26263 27308)" d="m2147.6398-2157.1817 3.9533-.5019c0,0-2.8414.5812-3.3599.605-.3347.015-.5934-.1031-.5934-.1031z" filter="url(#b)" opacity=".741"/>
  <g transform="matrix(12.415 0 0 12.415 -26263 27308)">
   <path d="m2156.865-2157.128c-.2133-.9716-1.1989-1.6637-1.1306-1.1341 0,0 .018.2908.3308.6301 .2816.3154.8977.9501.7998.504z" fill="#960101" filter="url(#w)" opacity=".605"/>
   <path d="m2156.8504-2157.1585c-.202-.9206-1.1358-1.5763-1.0711-1.0745 0,0 .017.2754.3134.5969 .2668.2988.8505.9002.7577.4776z" fill="url(#ai)"/>
   <path d="m2156.6778-2157.3373c-.1365-.622-.7674-1.0651-.7237-.726 0,0 .012.1861.2117.4033 .1803.2019.5747.6083.512.3227z" fill="url(#ah)"/>
  </g>
  <path transform="matrix(-6.9451 .40308 .40308 6.9451 16092 14668)" d="m2156.865-2157.128c-.2133-.9716-1.1989-1.6637-1.1306-1.1341 0,0 .018.2908.3308.6301 .2816.3154.8977.9501.7998.504z" fill="#960101" filter="url(#w)" opacity=".605"/>
  <path d="m243.3 555.98c1.0318-6.4751 7.2528-11.405 7.0057-7.8942 0 0-0.01 1.9195-1.936 4.2718-1.7325 2.1827-5.5439 6.5948-5.0697 3.6224z" fill="url(#z)"/>
  <path d="m244.42 554.67c0.6973-4.3749 4.9003-7.7065 4.7335-5.3338 0 0-0.01 1.2973-1.3077 2.8863-1.1708 1.4749-3.7461 4.4563-3.4258 2.4476z" fill="url(#aa)"/>
  <path d="m496.45 567.13c-9.3305-0.4109-5.439 8.8955-3.373 9.5055 15.736 2.9518 25.364-2.6354 24.246-9.7754-1.2253-7.4418-7.7336-11.483-8.6335-6.5377-1.3484 3.4437-1.3687 4.0447-3.6542 5.1874-2.5598 1.2799-8.5857 1.6361-8.5857 1.6199z" fill="url(#ab)"/>
  <path d="m251.8629,563.8297c6.2449-1.0677 5.5757,5.1014 3.0877,6.1083-10.3381,3.3397-17.2981.4097-17.1602-4.4931 .1862-5.1138 4.2186-8.3951 5.2491-5.1436 1.2043,2.2012 1.2713,2.6035 2.9051,3.177 1.8325.6456 5.9196.36 5.9171.3476z" fill="url(#ac)"/>
  <path transform="matrix(12.186 0 0 11.045 -25774 24355)" d="m2138.2261-2155.7789c-.9293.1292-1.6689.9696-1.7422,2.0313v.062l.3999.031c.067-.9688.8566-1.6981 1.742-1.625 .8553.071 1.4737.8544 1.4566,1.7813l.4284.031c.052-1.188-.7659-2.2224-1.8563-2.3125-.1387-.012-.2958-.019-.4284,0z" filter="url(#b)"/>
  <path d="m283.03 542.21c-12.622 1.604-22.67 12.038-23.666 25.219v0.7697l5.4317 0.3849c0.9063-12.028 11.638-21.082 23.666-20.175 11.618 0.8815 20.02 10.608 19.787 22.115l5.819 0.3849c0.7201-14.749-10.404-27.591-25.218-28.71-1.8834-0.149-4.0175-0.2359-5.8202 0z" fill="url(#ad)"/>
  <path transform="matrix(12.103 0 0 11.662 -25590 25685)" d="m2152.137-2155.71c-.9385.1204-1.7107.9042-1.7844,1.8942-.017.2401.028.4796.087.6993h.4029c-.067-.2019-.1031-.4444-.087-.6702 .067-.9034.8633-1.5836 1.7556-1.5153s1.5639.8742 1.4965,1.7776c-.014.1927-.071.3574-.1438.5245h.4317c.052-.1578.1021-.3219.1151-.4954 .085-1.1315-.7533-2.1292-1.8707-2.2147-.1398-.011-.269-.017-.403,0z" filter="url(#b)" opacity=".835"/>
  <path d="m456.05 540.21c-12.651 1.6028-23.06 12.038-24.054 25.219-0.2359 3.1969 0.3724 6.3851 1.167 9.3114h5.4316c-0.9063-2.6891-1.3905-5.9171-1.167-8.924 0.9063-12.028 11.638-21.083 23.666-20.175s21.083 11.639 20.175 23.667c-0.1986 2.5662-0.956 4.7587-1.9393 6.9835h5.819c0.7077-2.1006 1.3769-4.2857 1.5519-6.5962 1.1422-15.065-10.154-28.349-25.218-29.486-1.8834-0.149-3.6253-0.2235-5.4317 0z" fill="url(#ae)"/>
  <path d="m314.59 567.01v3.0107l-2.4633 2.7371 120.97 3.5581-1.9159-1.9159-1.6422-4.6528z" fill="url(#av)"/>
  <path d="m325.92 535.6 10.302-1.65s-6.8246 2.8741-8.5242 2.8468c-1.0926 0-1.7779-1.1919-1.7779-1.1919z" opacity=".523"/>
  <path d="m277.51 537.29s-2.4892 2.7624-4.061 3.7047c-5.8041 3.4775-13.516 4.6557-19.136 6.7712-3.4638 1.3048-3.4203-3.1783-3.4203-3.1783" fill="none" opacity=".235" stroke="#008000" stroke-width=".8565"/>
  <g transform="matrix(.84885 0 0 .84885 219.7 130.3)">
   <path d="m145.04 426.99 1.1204 9.6068 6.6229-0.3321-1.851-9.3689z" fill="url(#ar)"/>
   <g transform="matrix(-.34967 .06349 .06349 .34967 791.72 105.57)">
    <g transform="translate(48.948 -16.134)">
     <path d="m1824.7 472.39 19.381-1.6762-0.1047 13.41h-18.753z" filter="url(#c)" opacity=".728"/>
     <path d="m1824.8 472.48 19.039-1.6466-0.1029 13.173h-18.422z" fill="url(#u)"/>
     <g transform="translate(-49.876 15.254)" filter="url(#v)" opacity=".868">
      <path d="m1879.3 456.64s1.0292 2.7787-1.0806 6.3293c-1.0933 1.84-1.0806 6.3293-1.0806 6.3293l-1.9554 0.1029s-0.1293-4.566 1.132-6.2778c1.9211-2.6072 1.1321-6.2778 1.1321-6.2778z"/>
      <path d="m1882.9 456.43s1.0292 2.7787-1.0806 6.3293c-1.0933 1.84-1.0806 6.3293-1.0806 6.3293l-1.9554 0.1029s-0.1293-4.566 1.132-6.2778c1.9211-2.6072 1.1321-6.2778 1.1321-6.2778z"/>
      <path d="m1886.8 456.02s1.0292 2.7787-1.0806 6.3293c-1.0933 1.84-1.0806 6.3293-1.0806 6.3293l-1.9554 0.1029s-0.1293-4.566 1.132-6.2778c1.9211-2.6072 1.1321-6.2778 1.1321-6.2778z"/>
      <path d="m1890.3 455.82s1.0292 2.7787-1.0806 6.3293c-1.0933 1.84-1.0806 6.3293-1.0806 6.3293l-1.9554 0.1029s-0.1293-4.566 1.132-6.2778c1.9211-2.6072 1.1321-6.2778 1.1321-6.2778z"/>
      <path d="m1894.1 455.71s1.0292 2.7787-1.0806 6.3293c-1.0933 1.84-1.0806 6.3293-1.0806 6.3293l-1.9554 0.1029s-0.1293-4.566 1.132-6.2778c1.9211-2.6072 1.1321-6.2778 1.1321-6.2778z"/>
     </g>
     <g transform="translate(-50.596 15.254)">
      <path d="m1879.3 456.64s1.0292 2.7787-1.0806 6.3293c-1.0933 1.84-1.0806 6.3293-1.0806 6.3293l-1.9554 0.1029s-0.1293-4.566 1.132-6.2778c1.9211-2.6072 1.1321-6.2778 1.1321-6.2778z" fill="url(#t)"/>
      <path d="m1882.9 456.43s1.0292 2.7787-1.0806 6.3293c-1.0933 1.84-1.0806 6.3293-1.0806 6.3293l-1.9554 0.1029s-0.1293-4.566 1.132-6.2778c1.9211-2.6072 1.1321-6.2778 1.1321-6.2778z" fill="url(#s)"/>
      <path d="m1886.8 456.02s1.0292 2.7787-1.0806 6.3293c-1.0933 1.84-1.0806 6.3293-1.0806 6.3293l-1.9554 0.1029s-0.1293-4.566 1.132-6.2778c1.9211-2.6072 1.1321-6.2778 1.1321-6.2778z" fill="url(#r)"/>
      <path d="m1890.3 455.82s1.0292 2.7787-1.0806 6.3293c-1.0933 1.84-1.0806 6.3293-1.0806 6.3293l-1.9554 0.1029s-0.1293-4.566 1.132-6.2778c1.9211-2.6072 1.1321-6.2778 1.1321-6.2778z" fill="url(#q)"/>
      <path d="m1894.1 455.71s1.0292 2.7787-1.0806 6.3293c-1.0933 1.84-1.0806 6.3293-1.0806 6.3293l-1.9554 0.1029s-0.1293-4.566 1.132-6.2778c1.9211-2.6072 1.1321-6.2778 1.1321-6.2778z" fill="url(#p)"/>
     </g>
    </g>
    <path d="m1864.6 447.38 11.629-1.1321 2.367 32.727-13.379 0.9262z" filter="url(#c)" opacity=".35"/>
    <path d="m1863.4 446.76 11.629-1.1321 2.367 32.727-13.379 0.9262z" fill="url(#i)"/>
    <path d="m1863.4 447.06 0.097 11.57 12.348-1.5557-0.9723-11.376z" fill="url(#o)" opacity=".831" stroke="#009500" stroke-width=".5"/>
    <path d="m1863.6 459.02 0.1945 10.501 12.543-0.8751-0.2916-11.279z" fill="none" opacity=".877" stroke="#060" stroke-width=".5"/>
    <path d="m1864 469.4 0.2917 10.015 13.321-0.6806-1.4585-10.598z" fill="url(#n)" opacity=".856" stroke="#009400" stroke-width=".5"/>
   </g>
   <path transform="matrix(.35349 .0367 -.0367 .35349 -506.88 171.16)" d="m1848 447.06c1.0537 19.625 11.921 18.045 18.878 24.147 14.155 12.413 13.676 30.442 16.683 46.757 1.7388 12.933 7.2691 13.228 16.517 13.825 9.0683 0.5855 27.179-2.602 31.777-17.337 4.428-14.191-0.058-31.579-3.2928-48.514-2.3948-16.358 0.5058-21.18 3.9513-30.513 3.351-9.077 2.8743-22.43-8.1221-42.806-8.6344-13.583-17.269-8.3969-25.903-7.6831l-37.099 8.5612c-14.811 5.186-21.044 13.034-18.878 23.488z" filter="url(#be)" opacity=".621"/>
   <path d="m130.02 396.41c-0.3478 6.9759 3.5517 6.8163 5.7872 9.2286 4.548 4.9074 3.7172 11.263 4.1815 17.14 0.1401 4.6354 2.0841 4.9428 5.3312 5.4932 3.1841 0.5397 9.7031 0.0777 11.869-4.9625 2.0861-4.8539 1.1384-11.165 0.6164-17.27-0.2463-5.8701 0.956-7.4683 2.5165-10.641 1.5177-3.0856 1.8392-7.8232-1.3002-15.43-2.5537-5.1184-5.7962-3.602-8.8745-3.6665l-13.428 1.6648c-5.4258 1.2897-7.9172 3.8351-7.5354 7.6101z" fill="url(#aq)"/>
   <path transform="matrix(.35349 .0367 -.0367 .35349 -169.16 189.36)" d="m963.03 527.02c0 5.0313-4.521 9.11-10.098 9.11s-10.098-4.0787-10.098-9.11 4.521-9.11 10.098-9.11 10.098 4.0787 10.098 9.11z" filter="url(#bd)" opacity=".654"/>
   <path transform="matrix(.4134 -.06189 .08845 .35077 -275.82 281.46)" d="m935.15 501.55c0 8.5472-4.0787 15.476-9.11 15.476s-9.11-6.9288-9.11-15.476 4.0787-15.476 9.11-15.476 9.11 6.9288 9.11 15.476z" fill="#fff" stroke="#000" stroke-linecap="round" stroke-width=".9161"/>
   <path transform="matrix(.35349 .0367 -.0367 .35349 -169.15 188.85)" d="m963.03 527.02c0 5.0313-4.521 9.11-10.098 9.11s-10.098-4.0787-10.098-9.11 4.521-9.11 10.098-9.11 10.098 4.0787 10.098 9.11z" fill="url(#ap)"/>
   <path transform="matrix(.33349 -.12282 .12282 .33349 -229.07 347.39)" d="m935.15 501.55c0 8.5472-4.0787 15.476-9.11 15.476s-9.11-6.9288-9.11-15.476 4.0787-15.476 9.11-15.476 9.11 6.9288 9.11 15.476z" fill="#fff" stroke="#000" stroke-linecap="round"/>
   <path transform="matrix(.35349 .0367 -.0367 .35349 -168.87 189.98)" d="m939.76 506.27c0 2.9097-2.4079 5.2684-5.3782 5.2684s-5.3782-2.3588-5.3782-5.2684 2.4079-5.2684 5.3782-5.2684 5.3782 2.3588 5.3782 5.2684z" stroke="#000" stroke-linecap="round" stroke-width=".1"/>
   <path transform="matrix(.35349 .0367 -.0367 .35349 -168.87 189.98)" d="m961.49 502.76c0 2.9097-2.6045 5.2684-5.8172 5.2684s-5.8172-2.3588-5.8172-5.2684 2.6045-5.2684 5.8172-5.2684 5.8172 2.3588 5.8172 5.2684z" stroke="#000" stroke-linecap="round" stroke-width=".1"/>
   <path d="m141.4612,416.8909c.3339.4113 4.0178.3416 6.8439,2.8282 1.3398,1.1788 5.2372-1.3387 5.2372-1.3387s-3.1657,3.5028-5.473,2.0986c-2.6185-1.5937-6.6081-3.5881-6.6081-3.5881z" stroke="#000" stroke-width=".3554"/>
   <g transform="matrix(.35539 0 0 .35539 -542.91 225.92)" fill="#007200" filter="url(#bc)" opacity=".387">
    <path d="m1934 437.46c12.365 9.0837 24.072 18.957 35.288 29.421l1.1216-0.6039c-10.595-10.556-21.875-20.838-35.892-30.025z"/>
    <path d="m1934.7 451.87c2.9714-6.6163 7.7523-12.294 16.91-15.703l-1.2942-0.8628c-7.5956 3.1226-13.569 8.1541-17.256 15.875z"/>
    <path d="m1941.6 455.67c2.9714-6.6163 7.7523-12.294 16.91-15.703l-1.2942-0.8628c-7.5956 3.1226-13.569 8.1541-17.256 15.875z"/>
    <path d="m1949.1 460.5c2.9714-6.6163 7.7523-12.294 16.91-15.703l-1.2942-0.8628c-7.5956 3.1226-13.569 8.1541-17.256 15.875z"/>
    <path d="m1956.4 466.63c2.9714-6.6163 7.7523-12.294 16.91-15.703l-1.2942-0.8628c-7.5956 3.1226-13.569 8.1541-17.256 15.875z"/>
   </g>
   <g transform="matrix(.35539 0 0 .35539 -542.91 225.92)">
    <g transform="translate(48.948 -16.134)">
     <path d="m1824.7 472.39 19.381-1.6762-0.1047 13.41h-18.753z" filter="url(#c)" opacity=".728"/>
     <path d="m1824.8 472.48 19.039-1.6466-0.1029 13.173h-18.422z" fill="url(#u)"/>
     <g transform="translate(-49.876 15.254)" filter="url(#v)" opacity=".868">
      <path d="m1879.3 456.64s1.0292 2.7787-1.0806 6.3293c-1.0933 1.84-1.0806 6.3293-1.0806 6.3293l-1.9554 0.1029s-0.1293-4.566 1.132-6.2778c1.9211-2.6072 1.1321-6.2778 1.1321-6.2778z"/>
      <path d="m1882.9 456.43s1.0292 2.7787-1.0806 6.3293c-1.0933 1.84-1.0806 6.3293-1.0806 6.3293l-1.9554 0.1029s-0.1293-4.566 1.132-6.2778c1.9211-2.6072 1.1321-6.2778 1.1321-6.2778z"/>
      <path d="m1886.8 456.02s1.0292 2.7787-1.0806 6.3293c-1.0933 1.84-1.0806 6.3293-1.0806 6.3293l-1.9554 0.1029s-0.1293-4.566 1.132-6.2778c1.9211-2.6072 1.1321-6.2778 1.1321-6.2778z"/>
      <path d="m1890.3 455.82s1.0292 2.7787-1.0806 6.3293c-1.0933 1.84-1.0806 6.3293-1.0806 6.3293l-1.9554 0.1029s-0.1293-4.566 1.132-6.2778c1.9211-2.6072 1.1321-6.2778 1.1321-6.2778z"/>
      <path d="m1894.1 455.71s1.0292 2.7787-1.0806 6.3293c-1.0933 1.84-1.0806 6.3293-1.0806 6.3293l-1.9554 0.1029s-0.1293-4.566 1.132-6.2778c1.9211-2.6072 1.1321-6.2778 1.1321-6.2778z"/>
     </g>
     <g transform="translate(-50.596 15.254)">
      <path d="m1879.3 456.64s1.0292 2.7787-1.0806 6.3293c-1.0933 1.84-1.0806 6.3293-1.0806 6.3293l-1.9554 0.1029s-0.1293-4.566 1.132-6.2778c1.9211-2.6072 1.1321-6.2778 1.1321-6.2778z" fill="url(#t)"/>
      <path d="m1882.9 456.43s1.0292 2.7787-1.0806 6.3293c-1.0933 1.84-1.0806 6.3293-1.0806 6.3293l-1.9554 0.1029s-0.1293-4.566 1.132-6.2778c1.9211-2.6072 1.1321-6.2778 1.1321-6.2778z" fill="url(#s)"/>
      <path d="m1886.8 456.02s1.0292 2.7787-1.0806 6.3293c-1.0933 1.84-1.0806 6.3293-1.0806 6.3293l-1.9554 0.1029s-0.1293-4.566 1.132-6.2778c1.9211-2.6072 1.1321-6.2778 1.1321-6.2778z" fill="url(#r)"/>
      <path d="m1890.3 455.82s1.0292 2.7787-1.0806 6.3293c-1.0933 1.84-1.0806 6.3293-1.0806 6.3293l-1.9554 0.1029s-0.1293-4.566 1.132-6.2778c1.9211-2.6072 1.1321-6.2778 1.1321-6.2778z" fill="url(#q)"/>
      <path d="m1894.1 455.71s1.0292 2.7787-1.0806 6.3293c-1.0933 1.84-1.0806 6.3293-1.0806 6.3293l-1.9554 0.1029s-0.1293-4.566 1.132-6.2778c1.9211-2.6072 1.1321-6.2778 1.1321-6.2778z" fill="url(#p)"/>
     </g>
    </g>
    <path d="m1864.6 447.38 11.629-1.1321 2.367 32.727-13.379 0.9262z" filter="url(#c)" opacity=".35"/>
    <path d="m1863.4 446.76 11.629-1.1321 2.367 32.727-13.379 0.9262z" fill="url(#i)"/>
    <path d="m1863.4 447.06 0.097 11.57 12.348-1.5557-0.9723-11.376z" fill="url(#o)" opacity=".831" stroke="#009500" stroke-width=".5"/>
    <path d="m1863.6 459.02 0.1945 10.501 12.543-0.8751-0.2916-11.279z" fill="none" opacity=".877" stroke="#060" stroke-width=".5"/>
    <path d="m1864 469.4 0.2917 10.015 13.321-0.6806-1.4585-10.598z" fill="url(#n)" opacity=".856" stroke="#009400" stroke-width=".5"/>
   </g>
  </g>
  <g transform="translate(50.817 120.74)">
   <path d="m289.19 374.52c3.4953 2.0923 7.2045 2.1247 11.236-0.9512 4.8566-2.5318 5.6901 1.1768 4.8475 3.17-2.7829 8.561-15.125 6.7949-20.397 3.0591-2.503-1.8875-2.0331-8.2927 4.3127-5.2779z" fill="#b96b37"/>
   <path transform="matrix(.35539 0 0 .35539 805.27 -319.98)" d="m-1451.5 1958.7c9.8352 5.8874 20.272 5.9786 31.617-2.6765 13.665-7.1239 16.011 3.3112 13.64 8.9198-7.8305 24.089-42.56 19.12-57.392 8.6078-7.0429-5.311-5.7208-23.334 12.135-14.851z" filter="url(#ay)" opacity=".337"/>
   <path d="m289.19 374.52c3.4953 2.0923 7.2045 2.1247 11.236-0.9512 4.8566-2.5318 5.6901 1.1768 4.8475 3.17-2.7829 8.561-15.125 6.7949-20.397 3.0591-2.503-1.8875-2.0331-8.2927 4.3127-5.2779z" fill="url(#ao)"/>
  </g>
  <path d="m381.4 513.32s-20.587 4.531-23.735 6.0193c-5.0959 2.4096-9.2011 3.607-11.408-10.563-1.6792-5.6967-14.122-2.3296-10.96 3.5491 4.3819 8.1484 6.7262 13.976 8.3612 17.797 2.7357 6.3929 2.5421 6.5344 8.2223 4.5423 5.1483-1.8056 28.046-9.4258 34.733-13.43z" filter="url(#az)" opacity=".613"/>
  <path d="m381.4 511.93s-20.587 4.531-23.735 6.0193c-5.0959 2.4096-9.2011 3.607-11.408-10.563-1.6792-5.6967-14.122-2.3296-10.96 3.5491 4.3819 8.1484 6.7262 13.976 8.3612 17.797 2.7357 6.3929 2.5421 6.5344 8.2223 4.5423 5.1483-1.8056 28.046-9.4258 34.733-13.43z" fill="url(#aj)"/>
  <g transform="translate(.2598,-.0866)">
   <path d="m386.74 522.3c-1.4475 0.5291-2.7738 1.4228-4.083 2.3413l-7.1816-11.57c1.5606-0.8774 3.9403-3.1399 5.5065-0.1604z" filter="url(#b)" opacity=".613"/>
   <path d="m387.61 521.7c-1.4475 0.5291-2.7738 1.4228-4.083 2.3413l-7.1816-11.57c1.5606-0.8774 3.9403-3.1399 5.5065-0.1604z" fill="url(#ax)"/>
  </g>
  <path transform="matrix(.63525 -.26092 .26092 .63525 153.28 247.16)" d="m101.11 457.59h8.5226v8.8216h-8.5226z" fill="#f55" opacity=".387"/>
  <g transform="matrix(.24406 0 0 .24406 -125.49 362.83)" fill="none" stroke="#000" stroke-width=".7">
   <path d="m1894.6 607.57 3.6829 2.3108"/>
   <path d="m1896.9 606.92-1.2276 3.4663"/>
  </g>
  <g transform="matrix(.24406 0 0 .24406 -124.37 362.29)" fill="none" stroke="#000" stroke-width=".7">
   <path d="m1894.6 607.57 3.6829 2.3108"/>
   <path d="m1896.9 606.92-1.2276 3.4663"/>
  </g>
  <g transform="matrix(.24406 0 0 .24406 -122.97 361.74)" fill="none" stroke="#000" stroke-width=".7">
   <path d="m1894.6 607.57 3.6829 2.3108"/>
   <path d="m1896.9 606.92-1.2276 3.4663"/>
  </g>
  <g transform="matrix(.24406 0 0 .24406 -121.59 361.2)" fill="none" stroke="#000" stroke-width=".7">
   <path d="m1894.6 607.57 3.6829 2.3108"/>
   <path d="m1896.9 606.92-1.2276 3.4663"/>
  </g>
  <g transform="matrix(.24406 0 0 .24406 -125.44 364.08)" fill="none" stroke="#000" stroke-width=".7">
   <path d="m1894.6 607.57 3.6829 2.3108"/>
   <path d="m1896.9 606.92-1.2276 3.4663"/>
  </g>
  <g transform="matrix(.24406 0 0 .24406 -124.57 366.4)" fill="none" stroke="#000" stroke-width=".7">
   <path d="m1894.6 607.57 3.6829 2.3108"/>
   <path d="m1896.9 606.92-1.2276 3.4663"/>
  </g>
  <g transform="matrix(.24406 0 0 .24406 -125.01 365.32)" fill="none" stroke="#000" stroke-width=".7">
   <path d="m1894.6 607.57 3.6829 2.3108"/>
   <path d="m1896.9 606.92-1.2276 3.4663"/>
  </g>
  <g transform="matrix(.24406 0 0 .24406 -123.1 368.22)" fill="none" stroke="#000" stroke-width=".7">
   <path d="m1894.6 607.57 3.6829 2.3108"/>
   <path d="m1896.9 606.92-1.2276 3.4663"/>
  </g>
  <g transform="matrix(.24406 0 0 .24406 -121.98 367.67)" fill="none" stroke="#000" stroke-width=".7">
   <path d="m1894.6 607.57 3.6829 2.3108"/>
   <path d="m1896.9 606.92-1.2276 3.4663"/>
  </g>
  <g transform="matrix(.24406 0 0 .24406 -120.66 367.25)" fill="none" stroke="#000" stroke-width=".7">
   <path d="m1894.6 607.57 3.6829 2.3108"/>
   <path d="m1896.9 606.92-1.2276 3.4663"/>
  </g>
  <g transform="matrix(.24406 0 0 .24406 -119.35 366.64)" fill="none" stroke="#000" stroke-width=".7">
   <path d="m1894.6 607.57 3.6829 2.3108"/>
   <path d="m1896.9 606.92-1.2276 3.4663"/>
  </g>
  <g transform="matrix(.24406 0 0 .24406 -119.96 362.04)" fill="none" stroke="#000" stroke-width=".7">
   <path d="m1894.6 607.57 3.6829 2.3108"/>
   <path d="m1896.9 606.92-1.2276 3.4663"/>
  </g>
  <g transform="matrix(.24406 0 0 .24406 -118.79 364.83)" fill="none" stroke="#000" stroke-width=".7">
   <path d="m1894.6 607.57 3.6829 2.3108"/>
   <path d="m1896.9 606.92-1.2276 3.4663"/>
  </g>
  <g transform="matrix(.24406 0 0 .24406 -119.4 363.43)" fill="none" stroke="#000" stroke-width=".7">
   <path d="m1894.6 607.57 3.6829 2.3108"/>
   <path d="m1896.9 606.92-1.2276 3.4663"/>
  </g>
  <g transform="matrix(.24406 0 0 .24406 -118.39 366.08)" fill="none" stroke="#000" stroke-width=".7">
   <path d="m1894.6 607.57 3.6829 2.3108"/>
   <path d="m1896.9 606.92-1.2276 3.4663"/>
  </g>
  <g transform="matrix(.24406 0 0 .24406 -120.48 360.9)" fill="none" stroke="#000" stroke-width=".7">
   <path d="m1894.6 607.57 3.6829 2.3108"/>
   <path d="m1896.9 606.92-1.2276 3.4663"/>
  </g>
  <g transform="matrix(.24406 0 0 .24406 -124.17 367.48)" fill="none" stroke="#000" stroke-width=".7">
   <path d="m1894.6 607.57 3.6829 2.3108"/>
   <path d="m1896.9 606.92-1.2276 3.4663"/>
  </g>
  <g transform="matrix(.24406 0 0 .24406 -125.49 362.83)" fill="none" stroke="#000" stroke-width=".7">
   <path d="m1894.6 607.57 3.6829 2.3108"/>
   <path d="m1896.9 606.92-1.2276 3.4663"/>
  </g>
  <g transform="matrix(.24406 0 0 .24406 -124.37 362.29)" fill="none" stroke="#000" stroke-width=".7">
   <path d="m1894.6 607.57 3.6829 2.3108"/>
   <path d="m1896.9 606.92-1.2276 3.4663"/>
  </g>
  <g transform="matrix(.24406 0 0 .24406 -122.97 361.74)" fill="none" stroke="#000" stroke-width=".7">
   <path d="m1894.6 607.57 3.6829 2.3108"/>
   <path d="m1896.9 606.92-1.2276 3.4663"/>
  </g>
  <g transform="matrix(.24406 0 0 .24406 -121.59 361.2)" fill="none" stroke="#000" stroke-width=".7">
   <path d="m1894.6 607.57 3.6829 2.3108"/>
   <path d="m1896.9 606.92-1.2276 3.4663"/>
  </g>
  <g transform="matrix(.24406 0 0 .24406 -125.44 364.08)" fill="none" stroke="#000" stroke-width=".7">
   <path d="m1894.6 607.57 3.6829 2.3108"/>
   <path d="m1896.9 606.92-1.2276 3.4663"/>
  </g>
  <g transform="matrix(.24406 0 0 .24406 -124.57 366.4)" fill="none" stroke="#000" stroke-width=".7">
   <path d="m1894.6 607.57 3.6829 2.3108"/>
   <path d="m1896.9 606.92-1.2276 3.4663"/>
  </g>
  <g transform="matrix(.24406 0 0 .24406 -125.01 365.32)" fill="none" stroke="#000" stroke-width=".7">
   <path d="m1894.6 607.57 3.6829 2.3108"/>
   <path d="m1896.9 606.92-1.2276 3.4663"/>
  </g>
  <g transform="matrix(.24406 0 0 .24406 -123.1 368.22)" fill="none" stroke="#000" stroke-width=".7">
   <path d="m1894.6 607.57 3.6829 2.3108"/>
   <path d="m1896.9 606.92-1.2276 3.4663"/>
  </g>
  <g transform="matrix(.24406 0 0 .24406 -121.98 367.67)" fill="none" stroke="#000" stroke-width=".7">
   <path d="m1894.6 607.57 3.6829 2.3108"/>
   <path d="m1896.9 606.92-1.2276 3.4663"/>
  </g>
  <g transform="matrix(.24406 0 0 .24406 -120.66 367.25)" fill="none" stroke="#000" stroke-width=".7">
   <path d="m1894.6 607.57 3.6829 2.3108"/>
   <path d="m1896.9 606.92-1.2276 3.4663"/>
  </g>
  <g transform="matrix(.24406 0 0 .24406 -119.35 366.64)" fill="none" stroke="#000" stroke-width=".7">
   <path d="m1894.6 607.57 3.6829 2.3108"/>
   <path d="m1896.9 606.92-1.2276 3.4663"/>
  </g>
  <g transform="matrix(.24406 0 0 .24406 -119.96 362.04)" fill="none" stroke="#000" stroke-width=".7">
   <path d="m1894.6 607.57 3.6829 2.3108"/>
   <path d="m1896.9 606.92-1.2276 3.4663"/>
  </g>
  <g transform="matrix(.24406 0 0 .24406 -118.79 364.83)" fill="none" stroke="#000" stroke-width=".7">
   <path d="m1894.6 607.57 3.6829 2.3108"/>
   <path d="m1896.9 606.92-1.2276 3.4663"/>
  </g>
  <g transform="matrix(.24406 0 0 .24406 -119.4 363.43)" fill="none" stroke="#000" stroke-width=".7">
   <path d="m1894.6 607.57 3.6829 2.3108"/>
   <path d="m1896.9 606.92-1.2276 3.4663"/>
  </g>
  <g transform="matrix(.24406 0 0 .24406 -118.39 366.08)" fill="none" stroke="#000" stroke-width=".7">
   <path d="m1894.6 607.57 3.6829 2.3108"/>
   <path d="m1896.9 606.92-1.2276 3.4663"/>
  </g>
  <g transform="matrix(.24406 0 0 .24406 -120.48 360.9)" fill="none" stroke="#000" stroke-width=".7">
   <path d="m1894.6 607.57 3.6829 2.3108"/>
   <path d="m1896.9 606.92-1.2276 3.4663"/>
  </g>
  <g transform="matrix(.24406 0 0 .24406 -124.17 367.48)" fill="none" stroke="#000" stroke-width=".7">
   <path d="m1894.6 607.57 3.6829 2.3108"/>
   <path d="m1896.9 606.92-1.2276 3.4663"/>
  </g>
  <g transform="matrix(.24406 0 0 .24406 -125.49 362.83)" fill="none" stroke="#000" stroke-width=".7">
   <path d="m1894.6 607.57 3.6829 2.3108"/>
   <path d="m1896.9 606.92-1.2276 3.4663"/>
  </g>
  <g transform="matrix(.24406 0 0 .24406 -124.37 362.29)" fill="none" stroke="#000" stroke-width=".7">
   <path d="m1894.6 607.57 3.6829 2.3108"/>
   <path d="m1896.9 606.92-1.2276 3.4663"/>
  </g>
  <g transform="matrix(.24406 0 0 .24406 -122.97 361.74)" fill="none" stroke="#000" stroke-width=".7">
   <path d="m1894.6 607.57 3.6829 2.3108"/>
   <path d="m1896.9 606.92-1.2276 3.4663"/>
  </g>
  <g transform="matrix(.24406 0 0 .24406 -121.59 361.2)" fill="none" stroke="#000" stroke-width=".7">
   <path d="m1894.6 607.57 3.6829 2.3108"/>
   <path d="m1896.9 606.92-1.2276 3.4663"/>
  </g>
  <g transform="matrix(.24406 0 0 .24406 -125.44 364.08)" fill="none" stroke="#000" stroke-width=".7">
   <path d="m1894.6 607.57 3.6829 2.3108"/>
   <path d="m1896.9 606.92-1.2276 3.4663"/>
  </g>
  <g transform="matrix(.24406 0 0 .24406 -124.57 366.4)" fill="none" stroke="#000" stroke-width=".7">
   <path d="m1894.6 607.57 3.6829 2.3108"/>
   <path d="m1896.9 606.92-1.2276 3.4663"/>
  </g>
  <g transform="matrix(.24406 0 0 .24406 -125.01 365.32)" fill="none" stroke="#000" stroke-width=".7">
   <path d="m1894.6 607.57 3.6829 2.3108"/>
   <path d="m1896.9 606.92-1.2276 3.4663"/>
  </g>
  <g transform="matrix(.24406 0 0 .24406 -123.1 368.22)" fill="none" stroke="#000" stroke-width=".7">
   <path d="m1894.6 607.57 3.6829 2.3108"/>
   <path d="m1896.9 606.92-1.2276 3.4663"/>
  </g>
  <g transform="matrix(.24406 0 0 .24406 -121.98 367.67)" fill="none" stroke="#000" stroke-width=".7">
   <path d="m1894.6 607.57 3.6829 2.3108"/>
   <path d="m1896.9 606.92-1.2276 3.4663"/>
  </g>
  <g transform="matrix(.24406 0 0 .24406 -120.66 367.25)" fill="none" stroke="#000" stroke-width=".7">
   <path d="m1894.6 607.57 3.6829 2.3108"/>
   <path d="m1896.9 606.92-1.2276 3.4663"/>
  </g>
  <g transform="matrix(.24406 0 0 .24406 -119.35 366.64)" fill="none" stroke="#000" stroke-width=".7">
   <path d="m1894.6 607.57 3.6829 2.3108"/>
   <path d="m1896.9 606.92-1.2276 3.4663"/>
  </g>
  <g transform="matrix(.24406 0 0 .24406 -119.96 362.04)" fill="none" stroke="#000" stroke-width=".7">
   <path d="m1894.6 607.57 3.6829 2.3108"/>
   <path d="m1896.9 606.92-1.2276 3.4663"/>
  </g>
  <g transform="matrix(.24406 0 0 .24406 -118.79 364.83)" fill="none" stroke="#000" stroke-width=".7">
   <path d="m1894.6 607.57 3.6829 2.3108"/>
   <path d="m1896.9 606.92-1.2276 3.4663"/>
  </g>
  <g transform="matrix(.24406 0 0 .24406 -119.4 363.43)" fill="none" stroke="#000" stroke-width=".7">
   <path d="m1894.6 607.57 3.6829 2.3108"/>
   <path d="m1896.9 606.92-1.2276 3.4663"/>
  </g>
  <g transform="matrix(.24406 0 0 .24406 -118.39 366.08)" fill="none" stroke="#000" stroke-width=".7">
   <path d="m1894.6 607.57 3.6829 2.3108"/>
   <path d="m1896.9 606.92-1.2276 3.4663"/>
  </g>
  <g transform="matrix(.24406 0 0 .24406 -120.48 360.9)" fill="none" stroke="#000" stroke-width=".7">
   <path d="m1894.6 607.57 3.6829 2.3108"/>
   <path d="m1896.9 606.92-1.2276 3.4663"/>
  </g>
  <g transform="matrix(.24406 0 0 .24406 -124.17 367.48)" fill="none" stroke="#000" stroke-width=".7">
   <path d="m1894.6 607.57 3.6829 2.3108"/>
   <path d="m1896.9 606.92-1.2276 3.4663"/>
  </g>
  <g transform="matrix(.24406 0 0 .24406 -125.49 362.83)" fill="none" stroke="#000" stroke-width=".7">
   <path d="m1894.6 607.57 3.6829 2.3108"/>
   <path d="m1896.9 606.92-1.2276 3.4663"/>
  </g>
  <g transform="matrix(.24406 0 0 .24406 -124.37 362.29)" fill="none" stroke="#000" stroke-width=".7">
   <path d="m1894.6 607.57 3.6829 2.3108"/>
   <path d="m1896.9 606.92-1.2276 3.4663"/>
  </g>
  <g transform="matrix(.24406 0 0 .24406 -122.97 361.74)" fill="none" stroke="#000" stroke-width=".7">
   <path d="m1894.6 607.57 3.6829 2.3108"/>
   <path d="m1896.9 606.92-1.2276 3.4663"/>
  </g>
  <g transform="matrix(.24406 0 0 .24406 -121.59 361.2)" fill="none" stroke="#000" stroke-width=".7">
   <path d="m1894.6 607.57 3.6829 2.3108"/>
   <path d="m1896.9 606.92-1.2276 3.4663"/>
  </g>
  <g transform="matrix(.24406 0 0 .24406 -125.44 364.08)" fill="none" stroke="#000" stroke-width=".7">
   <path d="m1894.6 607.57 3.6829 2.3108"/>
   <path d="m1896.9 606.92-1.2276 3.4663"/>
  </g>
  <g transform="matrix(.24406 0 0 .24406 -124.57 366.4)" fill="none" stroke="#000" stroke-width=".7">
   <path d="m1894.6 607.57 3.6829 2.3108"/>
   <path d="m1896.9 606.92-1.2276 3.4663"/>
  </g>
  <g transform="matrix(.24406 0 0 .24406 -125.01 365.32)" fill="none" stroke="#000" stroke-width=".7">
   <path d="m1894.6 607.57 3.6829 2.3108"/>
   <path d="m1896.9 606.92-1.2276 3.4663"/>
  </g>
  <g transform="matrix(.24406 0 0 .24406 -123.1 368.22)" fill="none" stroke="#000" stroke-width=".7">
   <path d="m1894.6 607.57 3.6829 2.3108"/>
   <path d="m1896.9 606.92-1.2276 3.4663"/>
  </g>
  <g transform="matrix(.24406 0 0 .24406 -121.98 367.67)" fill="none" stroke="#000" stroke-width=".7">
   <path d="m1894.6 607.57 3.6829 2.3108"/>
   <path d="m1896.9 606.92-1.2276 3.4663"/>
  </g>
  <g transform="matrix(.24406 0 0 .24406 -120.66 367.25)" fill="none" stroke="#000" stroke-width=".7">
   <path d="m1894.6 607.57 3.6829 2.3108"/>
   <path d="m1896.9 606.92-1.2276 3.4663"/>
  </g>
  <g transform="matrix(.24406 0 0 .24406 -119.35 366.64)" fill="none" stroke="#000" stroke-width=".7">
   <path d="m1894.6 607.57 3.6829 2.3108"/>
   <path d="m1896.9 606.92-1.2276 3.4663"/>
  </g>
  <g transform="matrix(.24406 0 0 .24406 -119.96 362.04)" fill="none" stroke="#000" stroke-width=".7">
   <path d="m1894.6 607.57 3.6829 2.3108"/>
   <path d="m1896.9 606.92-1.2276 3.4663"/>
  </g>
  <g transform="matrix(.24406 0 0 .24406 -118.79 364.83)" fill="none" stroke="#000" stroke-width=".7">
   <path d="m1894.6 607.57 3.6829 2.3108"/>
   <path d="m1896.9 606.92-1.2276 3.4663"/>
  </g>
  <g transform="matrix(.24406 0 0 .24406 -119.4 363.43)" fill="none" stroke="#000" stroke-width=".7">
   <path d="m1894.6 607.57 3.6829 2.3108"/>
   <path d="m1896.9 606.92-1.2276 3.4663"/>
  </g>
  <g transform="matrix(.24406 0 0 .24406 -118.39 366.08)" fill="none" stroke="#000" stroke-width=".7">
   <path d="m1894.6 607.57 3.6829 2.3108"/>
   <path d="m1896.9 606.92-1.2276 3.4663"/>
  </g>
  <g transform="matrix(.24406 0 0 .24406 -120.48 360.9)" fill="none" stroke="#000" stroke-width=".7">
   <path d="m1894.6 607.57 3.6829 2.3108"/>
   <path d="m1896.9 606.92-1.2276 3.4663"/>
  </g>
  <g transform="matrix(.24406 0 0 .24406 -124.17 367.48)" fill="none" stroke="#000" stroke-width=".7">
   <path d="m1894.6 607.57 3.6829 2.3108"/>
   <path d="m1896.9 606.92-1.2276 3.4663"/>
  </g>
  <path transform="matrix(.63525 -.26092 .26092 .63525 153.28 247.16)" d="m102.2 458.8h2.9397v3.0429h-2.9397z" fill="#ff7f2a" opacity=".387"/>
  <path transform="matrix(.63525 -.26092 .26092 .63525 153.28 247.16)" d="m102.46 462.22h2.9397v3.0429h-2.9397z" fill="#cd7032" opacity=".387"/>
  <path transform="matrix(.63525 -.26092 .26092 .63525 153.28 247.16)" d="m105.71 458.75h2.9397v3.0429h-2.9397z" fill="#843522" opacity=".387"/>
  <g transform="matrix(.99988 .01547 -.01547 .99988 1950.7 1432)">
   <path d="m-1578-887.81s4.6321-37.462 13.796-36.503c29.94 3.1274 53.504 23.913 53.504 23.913z" fill="url(#an)" opacity=".424"/>
   <path d="m-1564.9-923.58c0.2111-2.3117 28.478 5.3683 51.324 21.766-35.162-21.245-51.532-19.455-51.324-21.766z" fill="#fff" opacity=".123"/>
  </g>
  <g transform="translate(3.3596,8.6005)">
   <path d="m393.17 525.68 68.499-7.9668s-37.104 10.205-51.745 10.876c-9.4479 0.4345-16.754-2.9089-16.754-2.9089z" fill="#00cb00"/>
   <path transform="matrix(12.415 0 0 12.415 -26263 27308)" d="m2147.6398-2157.1817 3.9533-.5019c0,0-2.8414.5812-3.3599.605-.3347.015-.5934-.1031-.5934-.1031z" filter="url(#b)" opacity=".741"/>
  </g>
  <g transform="translate(3.8971 16.663)">
   <path d="m393.17 525.68 68.499-7.9668s-37.104 10.205-51.745 10.876c-9.4479 0.4345-16.754-2.9089-16.754-2.9089z" fill="#00cb00"/>
   <path transform="matrix(12.415 0 0 12.415 -26263 27308)" d="m2147.6398-2157.1817 3.9533-.5019c0,0-2.8414.5812-3.3599.605-.3347.015-.5934-.1031-.5934-.1031z" filter="url(#b)" opacity=".741"/>
  </g>
 </g>
</svg>
