<?xml version="1.0" encoding="UTF-8"?>
<svg version="1.1" viewBox="0 0 724.92 310.62" xmlns="http://www.w3.org/2000/svg" xmlns:xlink="http://www.w3.org/1999/xlink">
 <defs>
  <linearGradient id="w">
   <stop stop-color="#002772" offset="0"/>
   <stop stop-color="#022d7f" offset=".14805"/>
   <stop stop-color="#1e4999" offset=".75"/>
   <stop stop-color="#1a4aa6" offset="1"/>
  </linearGradient>
  <linearGradient id="a">
   <stop stop-color="#0f3886" offset="0"/>
   <stop stop-color="#16408e" offset=".5"/>
   <stop stop-color="#002c80" offset="1"/>
  </linearGradient>
  <linearGradient id="v">
   <stop stop-color="#e6e6e6" offset="0"/>
   <stop stop-color="#b5d1d6" stop-opacity=".95035" offset="1"/>
  </linearGradient>
  <linearGradient id="u">
   <stop stop-color="#333" offset="0"/>
   <stop stop-color="#727272" offset="1"/>
  </linearGradient>
  <filter id="y" x="-.044149" y="-.14791" width="1.0883" height="1.2958" color-interpolation-filters="sRGB">
   <feGaussianBlur stdDeviation="1.5637519"/>
  </filter>
  <filter id="z" color-interpolation-filters="sRGB">
   <feGaussianBlur stdDeviation="0.44661529"/>
  </filter>
  <radialGradient id="am" cx="109.64" cy="309.15" r="11.071" gradientTransform="matrix(1 0 0 .48387 0 159.56)" gradientUnits="userSpaceOnUse">
   <stop stop-color="#c8b71c" offset="0"/>
   <stop stop-color="#615757" offset="1"/>
  </radialGradient>
  <radialGradient id="ah" cx="358.07" cy="243" r="94.907" gradientTransform="matrix(.89154 0 0 .45488 39.817 102.1)" gradientUnits="userSpaceOnUse" xlink:href="#v"/>
  <radialGradient id="ai" cx="239.12" cy="244.12" r="86.855" gradientTransform="matrix(.89154 0 0 .41515 40.098 108.6)" gradientUnits="userSpaceOnUse">
   <stop stop-color="#e6e6e6" offset="0"/>
   <stop stop-color="#e6e6e6" stop-opacity="0" offset="1"/>
  </radialGradient>
  <radialGradient id="x" cx="152.41" cy="445.61" r="58.049" gradientTransform="matrix(2.0119 -.0090728 .0082448 1.8283 -157.89 -367.7)" gradientUnits="userSpaceOnUse">
   <stop stop-color="#181818" offset="0"/>
   <stop stop-color="#4f4949" offset="1"/>
  </radialGradient>
  <linearGradient id="aa" x1="638.37" x2="638.61" y1="503.86" y2="513.47" gradientUnits="userSpaceOnUse" xlink:href="#a"/>
  <linearGradient id="ab" x1="863.69" x2="914.62" y1="401.82" y2="444.29" gradientTransform="matrix(.89154 0 0 .89154 -164.58 -140.15)" gradientUnits="userSpaceOnUse" xlink:href="#u"/>
  <radialGradient id="aj" cx="883.38" cy="395.76" r="10.296" gradientTransform="matrix(1 0 0 1.6377 0 -252.38)" gradientUnits="userSpaceOnUse">
   <stop stop-color="#5a0202" offset="0"/>
   <stop stop-color="#942929" offset=".46032"/>
   <stop stop-color="#050505" offset="1"/>
  </radialGradient>
  <radialGradient id="ak" cx="919.22" cy="358.65" r="7.5155" gradientTransform="matrix(.67763 -.64335 .93694 1.8805 -317.48 153.98)" gradientUnits="userSpaceOnUse">
   <stop stop-color="#d15959" offset="0"/>
   <stop stop-color="#ca8181" offset="1"/>
  </radialGradient>
  <linearGradient id="ac" x1="863.69" x2="914.62" y1="401.82" y2="444.29" gradientTransform="matrix(.9183 0 0 .89154 -187.45 -140.66)" gradientUnits="userSpaceOnUse" xlink:href="#u"/>
  <linearGradient id="ad" x1="411.74" x2="438" y1="260.12" y2="260.12" gradientUnits="userSpaceOnUse" xlink:href="#a"/>
  <linearGradient id="ae" x1="567.12" x2="593.39" y1="254.39" y2="254.39" gradientUnits="userSpaceOnUse" xlink:href="#a"/>
  <linearGradient id="af" x1="599.54" x2="640.54" y1="257.36" y2="268.98" gradientUnits="userSpaceOnUse" xlink:href="#w"/>
  <radialGradient id="al" cx="540.62" cy="232.88" r="58.622" gradientTransform="matrix(.89154 0 0 .53523 37.342 76.322)" gradientUnits="userSpaceOnUse" xlink:href="#v"/>
  <linearGradient id="ag" x1="370.42" x2="372.69" y1="438.79" y2="187.26" gradientTransform="matrix(.89154 0 0 .89154 32.397 -133.11)" gradientUnits="userSpaceOnUse" xlink:href="#w"/>
 </defs>
 <g transform="translate(-7.2502 -126.24)">
  <path d="m316.48 249.14-14.01-21.65c-2.4487-1.0658-4.447 1.9211-3.2933 4.908l10.298 18.654h-17.194l-15.92-31.841-23.562 36.935 40.756 15.284 21.015-8.2786z" fill="#4d4d4d" stroke="#000" stroke-width=".89154px"/>
  <path d="m277.51 255.36 153.55-15.31 12.158-64.393c-0.60039-3.6024-1.6511-5.4036-7.2048-5.4036-51.659-3.3749-128.95 18.537-147.25 41.878 0 0-10.983 9.9169-13.059 16.661-2.6107 8.4836 1.8012 26.568 1.8012 26.568z" fill="url(#ah)" opacity=".48986" stroke="#000" stroke-width=".89154px"/>
  <path d="m108.87 370.13 436.22 5.0945 122.27-17.831-25.473-72.597-526.65 12.736z" stroke="#000" stroke-width=".89154px"/>
  <path d="m176.29 243.31c50.583-27.692 103.4-49.686 153.98-68.973l-119.31 71.224z" fill="url(#ai)" opacity=".3" stroke="#000" stroke-width=".89154px"/>
  <path transform="translate(7.2502 126.24)" d="m451.28 26.312c-36.09 0.229-72.74 2.24-106.84 13.376-36.07 11.774-87.96 39.362-128 63.002-21.87 16.1-43.73 12.04-65.6 14.03-47.34 15.07-58.242 30.15-63.684 45.22-5.334 1.57-18.187 6.15-19.094 14-0.224 1.94 3.813 4.47 3.813 4.47v10.84h10.844c-0.382 10.22-6.009 22.58-18.094 34.47-8.449 8.31-5.879 19.75 4.063 22.84 13.259 2.3 30.807 8.46 38.532 2.85 0.41-48.22 29.32-74.38 60.12-70.82 32.57 3.77 60.31 9.06 60.88 76.53 103.12 0.76 205.62-1.5 309.19 2.26 0 0-5.31-77.9 52.53-81.5 64.91-4.05 64.62 62.4 64.62 62.4 4.33 0.13 7.32-2.45 8.94-6.37l1.88-31.22-4.44-35.03-8.28-10.19-1.28-8.28c-10.23-34.74-35.23-64.074-52.85-96.128l-0.65-11.5s-87.14-15.095-131.16-15.25c-5.13-0.018-10.28-0.032-15.44 0zm23.03 17.094c25.05-0.533 86.49 10.845 88.72 19.563 1.44 5.624 0.07 20.822-14.31 29.343-9.36 5.545-87.63 22.438-88.16 5.813-0.65-20.624-2.29-40.007 3.41-52.25 0.73-1.571 4.56-2.346 10.34-2.469zm-55.69 0.594c3.41 0.019 6.75 0.133 9.97 0.344 5.56 0 6.62 1.804 7.22 5.406l-12.19 64.41-153.53 15.28s-4.42-18.05-1.81-26.53c2.08-6.748 13.06-16.691 13.06-16.691 17.15-21.882 86.16-42.507 137.28-42.219z" fill="url(#ag)" stroke="#000" stroke-width=".89154px"/>
  <path d="m454.96 158.78c-5.7494 65.463-9.4317 132.31-10.087 198.63l89.6 0.44577c9.5316-58.892 41.33-60.56 71.855-64.639 7.6898-32.335 11.64-68.071-0.89155-114.68-50.583-15.949-99.892-17.976-150.48-19.753z" fill="none" stroke="#000" stroke-width=".89154px"/>
  <path d="m453.98 158.48c-56.831 3.8398-108.93-0.067-200.4 60.346l-4.4102 12.889c-5.9167 34.514-11.606 70.976 2.1534 122.65 1.0507 3.7525 3.9273 5.2361 5.8786 4.4856l188.2-1.7831c-0.89219-66.943 3.5612-132.83 8.5811-198.59z" fill="none" stroke="#000" stroke-width=".89154px"/>
  <path d="m157.84 243.31 53.578 2.7018 120.26-72.125c-38.285 16.41-81.313 39.338-120.71 61.318-5.1585 3.44-15.555 5.716-31.521 6.7545z" fill="#154091" stroke="#000" stroke-width=".89154px"/>
  <g transform="matrix(.89154 0 0 .89154 -163.68 -140.15)" stroke="#000" stroke-width="1px">
   <path d="m285.87 512.44-13.637 0.50507c-6.1371-1.369-11.735-0.16361-15.152 4.0406-5.2024 6.4007-6.8092 15.525-2.5254 21.213 4.4124 5.8591 21.718 3.5355 21.718 3.5355 5.6421-9.154 8.2072-19.077 9.5964-29.294z" fill="#1a1a1a"/>
   <path d="m256.58 517.99 13.637 0.50507 14.647-1.5152" fill="none"/>
   <path d="m268.2 541.22 2.0203-23.234-2.0203 23.234" fill="none"/>
  </g>
  <path transform="matrix(.89154 0 0 .89154 -163.68 -140.15)" d="m446.49 467.48a7.3236 4.0406 0 1 1 -14.647 0 7.3236 4.0406 0 1 1 14.647 0z" fill="#999" stroke="#000" stroke-width="1.4"/>
  <path d="m454.55 163.49c22.795 2.9847 130.56-0.76873 122.91 33.751-6.5216 47.128-90.406 40.445-127.68 42.348z" fill="none" stroke="#000" stroke-width=".89154px"/>
  <path d="m249.24 260.42h-26.568c-0.80896-1.2924-2.0379-3.6262 0.4503-6.7545 9.9594-12.521 20.091-17.921 29.72-25.217z" fill="#0f3a8b" stroke="#000" stroke-width=".89154px"/>
  <g transform="matrix(.89154 0 0 .89154 -163.68 -140.15)" fill="#0f3a8b">
   <g transform="translate(53.538 62.124)">
    <g transform="translate(-2.8571 -2.8571)">
     <path d="m461.07 364.15c-1.3826 7.968-8.2774 12.5-18.929 12.5-10.651 0-19.914-4.4175-19.643-12.5 0.28857-8.592 13.694-17.269 20.714-17.143 13.906 0.2494 19.754 6.2103 17.857 17.143z" fill="#0f3a8b" stroke="#000" stroke-width="1.4"/>
    </g>
    <path d="m453.01 347.97c11.75 14.263-13.593 17.222-28.214 21.786" stroke="#000" stroke-width="1px"/>
   </g>
   <path d="m497 435.41c0.82671 2.0968 0.8933 5.9617-9.849 9.3439 0 0-18.005 0.71636-25.759-2.0203-1.2323-0.43494-1.3004-2.2012 3.153-4.8595 4.7227-2.819 7.6134-3.0118 13.009-2.4641z" stroke="#000" stroke-width="1px"/>
   <path d="m461.25 442.36c10.362-3.9833 23.45-5.2405 36.607-6.4286-2.0532 4.9751-3.9409 8.8384-14.821 8.0357z" stroke="#000" stroke-width="1px"/>
  </g>
  <path d="m534.14 357.19c-4.9392-1.828-13.113-39.479 16.689-62.518 25.357-19.603 59.224-21.652 59.224-21.652" fill="none" stroke="#000" stroke-width=".89154px"/>
  <path d="m105.02 283.16c0.85468-4.3656 4.9373-15.802 25.588-20.811 11.622-2.8192 34.33-7.8889 33.776-5.1175 0 0-4.7083 5.7175-9.2115 9.2115-3.5408 2.7472-10.917 7.8468-10.917 7.8468l-14.67 6.4822-17.058 8.188c-4.8146 1.858-7.2105-0.42683-7.5057-5.7998z" fill="#999" stroke="#000" stroke-width=".67548px"/>
  <path d="m99.29 286.09c1.1281-5.762 6.5166-20.857 33.772-27.468 15.34-3.7209 45.311-10.412 44.579-6.7545 0 0-6.2143 7.5464-12.158 12.158-4.6734 3.626-14.41 10.357-14.41 10.357l-19.363 8.5557-22.515 10.807c-6.3546 2.4523-9.5169-0.56335-9.9066-7.655z" fill="#e6e6e6" opacity=".74286" stroke="#000" stroke-width=".89154px"/>
  <path d="m131.98 282.75c-3.4556 8.771-3.4119 15.879 1.5295 22.251-27.55 22.426-22.601 37.555-29.269 54.486-7.1364 11.094-23.279 5.9766-34.673 8.5556" fill="none" stroke="#000" stroke-width=".89154px"/>
  <path d="m133.06 305s29.102-21.644 69.796-9.006c38.487 11.953 45.93 71.147 45.93 71.147l296.3-1.8012" fill="none" stroke="#000" stroke-width=".89154px"/>
  <path d="m235.73 377.05 309.35 0.45029" fill="none" stroke="#000" stroke-width=".89154px"/>
  <path d="m260.05 359.04c0.94955 6.1296 2.6124 10.653 1.2577 17.934" fill="none" stroke="#000" stroke-width=".89154px"/>
  <path d="m69.57 362.19c13.671-6.775 22.514-5.5023 32.872-6.7545 2.3597 2.3499 3.1615 5.0114-0.45031 8.5557-9.177 5.3408-19.948 5.8982-31.521 4.0527z" fill="#333" stroke="#000" stroke-width=".89154px"/>
  <path d="m230.18 234.86 4.5606 6.6526" fill="none" stroke="#000" stroke-width=".89154px"/>
  <path d="m497.97 136.42-110.81 17.2c0 0.1178-13.473 0.0877-17.831 3.1841-1.5953 1.1336-1.2736 5.7314-1.2736 5.7314l10.826-2.5473 8.2786-5.7314z" stroke="#000" stroke-width=".89154px"/>
  <path d="m177.83 241.69 14.223-8.7342c4.3501-3.7617-0.56027-1.1457 9.2854-4.3322l4.9378-0.87737" fill="none" stroke="#000" stroke-width=".89154px"/>
  <g stroke="#000">
   <path transform="matrix(.99662 0 0 .99662 24.992 -74.384)" d="m204.29 443.79a51.429 51.429 0 1 1 -102.86 0 51.429 51.429 0 1 1 102.86 0z" fill="url(#x)"/>
   <path transform="matrix(.67777 0 0 .67777 73.73 66.481)" d="m204.29 443.79a51.429 51.429 0 1 1 -102.86 0 51.429 51.429 0 1 1 102.86 0z" fill="#b3b3b3"/>
   <path transform="matrix(.55514 0 0 .55514 92.475 121.54)" d="m204.29 443.79a51.429 51.429 0 1 1 -102.86 0 51.429 51.429 0 1 1 102.86 0z" fill="#b3b3b3" stroke-width="1.8014"/>
   <path transform="matrix(.12592 0 0 .12592 157.53 311.07)" d="m204.29 443.79a51.429 51.429 0 1 1 -102.86 0 51.429 51.429 0 1 1 102.86 0z" fill="#e9ddaf" stroke-width="7.9415"/>
   <path transform="matrix(.89154 0 0 .89154 -163.05 -142.06)" d="m390.91 592.01a8.668 5.3571 0 1 1 -17.336 0 8.668 5.3571 0 1 1 17.336 0z" stroke-width="1.7"/>
   <path transform="matrix(.89154 0 0 .89154 -163.05 -179.63)" d="m390.91 592.01a8.668 5.3571 0 1 1 -17.336 0 8.668 5.3571 0 1 1 17.336 0z" stroke-width="1.7"/>
   <path transform="matrix(.013697 .89144 -.89144 .013697 716.79 17.78)" d="m390.91 592.01a8.668 5.3571 0 1 1 -17.336 0 8.668 5.3571 0 1 1 17.336 0z" stroke-width="1.7"/>
   <path transform="matrix(.013697 .89144 -.89144 .013697 681.77 18.417)" d="m390.91 592.01a8.668 5.3571 0 1 1 -17.336 0 8.668 5.3571 0 1 1 17.336 0z" stroke-width="1.7"/>
  </g>
  <path transform="matrix(.89154 0 0 .89154 40.098 -7.6936)" d="m116.67 346.77c19.455-11.986 42.608-10.459 61.619-2.5254 11.262 4.781 23.107 12.497 30.305 23.541-22.107-12.708-63.131-32.813-98.995-8.3884-12.298 8.6059-26.468 36.918-29.009 34.442-2.3792-4.4529 19.837-35.802 36.08-47.069z" fill="#fff" filter="url(#y)" opacity=".054054"/>
  <g transform="matrix(.89154 0 0 .89154 40.098 -7.6936)">
   <path transform="matrix(.93117 -.36458 .36458 .93117 -108.73 62.68)" d="m120.71 309.15c0 2.9587-4.9568 5.3571-11.071 5.3571-6.1146 0-11.071-2.3985-11.071-5.3571 0-2.9587 4.9568-5.3571 11.071-5.3571 6.1146 0 11.071 2.3985 11.071 5.3571z" fill="url(#am)" filter="url(#z)" opacity=".23986"/>
  </g>
  <g transform="translate(0 -2.1429)" stroke="#000">
   <path transform="matrix(.99662 0 0 .99662 449.99 -72.241)" d="m204.29 443.79c0 28.403-23.025 51.429-51.429 51.429-28.403 0-51.429-23.025-51.429-51.429 0-28.403 23.025-51.429 51.429-51.429 28.403 0 51.429 23.025 51.429 51.429z" fill="url(#x)"/>
   <path transform="matrix(.67777 0 0 .67777 498.73 68.624)" d="m204.29 443.79c0 28.403-23.025 51.429-51.429 51.429-28.403 0-51.429-23.025-51.429-51.429 0-28.403 23.025-51.429 51.429-51.429 28.403 0 51.429 23.025 51.429 51.429z" fill="#b3b3b3"/>
   <path transform="matrix(.55514 0 0 .55514 517.47 123.68)" d="m204.29 443.79c0 28.403-23.025 51.429-51.429 51.429-28.403 0-51.429-23.025-51.429-51.429 0-28.403 23.025-51.429 51.429-51.429 28.403 0 51.429 23.025 51.429 51.429z" fill="#b3b3b3" stroke-width="1.8014"/>
   <path transform="matrix(.12592 0 0 .12592 582.53 313.21)" d="m204.29 443.79c0 28.403-23.025 51.429-51.429 51.429-28.403 0-51.429-23.025-51.429-51.429 0-28.403 23.025-51.429 51.429-51.429 28.403 0 51.429 23.025 51.429 51.429z" fill="#e9ddaf" stroke-width="7.9415"/>
   <path transform="matrix(.89154 0 0 .89154 261.95 -139.92)" d="m390.91 592.01c0 2.9587-3.8808 5.3571-8.668 5.3571s-8.668-2.3985-8.668-5.3571c0-2.9587 3.8808-5.3572 8.668-5.3572s8.668 2.3985 8.668 5.3572z" stroke-width="1.7"/>
   <path transform="matrix(.89154 0 0 .89154 261.95 -177.49)" d="m390.91 592.01c0 2.9587-3.8808 5.3571-8.668 5.3571s-8.668-2.3985-8.668-5.3571c0-2.9587 3.8808-5.3572 8.668-5.3572s8.668 2.3985 8.668 5.3572z" stroke-width="1.7"/>
   <path transform="matrix(.013697 .89144 -.89144 .013697 1141.8 19.923)" d="m390.91 592.01c0 2.9587-3.8808 5.3571-8.668 5.3571s-8.668-2.3985-8.668-5.3571c0-2.9587 3.8808-5.3572 8.668-5.3572s8.668 2.3985 8.668 5.3572z" stroke-width="1.7"/>
   <path transform="matrix(.013697 .89144 -.89144 .013697 1106.8 20.56)" d="m390.91 592.01c0 2.9587-3.8808 5.3571-8.668 5.3571s-8.668-2.3985-8.668-5.3571c0-2.9587 3.8808-5.3572 8.668-5.3572s8.668 2.3985 8.668 5.3572z" stroke-width="1.7"/>
  </g>
  <g transform="matrix(.93923 0 0 1 36.302 0)">
   <path d="m605.87 179.37c5.5211 25.193 7.6857 51.058 7.2048 77.451h40.527c-7.9245-30.808-20.704-58.582-47.732-77.451z" fill="url(#ab)" stroke="#000" stroke-width=".89154px"/>
   <path d="m643.46 236.95 5.8539-2.7018 5.6464 14.915-1.3509 1.8012" fill="none" stroke="#000" stroke-width="1.5156"/>
   <path transform="matrix(.72632 -.42329 .52554 .585 -225.72 350.36)" d="m892.97 395.76c0 8.9263-4.2965 16.162-9.5964 16.162-5.3 0-9.5964-7.2362-9.5964-16.162 0-8.9263 4.2965-16.162 9.5964-16.162 5.3 0 9.5964 7.2362 9.5964 16.162z" fill="url(#aj)" stroke="#000" stroke-width="1.4"/>
   <path d="m649.26 249.91c-4.3303 4.8889-16.058 1.3751-22.861-3.375-8.0045-5.5888-8.8081-16.641-4.4777-21.53 4.3303-4.8889 13.356-3.1762 20.159 3.8253 6.8033 7.0016 11.51 16.19 7.1795 21.079z" fill="#ccc" stroke="#000" stroke-width="1.2568"/>
   <path d="m647.9 236.36c4.8632 10.382 3.411 11.18 0.38669 14.052-3.0244 2.8714-7.0355-0.0993-10.741-7.5358-3.7051-7.4365-6.5143-15.799-3.4841-18.664 3.0431-2.8781 11.228 6.5768 13.838 12.148z" fill="url(#ak)"/>
   <path d="m606.13 178.86c5.6868 25.193 7.9164 51.058 7.421 77.451h41.743c-8.1623-30.808-21.326-58.582-49.164-77.451z" fill="url(#ac)" opacity=".56272" stroke="#000" stroke-width=".90482px"/>
  </g>
  <path transform="matrix(.79511 0 0 .81261 -101.11 -104.89)" d="m677.31 454.35a15.657 11.112 0 1 1 -31.315 0 15.657 11.112 0 1 1 31.315 0z" fill="#1c3460" stroke="#000" stroke-width="1.4"/>
  <path d="m412.27 265.45c0-5.8936 5.6471-10.671 12.613-10.671 6.6991 0 12.23 4.4307 12.594 10.09z" fill="url(#ad)" stroke="#000" stroke-width="1.0585"/>
  <path transform="matrix(.79511 0 0 .81261 54.27 -110.63)" d="m677.31 454.35a15.657 11.112 0 1 1 -31.315 0 15.657 11.112 0 1 1 31.315 0z" fill="#1c3460" stroke="#000" stroke-width="1.4"/>
  <path d="m567.65 259.72c0-5.8936 5.6471-10.671 12.613-10.671 6.6991 0 12.23 4.4307 12.594 10.09z" fill="url(#ae)" stroke="#000" stroke-width="1.0585"/>
  <path d="m612.18 256.37-3.6024 25.667 24.766-1.3509c3.5251-1.0915 5.7766-4.4119 6.7545-9.006v-15.76z" fill="url(#af)" stroke="#000" stroke-width=".89154px"/>
  <path transform="matrix(1.1356 0 0 .89154 -326.28 -140.15)" d="m666.2 469.5a3.0305 3.5355 0 1 1 -6.0609 0 3.0305 3.5355 0 1 1 6.0609 0z" fill="#999" stroke="#000" stroke-width="1.4"/>
  <path d="m426.96 275.25v6.0498" fill="none" stroke="#000" stroke-width=".89154px"/>
  <g transform="matrix(.89154 0 0 .89154 -163.68 -140.15)" fill="url(#aa)" stroke="#000" stroke-width="1px">
   <path d="m467.47 511.99 319-12.566-9.1526 10.484-310.12 9.5964c-3.7476-2.2136-1.9982-6.1694 0.27048-7.5149z"/>
   <path d="m695.71 503.35v8.6576"/>
   <path d="m681.79 503.78 0.35714 8.5837"/>
  </g>
  <path d="m668 302s1.9801-3.5952 6.0498 0.31841 4.0206 24.672 2.5473 27.702c-0.60344 1.2408-4.1393 0-4.1393 0z" fill="#1a1a1a" stroke="#000" stroke-width=".89154px"/>
  <path d="m602.27 303.65 4.9533-10.698c25.312 1.1004 57.102 3.9103 59.439 15.651l5.1624 25.931" fill="none" stroke="#000" stroke-width=".89154px"/>
  <path transform="translate(7.2502 126.24)" d="m174.29 114.37c12.32-8.8 24.64-13.49 36.96-16.605" fill="none" stroke="#000" stroke-width="1px"/>
  <path d="m605.17 167.93s7.6972 0.95448 8.8082 3.7834c2.3532 5.9923 3.7788 16.93 3.7788 16.93s-5.7494-5.5654-12.587-9.9887z" fill="#1b4aa1" stroke="#000" stroke-width=".89154px"/>
  <path d="m471.63 172.51c-5.696 12.243-4.0425 31.633-3.3932 52.257 0.52355 16.63 78.801-0.27726 88.158-5.8219 14.381-8.521 15.741-23.7 14.3-29.324-2.7488-10.73-95.168-25.488-99.065-17.111z" fill="url(#al)" opacity=".49" stroke="#000" stroke-width=".89154px"/>
 </g>
</svg>
